<?xml version="1.0" encoding="UTF-8"?>
<svg version="1.1" xmlns="http://www.w3.org/2000/svg" width="600" height="600">
<path d="M0 0 C1.61124069 0.46757124 3.22289923 0.93370483 4.83496094 1.3984375 C7.98794665 2.30916189 11.1382763 3.22835007 14.28710938 4.15332031 C17.73601823 5.16122325 21.19597563 6.11217533 24.671875 7.0234375 C45.33947669 12.4781621 65.90005797 20.85539776 83.8046875 32.61328125 C85.53927009 33.74704466 87.29361601 34.85141083 89.0703125 35.91796875 C97.2705667 40.87483882 104.50792845 46.90390679 111.84716797 53.02929688 C113.1828492 54.1167821 114.57093053 55.13970869 115.97265625 56.140625 C116.47667969 56.54796875 116.98070312 56.9553125 117.5 57.375 C117.5 58.035 117.5 58.695 117.5 59.375 C118.03238281 59.58511719 118.56476563 59.79523438 119.11328125 60.01171875 C134.16583024 68.6096559 144.25987096 86.50489491 149.5 102.375 C150.39227257 106.13381189 150.6727813 109.70523883 150.78125 113.5637207 C150.83635742 115.40768181 150.83635742 115.40768181 150.89257812 117.28889465 C150.92839155 118.62619002 150.96419867 119.96348556 151 121.30078125 C151.04056996 122.69021389 151.08159361 124.07963335 151.12304688 125.46903992 C151.23141926 129.13048881 151.33518041 132.79205179 151.4375 136.45367432 C151.60032548 142.27325427 151.76778138 148.09269004 151.93969727 153.91200829 C151.99798304 155.91883571 152.05276528 157.92576394 152.10742188 159.93269348 C152.33939614 167.91377185 152.74361493 175.86463311 153.28242493 183.82962036 C154.09819311 197.12253978 153.76079687 210.48300884 152.6875 223.75 C152.58248169 225.12973999 152.58248169 225.12973999 152.4753418 226.53735352 C151.10601703 241.4879772 145.55746465 254.4891887 134.0625 264.3125 C111.89531781 281.53165045 82.7361406 282.35541662 55.84790039 282.91772461 C54.90736569 282.93847546 53.96683098 282.9592263 52.99779522 282.98060596 C33.52922396 283.40865598 14.06210751 283.58579584 -5.41054654 283.67832303 C-10.01247709 283.70099293 -14.61438284 283.72799754 -19.21629333 283.75437927 C-26.92763086 283.79800671 -34.63897861 283.83887021 -42.3503418 283.87768555 C-52.10331847 283.92678928 -61.85626412 283.9804834 -71.60920811 284.03566074 C-80.18533306 284.08414929 -88.761469 284.1305839 -97.33760715 284.1766727 C-100.00332214 284.19106564 -102.66903572 284.20570125 -105.33474922 284.22036934 C-114.49991372 284.27028709 -123.66504898 284.31298119 -132.83030003 284.34342641 C-138.24817172 284.36264156 -143.66580897 284.39622276 -149.0835641 284.43636638 C-152.92752566 284.46287105 -156.77149917 284.48077463 -160.61551654 284.49697864 C-162.44779885 284.50651028 -164.28006684 284.51956122 -166.11229622 284.53643715 C-190.49967516 284.75619214 -190.49967516 284.75619214 -200.5 277.375 C-201.53125 276.67375 -202.5625 275.9725 -203.625 275.25 C-209.27641289 270.4037199 -212.76923485 262.48110589 -213.80859375 255.21875 C-214.23674318 247.43421499 -211.29525247 242.01932012 -207.5 235.375 C-207.17 234.715 -206.84 234.055 -206.5 233.375 C-211.07806017 232.24077017 -215.51709271 232.19012317 -220.203125 232.12890625 C-221.92318197 232.09595715 -223.64323393 232.06274569 -225.36328125 232.02929688 C-228.05318662 231.98204112 -230.74307326 231.93760147 -233.43310547 231.89819336 C-236.04415677 231.85812301 -238.65480325 231.80666102 -241.265625 231.75390625 C-242.05656555 231.7454921 -242.8475061 231.73707794 -243.66241455 231.72840881 C-254.12546622 231.50049243 -261.69261227 229.4638572 -269.1875 221.8125 C-275.07982122 214.75996509 -276.02957061 206.25573997 -275.796875 197.30859375 C-275.26167843 192.02000663 -273.87741009 186.99305606 -271.3984375 182.28125 C-270.28683372 180.27394393 -270.28683372 180.27394393 -270.5 177.375 C-272.13070764 175.63964825 -272.13070764 175.63964825 -274.25 174 C-280.32570708 168.86892583 -283.86407583 164.34322484 -284.72314453 156.28076172 C-285.25723464 145.98045256 -285.31465594 136.56375022 -278.734375 128.10546875 C-272.03387797 120.78504385 -264.75400556 119.03223478 -255.125 118.1875 C-254.29444092 118.10709473 -253.46388184 118.02668945 -252.6081543 117.94384766 C-246.8855408 117.41857009 -241.24798882 117.18654135 -235.5 117.375 C-235.7165625 116.59898437 -235.933125 115.82296875 -236.15625 115.0234375 C-239.52416345 101.9571807 -240.40530776 90.41695358 -233.5 78.375 C-231.9403668 76.33792806 -230.51085803 75.01543682 -228.5 73.375 C-228.04270508 72.87422943 -227.58541016 72.37345886 -227.11425781 71.85751343 C-220.24792857 65.55156575 -208.43476098 66.91704907 -199.75 66.8984375 C-198.20905248 66.88405938 -196.66811739 66.86829078 -195.12719727 66.85122681 C-191.06987056 66.80954101 -187.01262041 66.78449422 -182.95513916 66.76373291 C-176.57331257 66.72803593 -170.19164653 66.6660624 -163.80999756 66.60733795 C-162.2309424 66.59309453 -160.65188128 66.5794968 -159.07281494 66.56655121 C-142.2069938 66.42732503 -125.35603308 65.94965606 -108.5 65.375 C-109.89105541 61.87820013 -109.89105541 61.87820013 -111.3515625 58.41015625 C-114.75536788 49.72873343 -115.13118056 38.99235225 -111.58203125 30.2734375 C-108.94772303 25.65151044 -105.82112594 23.08794051 -100.71484375 21.51953125 C-98.51727042 21.02664306 -96.31342153 20.56127292 -94.10546875 20.1171875 C-74.89482592 16.16266731 -56.90935782 7.14868542 -39.5 -1.625 C-26.22970467 -7.68366976 -13.23920189 -3.94262006 0 0 Z M-38.5 9.375 C-39.26441406 9.75011719 -40.02882813 10.12523437 -40.81640625 10.51171875 C-42.50602644 11.34991844 -44.19083192 12.19788223 -45.87109375 13.0546875 C-50.35052719 15.3043881 -54.91490886 17.35123564 -59.5 19.375 C-60.88638672 19.99375 -60.88638672 19.99375 -62.30078125 20.625 C-72.11657193 24.87541004 -82.49549363 28.76122878 -93.125 30.25 C-97.45825461 31.06248524 -99.8903923 32.61711279 -102.49609375 36.1953125 C-104.93040451 41.48070318 -104.34101702 46.74128882 -102.609375 52.1640625 C-100.11120697 57.80992225 -97.39043956 61.08675533 -91.5 63.375 C-88.39406825 64.01826151 -85.3536586 64.1684433 -82.1875 64.25 C-81.29393799 64.28262939 -80.40037598 64.31525879 -79.47973633 64.34887695 C-65.21727595 64.69406435 -50.30679997 64.13495545 -36.5 60.375 C-26.73665235 58.83035097 -17.03429784 58.59049157 -7.5 61.375 C-6.81292969 61.55804688 -6.12585938 61.74109375 -5.41796875 61.9296875 C-3.5 62.5625 -3.5 62.5625 -0.5 64.375 C0.4375 68.0625 0.4375 68.0625 0.5 71.375 C-3.22147932 73.74021486 -6.98629722 73.79727731 -11.265625 73.97265625 C-12.05915375 74.01152954 -12.8526825 74.05040283 -13.67025757 74.0904541 C-16.36312446 74.21750976 -19.05633869 74.32864253 -21.75 74.4375 C-22.71121765 74.4785788 -23.6724353 74.51965759 -24.66278076 74.5619812 C-59.84933946 76.04898336 -95.08543057 76.27600931 -130.29904175 76.50627136 C-138.10786902 76.55742561 -145.91662531 76.61737042 -153.72538185 76.67828465 C-160.35933861 76.72882883 -166.99319249 76.7654185 -173.62728691 76.79181576 C-177.80778461 76.81138638 -181.98813211 76.84305742 -186.16852951 76.87769127 C-188.1224415 76.89133024 -190.07639642 76.89992295 -192.03035355 76.90302467 C-208.46105411 76.20866664 -208.46105411 76.20866664 -223.28839111 81.75570679 C-228.55963048 87.62103275 -227.9122179 95.02081034 -227.78125 102.43359375 C-227.41276718 107.59747102 -226.5258521 110.20423089 -223.5 114.375 C-219.74112525 117.15323763 -217.06748929 117.7535201 -212.43193054 117.77372742 C-211.21341904 117.78626556 -209.99490753 117.79880371 -208.73947144 117.8117218 C-207.3975217 117.81054787 -206.0555722 117.80908876 -204.71362305 117.80737305 C-203.2941757 117.81639349 -201.87473615 117.8267214 -200.45530701 117.83825684 C-196.60859771 117.86582011 -192.76203625 117.8751104 -188.915241 117.88111091 C-184.89263797 117.89049635 -180.87014529 117.91669988 -176.84761047 117.94111633 C-169.23336591 117.98478036 -161.61914276 118.0133279 -154.00481111 118.03643972 C-145.33490546 118.06349192 -136.66511082 118.10740341 -127.99528444 118.15272844 C-110.16358157 118.24557331 -92.33184934 118.31725476 -74.5 118.375 C-74.45758277 120.70794775 -74.45907063 123.04202567 -74.5 125.375 C-76.40681801 127.28181801 -79.82406466 126.50809057 -82.34849548 126.51303101 C-83.43562744 126.51726293 -83.43562744 126.51726293 -84.54472166 126.52158034 C-86.99198325 126.5299642 -89.43919981 126.53126785 -91.88647461 126.53271484 C-93.63392261 126.53738054 -95.3813694 126.5425237 -97.1288147 126.54811096 C-100.90259119 126.55941521 -104.67635967 126.56783836 -108.45014763 126.57423019 C-114.42208181 126.58489335 -120.39395898 126.60513607 -126.36585999 126.62734985 C-143.35170871 126.68932301 -160.33755514 126.74322168 -177.32348633 126.77636719 C-186.69667435 126.7947382 -196.06976788 126.8237104 -205.44288641 126.8643719 C-210.40301311 126.88541022 -215.36302084 126.90089457 -220.3231945 126.90317917 C-224.99602324 126.90533368 -229.66860482 126.92128484 -234.34135818 126.94756889 C-236.05129316 126.95473437 -237.76125817 126.95687629 -239.47120476 126.95346642 C-256.10949579 126.83307573 -256.10949579 126.83307573 -270.5 134.375 C-275.01599432 139.94943048 -275.1087179 146.15141379 -274.87890625 153.09765625 C-274.07627238 160.04002549 -270.47286144 163.79806778 -265.28125 168.2109375 C-261.75688952 170.51413799 -258.18748843 170.49806976 -254.06741333 170.48852539 C-252.40925095 170.48841965 -252.40925095 170.48841965 -250.71759033 170.48831177 C-249.50770447 170.48314545 -248.2978186 170.47797913 -247.05126953 170.47265625 C-245.08624387 170.47041333 -243.12121822 170.46817081 -241.15619254 170.46594238 C-239.03751091 170.46256814 -236.91884881 170.45670857 -234.80017471 170.45016479 C-230.32396943 170.43651239 -225.84777392 170.43071544 -221.37155151 170.42602539 C-210.20548991 170.4130765 -199.03945459 170.38902808 -187.87341309 170.36462402 C-177.00155202 170.34105116 -166.12969618 170.32167406 -155.2578125 170.3125 C-154.11693035 170.31153698 -154.11693035 170.31153698 -152.95300007 170.3105545 C-131.29550434 170.29497071 -109.64652973 170.42398396 -87.9921875 170.8125 C-86.24654699 170.8419722 -86.24654699 170.8419722 -84.46564102 170.87203979 C-81.25672107 170.92807778 -78.04806205 170.99154314 -74.83935547 171.05859375 C-73.89574032 171.07531128 -72.95212517 171.09202881 -71.97991562 171.10925293 C-65.61611164 171.25888836 -65.61611164 171.25888836 -64.5 172.375 C-64.45907063 174.70797433 -64.45758277 177.04205225 -64.5 179.375 C-65.93594308 179.37858253 -65.93594308 179.37858253 -67.40089512 179.38223743 C-90.69487982 179.44103411 -113.9887611 179.51691803 -137.28263187 179.61071491 C-148.54737983 179.65567889 -159.81209613 179.69509222 -171.0769043 179.72143555 C-180.89540202 179.74441069 -190.71379961 179.7778034 -200.53221792 179.82370156 C-205.73091107 179.8476402 -210.92950501 179.86636482 -216.12825203 179.87261391 C-221.02267607 179.8786618 -225.91684624 179.89865118 -230.8111763 179.92927551 C-232.60621948 179.93806043 -234.40129583 179.94177738 -236.19635963 179.94000816 C-238.6508574 179.93835301 -241.10458346 179.95507481 -243.55897522 179.97627258 C-244.26619266 179.97142501 -244.9734101 179.96657743 -245.70205837 179.96158296 C-251.71723876 180.04707828 -256.48640159 181.36140159 -260.8125 185.6875 C-265.30082735 192.8355769 -265.8065483 201.47511784 -264 209.6328125 C-262.08738639 214.65342323 -258.8011694 217.2244153 -254.125 219.5625 C-248.74568147 221.22752716 -243.2164227 221.51465781 -237.6171875 221.69140625 C-236.63650803 221.7225779 -236.63650803 221.7225779 -235.63601685 221.75437927 C-234.24601036 221.7974313 -232.85594111 221.83849769 -231.46582031 221.87768555 C-229.4561975 221.93517709 -227.44683565 222.00158086 -225.4375 222.06835938 C-216.35692795 222.35071657 -207.28281073 222.39319391 -198.19824219 222.37719727 C-176.57673354 222.35933277 -154.95628158 222.5054173 -133.33545494 222.66252708 C-125.65317615 222.71819271 -117.97091096 222.7672002 -110.28853929 222.80814302 C-104.16470679 222.84140805 -98.04099158 222.88537105 -91.9172554 222.93306351 C-89.32962866 222.9515871 -86.74197518 222.96670255 -84.15430832 222.97834396 C-80.56806826 222.99511737 -76.98212754 223.02410979 -73.39599609 223.05615234 C-72.3302536 223.05831253 -71.26451111 223.06047272 -70.16647339 223.06269836 C-68.70860413 223.07944359 -68.70860413 223.07944359 -67.22128296 223.0965271 C-66.37679281 223.10205786 -65.53230267 223.10758862 -64.66222191 223.11328697 C-62.5 223.375 -62.5 223.375 -59.5 225.375 C-59.3125 228 -59.3125 228 -59.5 230.375 C-61.956474 231.603237 -63.53359309 231.49278056 -66.28030396 231.48179626 C-67.28960464 231.48028061 -68.29890533 231.47876495 -69.33879089 231.47720337 C-70.45047134 231.470466 -71.56215179 231.46372864 -72.70751953 231.45678711 C-73.87514328 231.45372055 -75.04276703 231.45065399 -76.24577332 231.44749451 C-79.45479041 231.43844817 -82.66375994 231.42510261 -85.87275553 231.41053081 C-89.23359054 231.39684197 -92.59443673 231.39038187 -95.95529175 231.38368225 C-107.40675596 231.35952788 -118.85816855 231.32377515 -130.30957031 231.27905273 C-136.63158847 231.25443952 -142.95358601 231.2371153 -149.27564514 231.22749335 C-152.6193656 231.22204023 -155.96289115 231.21150073 -159.3065834 231.19410515 C-163.0431331 231.17484776 -166.77952057 231.16798661 -170.51611328 231.16381836 C-171.61564835 231.15505676 -172.71518341 231.14629517 -173.84803772 231.13726807 C-182.416507 231.14815728 -189.34477818 231.55897952 -195.875 237.6875 C-196.70773438 238.44675781 -197.54046875 239.20601562 -198.3984375 239.98828125 C-202.4303673 244.56729447 -202.96754627 248.90454274 -202.80078125 254.8203125 C-202.04025755 261.27982544 -199.12817146 265.16087772 -194.1875 269.25 C-188.20464219 273.86872326 -181.79853283 274.67686197 -174.41845703 274.58569336 C-173.63088894 274.58408518 -172.84332085 274.582477 -172.03188705 274.58082008 C-169.39871908 274.5728134 -166.76589094 274.55013927 -164.1328125 274.52734375 C-162.22950601 274.51816583 -160.32619545 274.50980122 -158.42288208 274.50218201 C-153.21326786 274.47828607 -148.0038331 274.44077424 -142.79432678 274.39998627 C-139.48036882 274.3748511 -136.1664055 274.35303078 -132.85241699 274.33233643 C-117.29698557 274.23501671 -101.7418865 274.10919727 -86.18676758 273.97114182 C-82.32259613 273.9370375 -78.45841843 273.90373983 -74.59423828 273.87063599 C-42.13366773 273.5915089 -9.67475329 273.27632322 22.78173828 272.67993164 C25.04198626 272.63915552 27.30224001 272.59869841 29.5625 272.55859375 C30.62005493 272.53975632 31.67760986 272.52091888 32.76721191 272.50151062 C42.35920008 272.34656184 51.95001873 272.35171617 61.54296875 272.40757751 C85.15016552 272.49765163 107.69483036 269.68617188 127.75 256.1875 C136.50094556 247.23766931 141.54824871 238.0183662 142.671875 225.5859375 C142.7912442 224.35065811 142.7912442 224.35065811 142.9130249 223.09042358 C143.71891946 214.06134036 143.80674955 205.05870092 143.75 196 C143.74689819 195.10811981 143.74379639 194.21623962 143.74060059 193.29733276 C143.68028421 178.16007763 143.35341832 163.02698043 142.86120605 147.89788818 C142.78818263 145.62562524 142.72007272 143.35319801 142.65734863 141.08062744 C142.34202908 130.0520288 141.79637713 119.21885054 139.69921875 108.3671875 C139.47646271 107.19308067 139.47646271 107.19308067 139.24920654 105.99525452 C136.95939681 95.35130043 131.33931583 85.84395445 123.5 78.375 C122.07486594 76.75742083 120.65813752 75.13239645 119.25 73.5 C115.11770343 68.87625778 110.74479053 64.72368232 105.5 61.375 C104.84 61.375 104.18 61.375 103.5 61.375 C103.17 60.385 102.84 59.395 102.5 58.375 C100.95014744 56.92745565 100.95014744 56.92745565 98.9921875 55.58984375 C98.26128906 55.06447021 97.53039062 54.53909668 96.77734375 53.99780273 C95.58818359 53.16357788 95.58818359 53.16357788 94.375 52.3125 C93.55386719 51.73250244 92.73273438 51.15250488 91.88671875 50.55493164 C90.20929942 49.37407394 88.52928525 48.19689353 86.84667969 47.0234375 C84.83881476 45.61300221 82.85731563 44.17518487 80.8828125 42.71875 C64.59491346 30.96350427 45.43010478 23.21927805 26.11035156 18.08447266 C22.17916597 17.01600789 18.28094711 15.84048944 14.37695312 14.67724609 C10.33471399 13.47858711 6.28364306 12.3124358 2.22949219 11.15478516 C0.52057696 10.66656734 -1.18728934 10.17464576 -2.89355469 9.67724609 C-14.64389103 6.27776126 -27.11611474 3.53173783 -38.5 9.375 Z " fill="#0C0C0C" transform="translate(366.5,143.625)"/>
<path d="M0 0 C1.61124069 0.46757124 3.22289923 0.93370483 4.83496094 1.3984375 C7.98794665 2.30916189 11.1382763 3.22835007 14.28710938 4.15332031 C17.73601823 5.16122325 21.19597563 6.11217533 24.671875 7.0234375 C45.33947669 12.4781621 65.90005797 20.85539776 83.8046875 32.61328125 C85.53927009 33.74704466 87.29361601 34.85141083 89.0703125 35.91796875 C97.2705667 40.87483882 104.50792845 46.90390679 111.84716797 53.02929688 C113.1828492 54.1167821 114.57093053 55.13970869 115.97265625 56.140625 C116.47667969 56.54796875 116.98070312 56.9553125 117.5 57.375 C117.5 58.035 117.5 58.695 117.5 59.375 C118.03238281 59.58511719 118.56476563 59.79523438 119.11328125 60.01171875 C134.16583024 68.6096559 144.25987096 86.50489491 149.5 102.375 C150.39227257 106.13381189 150.6727813 109.70523883 150.78125 113.5637207 C150.83635742 115.40768181 150.83635742 115.40768181 150.89257812 117.28889465 C150.92839155 118.62619002 150.96419867 119.96348556 151 121.30078125 C151.04056996 122.69021389 151.08159361 124.07963335 151.12304688 125.46903992 C151.23141926 129.13048881 151.33518041 132.79205179 151.4375 136.45367432 C151.60032548 142.27325427 151.76778138 148.09269004 151.93969727 153.91200829 C151.99798304 155.91883571 152.05276528 157.92576394 152.10742188 159.93269348 C152.33939614 167.91377185 152.74361493 175.86463311 153.28242493 183.82962036 C154.09819311 197.12253978 153.76079687 210.48300884 152.6875 223.75 C152.58248169 225.12973999 152.58248169 225.12973999 152.4753418 226.53735352 C151.10601703 241.4879772 145.55746465 254.4891887 134.0625 264.3125 C111.89531781 281.53165045 82.7361406 282.35541662 55.84790039 282.91772461 C54.90736569 282.93847546 53.96683098 282.9592263 52.99779522 282.98060596 C33.52922396 283.40865598 14.06210751 283.58579584 -5.41054654 283.67832303 C-10.01247709 283.70099293 -14.61438284 283.72799754 -19.21629333 283.75437927 C-26.92763086 283.79800671 -34.63897861 283.83887021 -42.3503418 283.87768555 C-52.10331847 283.92678928 -61.85626412 283.9804834 -71.60920811 284.03566074 C-80.18533306 284.08414929 -88.761469 284.1305839 -97.33760715 284.1766727 C-100.00332214 284.19106564 -102.66903572 284.20570125 -105.33474922 284.22036934 C-114.49991372 284.27028709 -123.66504898 284.31298119 -132.83030003 284.34342641 C-138.24817172 284.36264156 -143.66580897 284.39622276 -149.0835641 284.43636638 C-152.92752566 284.46287105 -156.77149917 284.48077463 -160.61551654 284.49697864 C-162.44779885 284.50651028 -164.28006684 284.51956122 -166.11229622 284.53643715 C-190.49967516 284.75619214 -190.49967516 284.75619214 -200.5 277.375 C-201.53125 276.67375 -202.5625 275.9725 -203.625 275.25 C-209.27641289 270.4037199 -212.76923485 262.48110589 -213.80859375 255.21875 C-214.23674318 247.43421499 -211.29525247 242.01932012 -207.5 235.375 C-207.17 234.715 -206.84 234.055 -206.5 233.375 C-211.07806017 232.24077017 -215.51709271 232.19012317 -220.203125 232.12890625 C-221.92318197 232.09595715 -223.64323393 232.06274569 -225.36328125 232.02929688 C-228.05318662 231.98204112 -230.74307326 231.93760147 -233.43310547 231.89819336 C-236.04415677 231.85812301 -238.65480325 231.80666102 -241.265625 231.75390625 C-242.05656555 231.7454921 -242.8475061 231.73707794 -243.66241455 231.72840881 C-254.12546622 231.50049243 -261.69261227 229.4638572 -269.1875 221.8125 C-275.07982122 214.75996509 -276.02957061 206.25573997 -275.796875 197.30859375 C-275.26167843 192.02000663 -273.87741009 186.99305606 -271.3984375 182.28125 C-270.28683372 180.27394393 -270.28683372 180.27394393 -270.5 177.375 C-272.13070764 175.63964825 -272.13070764 175.63964825 -274.25 174 C-280.32570708 168.86892583 -283.86407583 164.34322484 -284.72314453 156.28076172 C-285.25723464 145.98045256 -285.31465594 136.56375022 -278.734375 128.10546875 C-272.03387797 120.78504385 -264.75400556 119.03223478 -255.125 118.1875 C-254.29444092 118.10709473 -253.46388184 118.02668945 -252.6081543 117.94384766 C-246.8855408 117.41857009 -241.24798882 117.18654135 -235.5 117.375 C-235.7165625 116.59898437 -235.933125 115.82296875 -236.15625 115.0234375 C-239.52416345 101.9571807 -240.40530776 90.41695358 -233.5 78.375 C-231.9403668 76.33792806 -230.51085803 75.01543682 -228.5 73.375 C-228.04270508 72.87422943 -227.58541016 72.37345886 -227.11425781 71.85751343 C-220.24792857 65.55156575 -208.43476098 66.91704907 -199.75 66.8984375 C-198.20905248 66.88405938 -196.66811739 66.86829078 -195.12719727 66.85122681 C-191.06987056 66.80954101 -187.01262041 66.78449422 -182.95513916 66.76373291 C-176.57331257 66.72803593 -170.19164653 66.6660624 -163.80999756 66.60733795 C-162.2309424 66.59309453 -160.65188128 66.5794968 -159.07281494 66.56655121 C-142.2069938 66.42732503 -125.35603308 65.94965606 -108.5 65.375 C-109.89105541 61.87820013 -109.89105541 61.87820013 -111.3515625 58.41015625 C-114.06771965 51.48258373 -113.7823191 44.72575283 -113.5 37.375 C-113.17 37.375 -112.84 37.375 -112.5 37.375 C-112.40203125 38.4371875 -112.3040625 39.499375 -112.203125 40.59375 C-111.11374887 51.29645926 -109.84213869 58.70925093 -101.5 66.375 C-101.17 67.035 -100.84 67.695 -100.5 68.375 C-101.05769262 68.37831015 -101.61538525 68.38162029 -102.18997765 68.38503075 C-115.79625085 68.46645648 -129.4024138 68.55873405 -143.00853539 68.66252708 C-149.58851401 68.7123974 -156.1684773 68.75872825 -162.74853516 68.796875 C-169.10284038 68.83384479 -175.45701434 68.88023644 -181.81120682 68.93306351 C-184.23116368 68.95154538 -186.65114861 68.96667605 -189.07114792 68.97834396 C-192.46993092 68.99531277 -195.86841737 69.02437342 -199.26708984 69.05615234 C-200.25971832 69.05831253 -201.2523468 69.06047272 -202.27505493 69.06269836 C-212.59541901 69.18535435 -221.56767512 70.31863738 -229.5 77.375 C-235.30179873 84.39303983 -235.94378597 93.31594116 -235.83203125 102.04296875 C-235.31687681 107.21269509 -233.55258324 111.64334224 -231.5 116.375 C-231.17 117.365 -230.84 118.355 -230.5 119.375 C-231.26030518 119.38958252 -232.02061035 119.40416504 -232.80395508 119.41918945 C-236.30726959 119.49446377 -239.80971232 119.5908588 -243.3125 119.6875 C-244.50810547 119.71005859 -245.70371094 119.73261719 -246.93554688 119.75585938 C-256.5442192 120.04385773 -266.9903704 120.73858315 -274.5 127.375 C-281.95509964 136.7466229 -282.82345785 146.68771996 -281.5 158.375 C-279.27757538 165.83533824 -275.05244954 171.43120685 -268.1875 175.1875 C-267.300625 175.579375 -266.41375 175.97125 -265.5 176.375 C-266.16352981 179.96142064 -267.73145999 182.55785005 -269.5625 185.6875 C-273.72198455 193.93613966 -273.93129282 201.89465512 -271.609375 210.78515625 C-269.28898218 217.02701295 -266.44155294 222.08379243 -260.5 225.375 C-253.72514283 228.44400687 -247.73044928 228.9150056 -240.34375 229.10546875 C-239.20087524 229.145616 -238.05800049 229.18576324 -236.88049316 229.22712708 C-233.25395245 229.3516192 -229.62714742 229.4573339 -226 229.5625 C-223.53120872 229.64394032 -221.06245765 229.72660951 -218.59375 229.81054688 C-212.56289271 230.01292481 -206.53170811 230.19991712 -200.5 230.375 C-200.9116893 230.91719681 -201.3233786 231.45939362 -201.74754333 232.01802063 C-202.28774612 232.73306259 -202.82794891 233.44810455 -203.38452148 234.18481445 C-204.18768044 235.24560966 -204.18768044 235.24560966 -205.00706482 236.32783508 C-210.38028022 243.6957759 -210.33273795 250.51429397 -209.5 259.375 C-208.64168926 262.76460005 -207.40183278 265.45093211 -205.5 268.375 C-205.0875 269.00921875 -204.675 269.6434375 -204.25 270.296875 C-200.38750711 275.43223486 -195.56101144 278.36930042 -189.5 280.375 C-183.9025274 281.07253051 -178.36387206 281.01933384 -172.73120117 280.95849609 C-171.04500162 280.95872327 -169.35880117 280.96114594 -167.67260742 280.96557617 C-163.0909388 280.97127739 -158.50990912 280.94593774 -153.92836165 280.91490126 C-149.0367641 280.8869903 -144.14515902 280.88733683 -139.25349426 280.88418579 C-130.96031049 280.8749652 -122.66735597 280.84749047 -114.37426758 280.80712891 C-103.00964721 280.75183715 -91.64514623 280.72800168 -80.28041244 280.71164465 C-58.03212686 280.67783996 -35.78466302 280.5692454 -13.53682101 280.42862535 C-6.46697642 280.38474706 0.60287214 280.35126478 7.67279053 280.32189941 C16.52298374 280.28476303 25.37295216 280.23277433 34.22294992 280.16294777 C38.79082249 280.12712345 43.35852668 280.09685418 47.92652321 280.08295822 C95.61024481 280.18138847 95.61024481 280.18138847 136.6875 258.27734375 C149.11344644 245.235456 149.65904985 229.53037287 149.6328125 212.51953125 C149.63348762 210.97027064 149.63445938 209.42101013 149.63571167 207.87174988 C149.63718102 204.63153063 149.63506015 201.39133906 149.63037109 198.15112305 C149.62469824 194.03404671 149.62794214 189.91703594 149.63394356 185.79996204 C149.63759034 182.60057601 149.63639146 179.40120501 149.63381577 176.20181847 C149.63315658 174.68583862 149.63393892 173.16985733 149.63629532 171.65387917 C149.64620296 163.48418609 149.43507303 155.40230109 148.72912598 147.25614929 C148.41065175 143.25148866 148.34733567 139.26535506 148.32421875 135.25 C148.30103589 133.61977854 148.27691919 131.98957013 148.25195312 130.359375 C148.21693002 127.86514194 148.18748066 125.37140215 148.17407227 122.87695312 C148.0198715 98.71725232 138.99461572 81.84600886 122.1015625 64.98046875 C119.62603593 62.69821419 117.09147974 60.52483319 114.5 58.375 C113.95891602 57.92302246 113.41783203 57.47104492 112.86035156 57.00537109 C79.78348811 29.50253766 43.87623432 14.19254399 2.5 3.375 C0.94490723 2.95976074 0.94490723 2.95976074 -0.64160156 2.53613281 C-24.10857837 -3.70033952 -37.28427312 -0.14180503 -58.76025391 10.2722168 C-70.46824756 15.8910212 -82.27480904 21.31787175 -95.5 21.375 C-95.5 21.045 -95.5 20.715 -95.5 20.375 C-94.530625 20.16746094 -93.56125 19.95992187 -92.5625 19.74609375 C-82.99667418 17.58968468 -74.40795096 14.44839886 -65.53515625 10.31152344 C-62.05061674 8.70803333 -58.52177661 7.20693145 -55 5.6875 C-50.96566917 3.93568145 -46.96513254 2.15746012 -43.0625 0.125 C-28.14860748 -7.20112264 -15.2854865 -4.55200142 0 0 Z " fill="#D7D7D7" transform="translate(366.5,143.625)"/>
<path d="M0 0 C1.62515911 0.45774915 3.25057009 0.91460493 4.8762207 1.37060547 C41.70760125 11.79808608 72.06598543 24.76585009 102.1875 48.5625 C103.29367397 49.4200413 104.40034335 50.27694451 105.5078125 51.1328125 C119.37514024 62.0892143 132.02690072 74.66304787 138.1875 91.5625 C138.45151611 92.23982178 138.71553223 92.91714355 138.98754883 93.61499023 C142.26462374 103.384438 141.51393023 113.58362756 141.375 123.75 C141.35992581 125.67511974 141.34624225 127.60025089 141.33398438 129.52539062 C141.30119566 134.20471284 141.24956443 138.88347826 141.1875 143.5625 C140.8575 143.5625 140.5275 143.5625 140.1875 143.5625 C140.1781543 142.66756836 140.16880859 141.77263672 140.15917969 140.85058594 C140.14205955 107.83455971 140.14205955 107.83455971 128.11328125 77.65234375 C126.1875 74.5625 126.1875 74.5625 125.1875 71.5625 C123.85474287 70.89468217 122.52130851 70.22821547 121.1875 69.5625 C119.77897518 68.11342264 118.42707723 66.60793271 117.125 65.0625 C114.85416629 62.37759872 113.13542002 60.52778001 110.1875 58.5625 C110.1875 57.9025 110.1875 57.2425 110.1875 56.5625 C109.445 56.30597656 108.7025 56.04945313 107.9375 55.78515625 C105.06131042 54.50639583 103.43746141 53.17525566 101.1875 51 C96.12189148 46.36070507 90.61423618 42.54024043 84.91455078 38.73779297 C83.22696819 37.5893589 81.57930823 36.39885712 79.93359375 35.19140625 C63.47395618 23.34008536 44.31769055 15.45995686 24.79785156 10.27197266 C20.86666597 9.20350789 16.96844711 8.02798944 13.06445312 6.86474609 C9.02221399 5.66608711 4.97114306 4.4999358 0.91699219 3.34228516 C-0.79192304 2.85406734 -2.49978934 2.36214576 -4.20605469 1.86474609 C-15.95639103 -1.53473874 -28.42861474 -4.28076217 -39.8125 1.5625 C-40.57691406 1.93761719 -41.34132813 2.31273437 -42.12890625 2.69921875 C-43.81852644 3.53741844 -45.50333192 4.38538223 -47.18359375 5.2421875 C-51.66302719 7.4918881 -56.22740886 9.53873564 -60.8125 11.5625 C-61.73675781 11.975 -62.66101563 12.3875 -63.61328125 12.8125 C-73.46519204 17.07855068 -83.84881158 20.91263958 -94.5 22.5 C-98.25387784 23.20899548 -100.76629397 24.29112287 -103.03515625 27.6015625 C-105.67907302 34.27114149 -104.04947647 41.22124484 -101.37109375 47.58984375 C-98.57974292 51.12275645 -95.04939522 53.09758679 -90.69458008 54.00268555 C-88.28967406 54.25920537 -85.91777371 54.37522085 -83.5 54.4375 C-82.60643799 54.47012939 -81.71287598 54.50275879 -80.79223633 54.53637695 C-66.52977595 54.88156435 -51.61929997 54.32245545 -37.8125 50.5625 C-25.78615697 48.65982483 -13.37496144 48.52097746 -2.34375 54.27734375 C-0.8125 55.5625 -0.8125 55.5625 0.1875 59.3125 C0.1875 60.385 0.1875 61.4575 0.1875 62.5625 C-3.99320023 65.59423181 -7.65485321 66.08594488 -12.67578125 66.2578125 C-13.46789505 66.29527084 -14.26000885 66.33272919 -15.0761261 66.37132263 C-17.75866638 66.49240735 -20.44147155 66.59092005 -23.125 66.6875 C-25.09489224 66.76677327 -27.06478147 66.84612137 -29.03466797 66.92553711 C-63.20513213 68.23757228 -97.41933445 68.47018828 -131.61154175 68.69377136 C-139.42036902 68.74492561 -147.22912531 68.80487042 -155.03788185 68.86578465 C-161.67183861 68.91632883 -168.30569249 68.9529185 -174.93978691 68.97931576 C-179.12028461 68.99888638 -183.30063211 69.03055742 -187.48102951 69.06519127 C-189.4349415 69.07883024 -191.38889642 69.08742295 -193.34285355 69.09052467 C-210.51723502 68.37958889 -210.51723502 68.37958889 -225.5 75 C-229.14553022 82.11746376 -229.14592257 92.6847988 -227.05859375 100.3203125 C-225.29785494 104.06274558 -223.66047557 106.14162519 -219.8125 107.5625 C-217.03180857 107.8724702 -217.03180857 107.8724702 -213.94061279 107.8409729 C-212.74030426 107.85213638 -211.53999573 107.86329987 -210.30331421 107.87480164 C-208.98989044 107.87696182 -207.67646667 107.87912201 -206.32324219 107.88134766 C-204.92364931 107.89064763 -203.52406197 107.90081641 -202.1244812 107.91178894 C-198.32733026 107.9390953 -194.53021644 107.9542402 -190.73299313 107.96721697 C-186.7637856 107.98284474 -182.79465389 108.00963609 -178.82550049 108.0352478 C-171.31039395 108.08204187 -163.79527315 108.11878293 -156.28009534 108.15192068 C-147.72389122 108.19013763 -139.16776324 108.23954891 -130.61162329 108.28990483 C-113.01197124 108.39323402 -95.41227273 108.48249121 -77.8125 108.5625 C-77.8125 108.8925 -77.8125 109.2225 -77.8125 109.5625 C-96.61438817 109.72605704 -115.4161319 109.84947813 -134.21858406 109.9251852 C-142.94902458 109.96127256 -151.67902297 110.0104675 -160.40917969 110.09057617 C-168.01885298 110.16036987 -175.62820607 110.20551293 -183.23819053 110.22111946 C-187.26743388 110.23024187 -191.29576125 110.25166244 -195.32471085 110.3026104 C-199.11869583 110.3501975 -202.91138952 110.36476709 -206.70564461 110.35425377 C-208.09644533 110.35617639 -209.4872901 110.37006038 -210.87783241 110.39693832 C-221.35134726 110.5894174 -221.35134726 110.5894174 -224.9585228 108.0542469 C-231.08952463 101.12760091 -231.34387312 93.26064877 -231.12890625 84.4296875 C-230.6189422 78.19679354 -228.90834036 74.65834036 -224.4375 70.1875 C-219.50811855 67.13597815 -214.97713878 66.31165115 -209.23449707 66.25279236 C-207.92648636 66.23465988 -206.61847565 66.2165274 -205.27082825 66.19784546 C-203.83224609 66.18763159 -202.39366266 66.17759736 -200.95507812 66.16772461 C-199.42965223 66.15018401 -197.904236 66.13178468 -196.37882996 66.1125946 C-193.09360449 66.07313408 -189.80839403 66.0397922 -186.52305603 66.0112133 C-181.28645127 65.96565831 -176.05004786 65.90667537 -170.81359863 65.84608459 C-162.4832601 65.75132254 -154.15285492 65.66589766 -145.82237864 65.58423859 C-131.03417756 65.43896343 -116.24615087 65.2772636 -101.45814657 65.11331373 C-96.29739217 65.05644794 -91.13661784 65.00333025 -85.97579145 64.95344669 C-68.69489507 64.78505928 -51.41905039 64.52869062 -34.14257812 64.09594727 C-33.34958785 64.07708021 -32.55659758 64.05821316 -31.73957729 64.03877437 C-16.82239194 64.6709222 -16.82239194 64.6709222 -2.8125 61.5625 C-2.8125 60.2425 -2.8125 58.9225 -2.8125 57.5625 C-16.9934095 50.65701363 -29.95803788 51.53112011 -45.03125 54.80859375 C-54.18232725 56.63313704 -63.28247565 56.80888174 -72.57836914 56.85766602 C-74.11134026 56.86923622 -75.64426954 56.88976697 -77.17700195 56.91918945 C-94.70322249 57.2542523 -94.70322249 57.2542523 -101.31225586 51.18530273 C-106.73428923 45.28007023 -107.27198004 39.10752601 -107.12890625 31.41015625 C-106.69561116 27.51050046 -105.50008579 25.3953607 -102.8125 22.5625 C-99.31761288 20.14387254 -96.63878885 19.17000096 -92.4375 18.6875 C-78.45524202 16.58245994 -65.77506899 10.61448167 -53.26660156 4.27148438 C-50.48224538 2.86186045 -47.67990733 1.49319433 -44.875 0.125 C-43.5900061 -0.54921997 -43.5900061 -0.54921997 -42.27905273 -1.23706055 C-28.32772959 -7.94415232 -14.07604745 -4.09175231 0 0 Z " fill="#EAEAEA" transform="translate(367.8125,152.4375)"/>
<path d="M0 0 C0.66 0 1.32 0 2 0 C2.625 3.375 2.625 3.375 3 7 C0.11468728 9.88531272 -1.92599843 9.25322331 -5.96875 9.25828552 C-6.69435906 9.26196123 -7.41996813 9.26563693 -8.16756535 9.26942402 C-10.61178067 9.27944571 -13.05577034 9.27524491 -15.5 9.27124023 C-17.24759667 9.27562514 -18.99519125 9.28092643 -20.74278259 9.28707886 C-24.5138273 9.29860241 -28.28481565 9.30404003 -32.05587769 9.30496025 C-38.02371345 9.30689794 -43.9914326 9.32493689 -49.95922852 9.34571838 C-64.79023032 9.39495925 -79.62126405 9.42574985 -94.45233154 9.44702148 C-105.96279517 9.46356051 -117.47315952 9.4864393 -128.98355675 9.53004223 C-134.91011621 9.55177859 -140.8364869 9.55988 -146.76308346 9.55764949 C-150.4619948 9.55932236 -154.16078422 9.57340943 -157.85965157 9.59086227 C-159.56797965 9.596438 -161.27633327 9.59696905 -162.98466301 9.59192467 C-178.96157853 9.32213502 -178.96157853 9.32213502 -193 16 C-197.48668321 21.59724836 -197.60550775 27.77065823 -197.3828125 34.71875 C-196.69775102 40.59070557 -194.3709037 43.93674921 -190 47.875 C-185.7592695 50.87885077 -182.69363199 51.12540054 -177.56741333 51.11352539 C-175.90925095 51.11341965 -175.90925095 51.11341965 -174.21759033 51.11331177 C-173.00770447 51.10814545 -171.7978186 51.10297913 -170.55126953 51.09765625 C-168.58624387 51.09541333 -166.62121822 51.09317081 -164.65619254 51.09094238 C-162.53751091 51.08756814 -160.41884881 51.08170857 -158.30017471 51.07516479 C-153.82396943 51.06151239 -149.34777392 51.05571544 -144.87155151 51.05102539 C-133.70548991 51.0380765 -122.53945459 51.01402808 -111.37341309 50.98962402 C-44.82283427 50.84529903 -44.82283427 50.84529903 -15.12417221 51.31838989 C-12.76318789 51.35583383 -10.40215404 51.39028585 -8.04108047 51.42160034 C-4.83943779 51.46594533 -1.6383459 51.52349725 1.56298828 51.5859375 C2.50144215 51.59749374 3.43989601 51.60904999 4.40678787 51.62095642 C5.67872057 51.6507534 5.67872057 51.6507534 6.97634888 51.68115234 C7.71065187 51.69447601 8.44495487 51.70779968 9.20150948 51.7215271 C11 52 11 52 13 54 C12.75 57.5625 12.75 57.5625 12 61 C9.03837672 62.48081164 6.030438 62.14292196 2.78327942 62.13803101 C2.03105234 62.14085229 1.27882527 62.14367357 0.50380343 62.14658034 C-2.03027089 62.15494875 -4.56430164 62.15626651 -7.09838867 62.15771484 C-8.90996423 62.1623815 -10.72153862 62.16752481 -12.53311157 62.17311096 C-16.44165627 62.18440573 -20.35019328 62.19283332 -24.25874901 62.19923019 C-30.43996915 62.20989622 -36.62113429 62.23013801 -42.80232239 62.25234985 C-60.38194251 62.3143189 -77.96155985 62.36827385 -95.54125977 62.40136719 C-105.2447677 62.41971424 -114.94818396 62.44865286 -124.6516245 62.4893719 C-129.78769782 62.51044348 -134.92365557 62.52589936 -140.0597744 62.52817917 C-144.89347615 62.53032715 -149.72693744 62.54621201 -154.56056595 62.57256889 C-156.33303946 62.57975807 -158.10554213 62.5818647 -159.87802696 62.57846642 C-162.30175524 62.57456245 -164.72471906 62.58905568 -167.14836121 62.60800171 C-167.84643251 62.60247201 -168.54450382 62.59694232 -169.2637288 62.59124506 C-174.27061516 62.65859846 -177.63401545 63.70606611 -182 66 C-187.74658139 73.10761383 -187.58299576 80.14710148 -187 89 C-186.16778284 93.09055892 -184.57258814 95.48327412 -181.4375 98.3125 C-173.09744266 102.40670997 -163.86999368 102.37107948 -154.73950195 102.578125 C-152.75643651 102.62342525 -150.77370193 102.68255784 -148.79101562 102.7421875 C-139.76431244 102.99629907 -130.74119705 103.01129375 -121.71142578 102.99560547 C-106.77925483 102.98347078 -91.84945827 103.08663864 -76.91796875 103.21875 C-74.26898786 103.24127738 -71.62000632 103.26370732 -68.97102356 103.28601074 C-62.80251915 103.33815384 -56.63402606 103.39152382 -50.46553642 103.4453826 C-43.42026631 103.50683344 -36.37498414 103.56684344 -29.32970083 103.62675762 C-14.88645371 103.74961621 -0.44322182 103.8742023 14 104 C14 104.33 14 104.66 14 105 C-8.70575778 105.02340767 -31.41151355 105.04101773 -54.11728096 105.05181217 C-64.66103647 105.05695845 -75.20478447 105.06396923 -85.74853516 105.07543945 C-94.94334381 105.0854374 -104.13814702 105.09186555 -113.33296096 105.09408849 C-118.19707977 105.09538695 -123.06118299 105.09841766 -127.92529678 105.10573006 C-132.51348307 105.11257106 -137.10164751 105.11460069 -141.68983841 105.11310768 C-143.36424377 105.1133804 -145.03864993 105.11533721 -146.71305084 105.11920547 C-177.41795322 105.18659809 -177.41795322 105.18659809 -184.08203125 99.09765625 C-184.93861328 98.09025391 -184.93861328 98.09025391 -185.8125 97.0625 C-186.39644531 96.39347656 -186.98039062 95.72445312 -187.58203125 95.03515625 C-191.36050899 89.61205183 -190.41595064 82.31488701 -190 76 C-188.5845952 69.10129469 -184.8169464 63.87796427 -179 60 C-176.45221946 59.79921042 -174.01260828 59.71474151 -171.46406555 59.7215271 C-170.68971088 59.7157347 -169.91535621 59.7099423 -169.11753625 59.70397437 C-166.5149205 59.6869279 -163.91248158 59.68409389 -161.30981445 59.68115234 C-159.44732221 59.67185737 -157.58483415 59.66168935 -155.72235107 59.65071106 C-150.65864952 59.62334843 -145.59497587 59.60824312 -140.53121972 59.59528303 C-135.24206852 59.57967985 -129.95297455 59.55288071 -124.66386414 59.5272522 C-114.64480837 59.48041451 -104.6257419 59.44369458 -94.60663241 59.41057932 C-83.20166591 59.37239315 -71.79675682 59.32297384 -60.39183867 59.27259517 C-36.92793497 59.16920111 -13.46399441 59.07996505 10 59 C10 57.35 10 55.7 10 54 C8.49586422 53.99918285 8.49586422 53.99918285 6.96134186 53.99834919 C-17.44292674 53.98395095 -41.84701703 53.94092257 -66.25118256 53.86790943 C-78.05289271 53.83326287 -89.8544861 53.80790433 -101.65625 53.80444336 C-111.94320704 53.80140302 -122.22995611 53.78090293 -132.51683283 53.73947543 C-137.96322595 53.71815032 -143.40932343 53.70554244 -148.85575867 53.71384621 C-153.98422719 53.72138924 -159.11209682 53.70555278 -164.24045563 53.67193985 C-166.12054429 53.66370971 -168.00069253 53.66395294 -169.88077545 53.67340279 C-172.45356735 53.68505204 -175.02440534 53.66586658 -177.5970459 53.63923645 C-178.33636903 53.64990971 -179.07569217 53.66058297 -179.83741903 53.67157966 C-185.58065377 53.56111146 -189.53612997 51.57857262 -194 48 C-199.08053558 41.84987798 -200.43195756 35.30270483 -200.25390625 27.4921875 C-199.63252884 21.39312928 -197.28084217 16.4067493 -193 12 C-187.28269567 7.99788697 -181.92798153 7.75502382 -175.09912109 7.45727539 C-174.14824804 7.41545419 -173.19737499 7.37363298 -172.21768761 7.33054447 C-157.17339112 6.74104823 -142.11051012 6.76803235 -127.05682039 6.69667697 C-122.57524595 6.67449052 -118.09370186 6.64726493 -113.6121521 6.62062073 C-105.16265175 6.57112755 -96.71313415 6.52603182 -88.26360071 6.48259836 C-78.62842906 6.43285004 -68.99328793 6.37807398 -59.35814595 6.32291877 C-39.57212585 6.20976648 -19.78607649 6.10278773 0 6 C0 4.02 0 2.04 0 0 Z " fill="#F9F9F9" transform="translate(290,262)"/>
<path d="M0 0 C0.33 0 0.66 0 1 0 C1.09796875 1.0621875 1.1959375 2.124375 1.296875 3.21875 C2.38625113 13.92145926 3.65786131 21.33425093 12 29 C12.33 29.66 12.66 30.32 13 31 C12.44230738 31.00331015 11.88461475 31.00662029 11.31002235 31.01003075 C-2.29625085 31.09145648 -15.9024138 31.18373405 -29.50853539 31.28752708 C-36.08851401 31.3373974 -42.6684773 31.38372825 -49.24853516 31.421875 C-55.60284038 31.45884479 -61.95701434 31.50523644 -68.31120682 31.55806351 C-70.73116368 31.57654538 -73.15114861 31.59167605 -75.57114792 31.60334396 C-78.96993092 31.62031277 -82.36841737 31.64937342 -85.76708984 31.68115234 C-86.75971832 31.68331253 -87.7523468 31.68547272 -88.77505493 31.68769836 C-99.09541901 31.81035435 -108.06767512 32.94363738 -116 40 C-121.80179873 47.01803983 -122.44378597 55.94094116 -122.33203125 64.66796875 C-121.81687681 69.83769509 -120.05258324 74.26834224 -118 79 C-117.67 79.99 -117.34 80.98 -117 82 C-117.76030518 82.01458252 -118.52061035 82.02916504 -119.30395508 82.04418945 C-122.80726959 82.11946377 -126.30971232 82.2158588 -129.8125 82.3125 C-131.00810547 82.33505859 -132.20371094 82.35761719 -133.43554688 82.38085938 C-143.0442192 82.66885773 -153.4903704 83.36358315 -161 90 C-168.45509964 99.3716229 -169.32345785 109.31271996 -168 121 C-165.77757538 128.46033824 -161.55244954 134.05620685 -154.6875 137.8125 C-153.800625 138.204375 -152.91375 138.59625 -152 139 C-152.66352981 142.58642064 -154.23145999 145.18285005 -156.0625 148.3125 C-160.22198455 156.56113966 -160.43129282 164.51965512 -158.109375 173.41015625 C-155.78898218 179.65201295 -152.94155294 184.70879243 -147 188 C-140.22514283 191.06900687 -134.23044928 191.5400056 -126.84375 191.73046875 C-125.70087524 191.770616 -124.55800049 191.81076324 -123.38049316 191.85212708 C-119.75395245 191.9766192 -116.12714742 192.0823339 -112.5 192.1875 C-110.03120872 192.26894032 -107.56245765 192.35160951 -105.09375 192.43554688 C-99.06289271 192.63792481 -93.03170811 192.82491712 -87 193 C-87.4116893 193.54219681 -87.8233786 194.08439362 -88.24754333 194.64302063 C-88.78774612 195.35806259 -89.32794891 196.07310455 -89.88452148 196.80981445 C-90.68768044 197.87060966 -90.68768044 197.87060966 -91.50706482 198.95283508 C-96.88028022 206.3207759 -96.83273795 213.13929397 -96 222 C-95.14168926 225.38960005 -93.90183278 228.07593211 -92 231 C-91.5875 231.63421875 -91.175 232.2684375 -90.75 232.921875 C-86.2817096 238.86267019 -79.91949343 241.69350219 -73 244 C-71.05948402 244.10277977 -69.11563946 244.14637992 -67.17243958 244.15821838 C-65.9566774 244.1680072 -64.74091522 244.17779602 -63.48831177 244.18788147 C-62.13909951 244.19378561 -60.78988685 244.19959606 -59.44067383 244.20532227 C-58.02152725 244.21490129 -56.60238353 244.22491138 -55.1832428 244.23532104 C-51.32818973 244.26237358 -47.47312441 244.28338126 -43.61802888 244.30332303 C-39.59011236 244.32518042 -35.5622336 244.35257032 -31.53434753 244.37937927 C-23.90586874 244.42930949 -16.27736899 244.47424711 -8.64884919 244.51740164 C0.0354815 244.56677119 8.7197743 244.62169037 17.40406835 244.67708123 C35.26934372 244.79090633 53.13465485 244.89774424 71 245 C71 245.33 71 245.66 71 246 C58.94778551 246.13309207 46.8955457 246.26359747 34.84327126 246.39115143 C29.241692 246.45050895 23.64012351 246.51062816 18.03857422 246.57275391 C4.06692857 246.7272507 -9.90474644 246.86476639 -23.8768158 246.97497559 C-25.95617717 246.9916364 -28.03553328 247.0089686 -30.11488342 247.02697754 C-36.03298845 247.07822186 -41.95096957 247.11915251 -47.86925125 247.14305115 C-49.6634382 247.15171825 -51.45761258 247.16378616 -53.25175095 247.17958069 C-77.00016935 247.38082739 -77.00016935 247.38082739 -87 240 C-88.03125 239.29875 -89.0625 238.5975 -90.125 237.875 C-95.77641289 233.0287199 -99.26923485 225.10610589 -100.30859375 217.84375 C-100.73674318 210.05921499 -97.79525247 204.64432012 -94 198 C-93.67 197.34 -93.34 196.68 -93 196 C-97.57806017 194.86577017 -102.01709271 194.81512317 -106.703125 194.75390625 C-108.42318197 194.72095715 -110.14323393 194.68774569 -111.86328125 194.65429688 C-114.55318662 194.60704112 -117.24307326 194.56260147 -119.93310547 194.52319336 C-122.54415677 194.48312301 -125.15480325 194.43166102 -127.765625 194.37890625 C-128.55656555 194.3704921 -129.3475061 194.36207794 -130.16241455 194.35340881 C-140.62546622 194.12549243 -148.19261227 192.0888572 -155.6875 184.4375 C-161.57982122 177.38496509 -162.52957061 168.88073997 -162.296875 159.93359375 C-161.76167843 154.64500663 -160.37741009 149.61805606 -157.8984375 144.90625 C-156.78683372 142.89894393 -156.78683372 142.89894393 -157 140 C-158.63070764 138.26464825 -158.63070764 138.26464825 -160.75 136.625 C-166.82570708 131.49392583 -170.36407583 126.96822484 -171.22314453 118.90576172 C-171.75723464 108.60545256 -171.81465594 99.18875022 -165.234375 90.73046875 C-158.53387797 83.41004385 -151.25400556 81.65723478 -141.625 80.8125 C-140.79444092 80.73209473 -139.96388184 80.65168945 -139.1081543 80.56884766 C-133.3855408 80.04357009 -127.74798882 79.81154135 -122 80 C-122.2165625 79.22398437 -122.433125 78.44796875 -122.65625 77.6484375 C-126.02416345 64.5821807 -126.90530776 53.04195358 -120 41 C-118.4403668 38.96292806 -117.01085803 37.64043682 -115 36 C-114.54270508 35.49922943 -114.08541016 34.99845886 -113.61425781 34.48251343 C-106.74792857 28.17656575 -94.93476098 29.54204907 -86.25 29.5234375 C-84.70905248 29.50905938 -83.16811739 29.49329078 -81.62719727 29.47622681 C-77.56987056 29.43454101 -73.51262041 29.40949422 -69.45513916 29.38873291 C-63.07331257 29.35303593 -56.69164653 29.2910624 -50.30999756 29.23233795 C-48.7309424 29.21809453 -47.15188128 29.2044968 -45.57281494 29.19155121 C-28.7069938 29.05232503 -11.85603308 28.57465606 5 28 C3.60894459 24.50320013 3.60894459 24.50320013 2.1484375 21.03515625 C-0.56771965 14.10758373 -0.2823191 7.35075283 0 0 Z " fill="#F9F9F9" transform="translate(253,181)"/>
<path d="M0 0 C0.33 0 0.66 0 1 0 C1.05030976 5.63353242 1.08613841 11.26692755 1.10986328 16.90063477 C1.11977772 18.80788456 1.13331329 20.71511978 1.15087891 22.62231445 C1.24050519 32.62091712 1.14354171 42.52196859 0.12109375 52.4765625 C0.04363922 53.2420491 -0.03381531 54.00753571 -0.11361694 54.79621887 C-1.57453212 67.48005331 -7.2953995 76.76228963 -17.1953125 84.77734375 C-37.81000766 99.29629572 -64.13062049 100.28886029 -88.48168945 100.31884766 C-90.25414469 100.32818157 -92.02659566 100.33835514 -93.79904175 100.34928894 C-98.57310867 100.3763555 -103.34714633 100.39169238 -108.12126946 100.40471697 C-113.20988104 100.42061122 -118.29843721 100.44736052 -123.38700867 100.4727478 C-131.98186518 100.51415482 -140.57672552 100.54863427 -149.17163086 100.578125 C-157.84092911 100.60787696 -166.51018802 100.64221269 -175.17944336 100.68261719 C-176.23373161 100.68752867 -177.28801987 100.69244015 -178.37425625 100.69750047 C-180.49745202 100.70742631 -182.62064771 100.71736936 -184.74384332 100.72732973 C-198.34150201 100.79093989 -211.93913873 100.85105615 -225.53689575 100.88922119 C-226.55079836 100.89206973 -227.56470098 100.89491827 -228.60932791 100.89785314 C-232.64550763 100.90906015 -236.68168758 100.92013209 -240.71786904 100.93069124 C-252.86756735 100.96300815 -265.01652559 101.02262422 -277.16585636 101.12266731 C-282.89860514 101.16945206 -288.6314031 101.20307621 -294.36426681 101.23218811 C-298.80877341 101.25569318 -303.2526927 101.29566009 -307.69693613 101.34898186 C-310.99607826 101.38336032 -314.29518552 101.39164435 -317.59448242 101.40380859 C-318.74880201 101.42325909 -319.9031216 101.44270958 -321.09242058 101.46274948 C-329.0434022 101.45611359 -334.35509166 100.23413295 -340.4609375 94.81640625 C-341.09257812 94.07261719 -341.72421875 93.32882812 -342.375 92.5625 C-343.02210938 91.82128906 -343.66921875 91.08007812 -344.3359375 90.31640625 C-348.04254906 85.15673335 -348.93406319 80.20414605 -348 74 C-345.54984273 66.53556738 -341.31360618 61.5575038 -335 57 C-332.47758839 55.73879419 -330.724477 55.86112655 -327.90011597 55.84178162 C-326.82035492 55.8319928 -325.74059387 55.82220398 -324.62811279 55.81211853 C-323.43840881 55.80636307 -322.24870483 55.8006076 -321.02294922 55.79467773 C-319.14982559 55.77982834 -319.14982559 55.77982834 -317.23886108 55.76467896 C-313.80934188 55.73845517 -310.37984641 55.71660803 -306.9502883 55.69667697 C-303.36812915 55.67483406 -299.78601268 55.64743709 -296.20388794 55.62062073 C-289.41827854 55.57067088 -282.63264548 55.52574057 -275.84698975 55.48259836 C-268.12275751 55.43324555 -260.39856806 55.37832018 -252.6743772 55.32291877 C-236.78295767 55.20906355 -220.89149881 55.10223224 -205 55 C-205.33 53.02 -205.66 51.04 -206 49 C-204.68 49.66 -203.36 50.32 -202 51 C-201.8125 53.375 -201.8125 53.375 -202 56 C-205.26067229 58.17378153 -206.135467 58.24607121 -209.90055847 58.22705078 C-210.91123383 58.22690979 -211.92190918 58.2267688 -212.96321106 58.22662354 C-214.07129623 58.21629089 -215.17938141 58.20595825 -216.32104492 58.1953125 C-217.4888147 58.19239197 -218.65658447 58.18947144 -219.85974121 58.1864624 C-222.40030284 58.17884106 -224.94085377 58.16659813 -227.48137474 58.15032959 C-231.50382928 58.12485204 -235.52614646 58.1114927 -239.54866028 58.10205078 C-248.82007166 58.07795653 -258.09136869 58.03394897 -267.36270142 57.98959351 C-275.84722728 57.94917794 -284.33171336 57.91303288 -292.81631547 57.89316368 C-297.4517185 57.88163811 -302.0868849 57.85449121 -306.72221375 57.82470703 C-309.1588016 57.817439 -311.59539123 57.81073591 -314.03198242 57.8046875 C-315.12994644 57.79435486 -316.22791046 57.78402222 -317.35914612 57.77337646 C-325.47602731 57.77225972 -332.64452025 58.0143845 -338.875 63.8125 C-339.61492187 64.47894531 -340.35484375 65.14539063 -341.1171875 65.83203125 C-344.99579389 70.29806143 -345.45771181 74.71999727 -345.3046875 80.44140625 C-344.57725786 86.54995005 -341.93716873 90.5568197 -337.1875 94.375 C-331.40145986 98.64593272 -324.91974587 99.29718269 -317.91845703 99.21069336 C-317.13088894 99.20908518 -316.34332085 99.207477 -315.53188705 99.20582008 C-312.89871908 99.1978134 -310.26589094 99.17513927 -307.6328125 99.15234375 C-305.72950601 99.14316583 -303.82619545 99.13480122 -301.92288208 99.12718201 C-296.71326786 99.10328607 -291.5038331 99.06577424 -286.29432678 99.02498627 C-282.98036882 98.9998511 -279.6664055 98.97803078 -276.35241699 98.95733643 C-260.79698557 98.86001671 -245.2418865 98.73419727 -229.68676758 98.59614182 C-225.82259613 98.5620375 -221.95841843 98.52873983 -218.09423828 98.49563599 C-185.63366773 98.2165089 -153.17475329 97.90132322 -120.71826172 97.30493164 C-118.45801374 97.26415552 -116.19775999 97.22369841 -113.9375 97.18359375 C-112.87994507 97.16475632 -111.82239014 97.14591888 -110.73278809 97.12651062 C-101.14079992 96.97156184 -91.54998127 96.97671617 -81.95703125 97.03257751 C-58.82750295 97.12082907 -32.25541787 95.09051254 -14 79 C-11.82623239 76.49855969 -11.82623239 76.49855969 -9.875 73.75 C-9.21242188 72.85796875 -8.54984375 71.9659375 -7.8671875 71.046875 C-4.00567432 64.74566102 -2.5014462 58.60564014 -1.8515625 51.35546875 C-1.77249664 50.54103806 -1.69343079 49.72660736 -1.61196899 48.88749695 C-0.72449496 39.04657103 -0.5441073 29.18678105 -0.375 19.3125 C-0.33667081 17.4238131 -0.29761146 15.53514087 -0.2578125 13.64648438 C-0.16350479 9.09778036 -0.07891214 4.54899606 0 0 Z " fill="#DBDBDB" transform="translate(510,318)"/>
<path d="M0 0 C1.16940125 -0.00274933 2.33880249 -0.00549866 3.54364014 -0.0083313 C4.8124704 -0.00114075 6.08130066 0.0060498 7.38858032 0.01345825 C8.74905387 0.01402289 10.10952803 0.01370479 11.47000122 0.01257324 C15.15140049 0.01200076 18.83266872 0.02373804 22.51403761 0.03772116 C26.36573588 0.05024602 30.21743734 0.0514004 34.06915283 0.05377197 C41.35758797 0.05998159 48.64596292 0.07638537 55.93437159 0.09647095 C64.23422342 0.11884611 72.53407817 0.12982745 80.83395267 0.13986182 C97.90248963 0.16075207 114.97096806 0.19591795 132.03945923 0.24050903 C132.03945923 0.57050903 132.03945923 0.90050903 132.03945923 1.24050903 C112.22829731 1.94546838 92.42908685 2.3306667 72.60586548 2.45144653 C70.46876955 2.46575326 68.33167442 2.48017856 66.19458008 2.49472046 C57.4271657 2.5529423 48.65979316 2.60891012 39.89224243 2.64187622 C34.4376894 2.66289319 28.98338479 2.69818434 23.52897453 2.74263382 C21.48189138 2.75665966 19.43476488 2.76548541 17.38763618 2.7686882 C-0.24079951 1.97300451 -0.24079951 1.97300451 -15.64804077 8.67800903 C-19.29357099 15.79547279 -19.29396334 26.36280783 -17.20663452 33.99832153 C-15.44589571 37.74075461 -13.80851634 39.81963422 -9.96054077 41.24050903 C-7.17984934 41.55047923 -7.17984934 41.55047923 -4.08865356 41.51898193 C-2.88834503 41.53014542 -1.6880365 41.5413089 -0.45135498 41.55281067 C0.86206879 41.55497086 2.17549255 41.55713104 3.52871704 41.55935669 C4.92830992 41.56865667 6.32789726 41.57882544 7.72747803 41.58979797 C11.52462896 41.61710433 15.32174279 41.63224923 19.1189661 41.645226 C23.08817363 41.66085377 27.05730534 41.68764512 31.02645874 41.71325684 C38.54156528 41.7600509 46.05668608 41.79679196 53.57186389 41.82992971 C62.12806801 41.86814666 70.68419599 41.91755794 79.24033594 41.96791387 C96.83998799 42.07124305 114.4396865 42.16050025 132.03945923 42.24050903 C132.03945923 42.57050903 132.03945923 42.90050903 132.03945923 43.24050903 C113.23757106 43.40406607 94.43582733 43.52748716 75.63337517 43.60319424 C66.90293465 43.63928159 58.17293626 43.68847654 49.44277954 43.76858521 C41.83310625 43.83837891 34.22375316 43.88352196 26.6137687 43.8991285 C22.58452535 43.90825091 18.55619798 43.92967147 14.52724838 43.98061943 C10.7332634 44.02820653 6.94056971 44.04277612 3.14631462 44.0322628 C1.7555139 44.03418543 0.36466913 44.04806941 -1.02587318 44.07494736 C-11.49938803 44.26742643 -11.49938803 44.26742643 -15.10656357 41.73225594 C-21.2375654 34.80560994 -21.49191389 26.9386578 -21.27694702 18.10769653 C-20.76698297 11.87480258 -19.05638113 8.33634939 -14.58554077 3.86550903 C-9.86624394 0.94403957 -5.50839767 -0.01003351 0 0 Z " fill="#F9F9F9" transform="translate(157.96054077148438,218.75949096679688)"/>
<path d="M0 0 C0.66 0 1.32 0 2 0 C2.625 3.375 2.625 3.375 3 7 C0.11468728 9.88531272 -1.92599843 9.25322331 -5.96875 9.25828552 C-6.69435906 9.26196123 -7.41996813 9.26563693 -8.16756535 9.26942402 C-10.61178067 9.27944571 -13.05577034 9.27524491 -15.5 9.27124023 C-17.24759667 9.27562514 -18.99519125 9.28092643 -20.74278259 9.28707886 C-24.5138273 9.29860241 -28.28481565 9.30404003 -32.05587769 9.30496025 C-38.02371345 9.30689794 -43.9914326 9.32493689 -49.95922852 9.34571838 C-64.79023032 9.39495925 -79.62126405 9.42574985 -94.45233154 9.44702148 C-105.96279517 9.46356051 -117.47315952 9.4864393 -128.98355675 9.53004223 C-134.91011621 9.55177859 -140.8364869 9.55988 -146.76308346 9.55764949 C-150.4619948 9.55932236 -154.16078422 9.57340943 -157.85965157 9.59086227 C-159.56797965 9.596438 -161.27633327 9.59696905 -162.98466301 9.59192467 C-178.96157853 9.32213502 -178.96157853 9.32213502 -193 16 C-197.48668321 21.59724836 -197.60550775 27.77065823 -197.3828125 34.71875 C-196.70209996 40.55342888 -194.4128529 43.90055476 -190.0625 47.8125 C-187.37278037 49.73372831 -185.12532708 50.98886477 -182 52 C-184.410198 52.86616491 -185.57627518 53.1663451 -188 52.21484375 C-193.67617332 48.5896315 -196.78658379 45.15488215 -199.25 38.75 C-200.79771885 31.01140574 -200.70316275 24.08981586 -197 17 C-193.65119421 11.97679132 -189.89520204 9.24595994 -184 8 C-181.02785715 7.76625368 -178.07622294 7.58708144 -175.09912109 7.45727539 C-174.14824804 7.41545419 -173.19737499 7.37363298 -172.21768761 7.33054447 C-157.17339112 6.74104823 -142.11051012 6.76803235 -127.05682039 6.69667697 C-122.57524595 6.67449052 -118.09370186 6.64726493 -113.6121521 6.62062073 C-105.16265175 6.57112755 -96.71313415 6.52603182 -88.26360071 6.48259836 C-78.62842906 6.43285004 -68.99328793 6.37807398 -59.35814595 6.32291877 C-39.57212585 6.20976648 -19.78607649 6.10278773 0 6 C0 4.02 0 2.04 0 0 Z " fill="#E2E2E2" transform="translate(290,262)"/>
<path d="M0 0 C0.33 0 0.66 0 1 0 C1.09796875 1.0621875 1.1959375 2.124375 1.296875 3.21875 C2.38625113 13.92145926 3.65786131 21.33425093 12 29 C12.33 29.66 12.66 30.32 13 31 C12.44230738 31.00331015 11.88461475 31.00662029 11.31002235 31.01003075 C-2.29625085 31.09145648 -15.9024138 31.18373405 -29.50853539 31.28752708 C-36.08851401 31.3373974 -42.6684773 31.38372825 -49.24853516 31.421875 C-55.60284038 31.45884479 -61.95701434 31.50523644 -68.31120682 31.55806351 C-70.73116368 31.57654538 -73.15114861 31.59167605 -75.57114792 31.60334396 C-78.96993092 31.62031277 -82.36841737 31.64937342 -85.76708984 31.68115234 C-86.75971832 31.68331253 -87.7523468 31.68547272 -88.77505493 31.68769836 C-99.09541901 31.81035435 -108.06767512 32.94363738 -116 40 C-121.80179873 47.01803983 -122.44378597 55.94094116 -122.33203125 64.66796875 C-121.81687681 69.83769509 -120.05258324 74.26834224 -118 79 C-117.67 79.99 -117.34 80.98 -117 82 C-117.76030518 82.01458252 -118.52061035 82.02916504 -119.30395508 82.04418945 C-122.80726959 82.11946377 -126.30971232 82.2158588 -129.8125 82.3125 C-131.00810547 82.33505859 -132.20371094 82.35761719 -133.43554688 82.38085938 C-143.0442192 82.66885773 -153.4903704 83.36358315 -161 90 C-166.95188975 97.48197461 -168.17312701 103.21783947 -168.125 112.5625 C-168.12886719 113.31724609 -168.13273437 114.07199219 -168.13671875 114.84960938 C-168.13045683 118.40324793 -167.95795536 121.58246808 -167 125 C-167.99 124.67 -168.98 124.34 -170 124 C-172.7963107 115.6110679 -172.29709655 103.07753135 -168.390625 95.11328125 C-163.86181697 88.23101961 -158.90518656 84.20526845 -151 82 C-147.8859169 81.42064351 -144.77902761 81.08919699 -141.625 80.8125 C-140.79444092 80.73209473 -139.96388184 80.65168945 -139.1081543 80.56884766 C-133.3855408 80.04357009 -127.74798882 79.81154135 -122 80 C-122.2165625 79.22398437 -122.433125 78.44796875 -122.65625 77.6484375 C-126.02416345 64.5821807 -126.90530776 53.04195358 -120 41 C-118.4403668 38.96292806 -117.01085803 37.64043682 -115 36 C-114.54270508 35.49922943 -114.08541016 34.99845886 -113.61425781 34.48251343 C-106.74792857 28.17656575 -94.93476098 29.54204907 -86.25 29.5234375 C-84.70905248 29.50905938 -83.16811739 29.49329078 -81.62719727 29.47622681 C-77.56987056 29.43454101 -73.51262041 29.40949422 -69.45513916 29.38873291 C-63.07331257 29.35303593 -56.69164653 29.2910624 -50.30999756 29.23233795 C-48.7309424 29.21809453 -47.15188128 29.2044968 -45.57281494 29.19155121 C-28.7069938 29.05232503 -11.85603308 28.57465606 5 28 C3.60894459 24.50320013 3.60894459 24.50320013 2.1484375 21.03515625 C-0.56771965 14.10758373 -0.2823191 7.35075283 0 0 Z " fill="#F8F8F8" transform="translate(253,181)"/>
<path d="M0 0 C0 0.33 0 0.66 0 1 C-11.64492537 2.56578156 -23.13072045 3.41024067 -34.875 3.625 C-35.7776358 3.643349 -36.68027161 3.661698 -37.61026001 3.68060303 C-118.03238798 5.27585117 -198.57104565 3.61591005 -279 3 C-279 2.67 -279 2.34 -279 2 C-278.14037313 1.99576806 -277.28074625 1.99153612 -276.39507008 1.98717594 C-255.00152077 1.88165205 -233.60799042 1.77279 -212.21447468 1.66066074 C-201.8667043 1.60649757 -191.51893102 1.55328958 -181.17114258 1.50268555 C-169.15183819 1.44376547 -157.13255127 1.38197739 -145.11328125 1.31640625 C-144.12012358 1.31099335 -143.12696591 1.30558045 -142.10371256 1.30000353 C-107.52686322 1.10974208 -72.95300436 0.76929175 -38.37849426 0.32704163 C-37.52209115 0.31613794 -36.66568803 0.30523425 -35.7833333 0.29400015 C-31.80903797 0.24330726 -27.83475847 0.19177134 -23.86050224 0.13809776 C-15.90655817 0.03289551 -7.95468647 -0.02715494 0 0 Z " fill="#D6D6D6" transform="translate(459,423)"/>
<path d="M0 0 C1 3.75 1 3.75 1 7 C-3.57404746 10.44383224 -7.58531082 10.5463665 -13.09375 10.73046875 C-13.99452271 10.770616 -14.89529541 10.81076324 -15.82336426 10.85212708 C-17.74297462 10.93489486 -19.6628844 11.01094992 -21.58300781 11.08081055 C-24.40775562 11.18412615 -27.2309559 11.30771646 -30.0546875 11.43554688 C-56.29512199 12.55560979 -82.56288301 11.97863831 -108.8125 11.5 C-111.57095458 11.45130556 -114.32942234 11.40337978 -117.08789062 11.35546875 C-123.72530918 11.23961711 -130.36267317 11.12098724 -137 11 C-137 10.67 -137 10.34 -137 10 C-135.56682938 9.9845388 -135.56682938 9.9845388 -134.10470581 9.96876526 C-124.9041997 9.86911897 -115.70373347 9.76628343 -106.50329399 9.66066074 C-101.77825266 9.6065099 -97.05320545 9.55331851 -92.328125 9.50268555 C-72.55196353 9.28998355 -52.77911998 9.02447307 -33.0078125 8.52734375 C-31.83266901 8.49930758 -31.83266901 8.49930758 -30.63378525 8.47070503 C-15.8658048 9.0873619 -15.8658048 9.0873619 -2 6 C-2 4.68 -2 3.36 -2 2 C-16.1809095 -4.90548637 -29.14553788 -4.03137989 -44.21875 -0.75390625 C-54.32012027 1.26010662 -64.31494607 1.11875276 -74.5625 1.0625 C-76.15950381 1.05747543 -77.75650914 1.05291421 -79.35351562 1.04882812 C-83.23571533 1.03789728 -87.11784051 1.02068533 -91 1 C-91 0.67 -91 0.34 -91 0 C-89.39898437 -0.06731323 -89.39898437 -0.06731323 -87.765625 -0.13598633 C-83.72436745 -0.30899205 -79.68393057 -0.49728055 -75.64355469 -0.68969727 C-73.91001333 -0.77022657 -72.17628569 -0.84686074 -70.44238281 -0.91918945 C-60.20209043 -1.3493292 -50.36329811 -2.21861473 -40.32177734 -4.31835938 C-28.07488021 -6.83146659 -10.3838619 -8.71502695 0 0 Z " fill="#DDDDDD" transform="translate(367,208)"/>
<path d="M0 0 C1.61124069 0.46757124 3.22289923 0.93370483 4.83496094 1.3984375 C7.98794665 2.30916189 11.1382763 3.22835007 14.28710938 4.15332031 C17.73601823 5.16122325 21.19597563 6.11217533 24.671875 7.0234375 C45.49684543 12.51969585 66.87327492 20.82263517 84.5 33.375 C84.17 34.035 83.84 34.695 83.5 35.375 C82.54222656 34.818125 81.58445312 34.26125 80.59765625 33.6875 C55.69438532 19.35126702 30.26535283 10.63406866 2.5 3.375 C1.46327148 3.09817383 0.42654297 2.82134766 -0.64160156 2.53613281 C-24.10857837 -3.70033952 -37.28427312 -0.14180503 -58.76025391 10.2722168 C-70.46824756 15.8910212 -82.27480904 21.31787175 -95.5 21.375 C-95.5 21.045 -95.5 20.715 -95.5 20.375 C-94.530625 20.16746094 -93.56125 19.95992187 -92.5625 19.74609375 C-82.99667418 17.58968468 -74.40795096 14.44839886 -65.53515625 10.31152344 C-62.05061674 8.70803333 -58.52177661 7.20693145 -55 5.6875 C-50.96566917 3.93568145 -46.96513254 2.15746012 -43.0625 0.125 C-28.14860748 -7.20112264 -15.2854865 -4.55200142 0 0 Z " fill="#EBEBEB" transform="translate(366.5,143.625)"/>
<path d="M0 0 C0.33 0 0.66 0 1 0 C1.05030976 5.63353242 1.08613841 11.26692755 1.10986328 16.90063477 C1.11977772 18.80788456 1.13331329 20.71511978 1.15087891 22.62231445 C1.24050519 32.62091712 1.14354171 42.52196859 0.12109375 52.4765625 C0.04363922 53.2420491 -0.03381531 54.00753571 -0.11361694 54.79621887 C-1.57453212 67.48005331 -7.2953995 76.76228963 -17.1953125 84.77734375 C-32.83508046 95.79244914 -51.85638682 99.18368995 -70.63867188 99.11352539 C-72.19124191 99.11374443 -72.19124191 99.11374443 -73.775177 99.1139679 C-77.1730565 99.11327504 -80.57088016 99.1055121 -83.96875 99.09765625 C-86.333862 99.09578984 -88.69897439 99.09436699 -91.06408691 99.09336853 C-97.27169879 99.08956089 -103.47928706 99.07974563 -109.68688965 99.06866455 C-116.02823568 99.05841267 -122.36958556 99.05386283 -128.7109375 99.04882812 C-141.14063534 99.03812174 -153.5703157 99.02106645 -166 99 C-166 98.67 -166 98.34 -166 98 C-158.02594764 97.86678769 -150.05185674 97.73628239 -142.07771015 97.60884857 C-138.3713654 97.54954106 -134.66503771 97.48944282 -130.95874023 97.42724609 C-126.65612637 97.35518607 -122.35347728 97.28572531 -118.05078125 97.21875 C-117.33875046 97.20763561 -116.62671967 97.19652122 -115.89311218 97.18507004 C-104.45685034 97.0107607 -93.02512313 96.95870121 -81.58747864 97.02941895 C-58.58188159 97.12684779 -32.14177245 94.99034431 -14 79 C-11.82623239 76.49855969 -11.82623239 76.49855969 -9.875 73.75 C-9.21242188 72.85796875 -8.54984375 71.9659375 -7.8671875 71.046875 C-4.00567432 64.74566102 -2.5014462 58.60564014 -1.8515625 51.35546875 C-1.77249664 50.54103806 -1.69343079 49.72660736 -1.61196899 48.88749695 C-0.72449496 39.04657103 -0.5441073 29.18678105 -0.375 19.3125 C-0.33667081 17.4238131 -0.29761146 15.53514087 -0.2578125 13.64648438 C-0.16350479 9.09778036 -0.07891214 4.54899606 0 0 Z " fill="#ECECEC" transform="translate(510,318)"/>
<path d="M0 0 C0.33 0 0.66 0 1 0 C2.43670992 17.44576331 2.59947103 34.92166752 1.1875 52.375 C1.11748779 53.29482666 1.04747559 54.21465332 0.9753418 55.16235352 C-0.39398297 70.1129772 -5.94253535 83.1141887 -17.4375 92.9375 C-26.59321444 100.04952818 -36.74537139 104.41043943 -48 107 C-49.485 107.495 -49.485 107.495 -51 108 C-53.22818441 108.06937062 -55.45834524 108.08457084 -57.6875 108.0625 C-58.86699219 108.05347656 -60.04648437 108.04445313 -61.26171875 108.03515625 C-62.61716797 108.01775391 -62.61716797 108.01775391 -64 108 C-64 107.67 -64 107.34 -64 107 C-62.73027344 106.78085937 -61.46054687 106.56171875 -60.15234375 106.3359375 C-41.11644447 102.89428257 -21.87941899 97.49050926 -10 81 C-5.34155333 74.21349019 -3.49111724 67.6953122 -2.375 59.66015625 C-2.24776047 58.75304398 -2.12052094 57.8459317 -1.98942566 56.91133118 C-0.52264165 45.53822764 -0.43316546 34.13856562 -0.3125 22.6875 C-0.27921448 20.47068448 -0.24471517 18.25388683 -0.20898438 16.03710938 C-0.12539713 10.69153032 -0.05653449 5.34593022 0 0 Z " fill="#F7F7F7" transform="translate(518,315)"/>
<path d="M0 0 C4.14579051 0.75211244 6.44100011 2.7805001 9.609375 5.4296875 C17.44161219 10.57439232 25.01878548 10.4422923 34.12695312 10.43237305 C35.54684292 10.44140168 36.96672495 10.45173159 38.38659668 10.46325684 C42.22073229 10.49072388 46.0547196 10.50009725 49.88894081 10.50611091 C53.90351815 10.51552153 57.91798587 10.54172701 61.93249512 10.56611633 C69.52539024 10.60971129 77.118264 10.63830119 84.71124601 10.66143972 C93.35945607 10.68852903 102.00755547 10.73243818 110.65568638 10.77772844 C128.43706575 10.87047435 146.2184744 10.94220101 164 11 C164 11.33 164 11.66 164 12 C151.94778551 12.13309207 139.8955457 12.26359747 127.84327126 12.39115143 C122.241692 12.45050895 116.64012351 12.51062816 111.03857422 12.57275391 C97.06692857 12.7272507 83.09525356 12.86476639 69.1231842 12.97497559 C67.04382283 12.9916364 64.96446672 13.0089686 62.88511658 13.02697754 C56.96701155 13.07822186 51.04903043 13.11915251 45.13074875 13.14305115 C43.3365618 13.15171825 41.54238742 13.16378616 39.74824905 13.17958069 C23.48561676 13.31739201 12.38574699 12.14717229 0 1 C0 0.67 0 0.34 0 0 Z " fill="#FEFEFE" transform="translate(160,415)"/>
<path d="M0 0 C3.28651271 0.61958469 5.39772585 1.77488047 8.08984375 3.73828125 C8.86803467 4.30530762 9.64622559 4.87233398 10.44799805 5.45654297 C11.26953369 6.06900879 12.09106934 6.68147461 12.9375 7.3125 C14.20750854 8.25440186 14.20750854 8.25440186 15.50317383 9.21533203 C22.7994303 14.70395428 29.48102827 20.62092036 36 27 C36.76699219 27.71671875 37.53398437 28.4334375 38.32421875 29.171875 C46.29979273 36.76765974 52.22149134 45.63498138 56 56 C56.26401611 56.67732178 56.52803223 57.35464355 56.80004883 58.05249023 C60.07712374 67.821938 59.32643023 78.02112756 59.1875 88.1875 C59.17242581 90.11261974 59.15874225 92.03775089 59.14648438 93.96289062 C59.11369566 98.64221284 59.06206443 103.32097826 59 108 C58.67 108 58.34 108 58 108 C57.9906543 107.10506836 57.98130859 106.21013672 57.97167969 105.28808594 C57.95455955 72.27205971 57.95455955 72.27205971 45.92578125 42.08984375 C44 39 44 39 43 36 C41.66724287 35.33218217 40.33380851 34.66571547 39 34 C37.59147518 32.55092264 36.23957723 31.04543271 34.9375 29.5 C32.66666629 26.81509872 30.94792002 24.96528001 28 23 C28 22.34 28 21.68 28 21 C27.2575 20.74347656 26.515 20.48695313 25.75 20.22265625 C22.87381042 18.94389583 21.24996141 17.61275566 19 15.4375 C14.69793097 11.46244635 10.12645426 8.19225422 5.25390625 4.97045898 C1.09762065 2.19524131 1.09762065 2.19524131 0 0 Z " fill="#F0F0F0" transform="translate(450,188)"/>
<path d="M0 0 C0.99 0.33 1.98 0.66 3 1 C1.98679688 1.77923828 1.98679688 1.77923828 0.953125 2.57421875 C0.06109375 3.27160156 -0.8309375 3.96898437 -1.75 4.6875 C-2.63171875 5.37199219 -3.5134375 6.05648438 -4.421875 6.76171875 C-8.5400858 10.33707449 -11.63301868 13.61294289 -12.23828125 19.19921875 C-12.42150053 25.34188603 -11.80419278 30.03430298 -8 35 C-1.70785336 41.14200865 4.99518888 43.216318 13.76147461 43.31884766 C15.71270485 43.34865219 15.71270485 43.34865219 17.70335388 43.37905884 C19.10301545 43.39093169 20.50267881 43.40259475 21.90234375 43.4140625 C23.34966612 43.43279492 24.79697781 43.45236985 26.24427795 43.4727478 C30.03351515 43.52385626 33.82278766 43.5635951 37.61218262 43.60089111 C41.48698512 43.64106506 45.36164339 43.69209598 49.23632812 43.7421875 C56.82411943 43.83869436 64.41198113 43.92317892 72 44 C72 44.33 72 44.66 72 45 C63.14175388 45.09293193 54.28367717 45.16388192 45.42504883 45.20724869 C41.31102198 45.2280691 37.19733017 45.25628411 33.08349609 45.30175781 C29.10882299 45.34541523 25.1344709 45.36917877 21.15957642 45.37950897 C19.64778596 45.38686487 18.13601186 45.401229 16.62435913 45.42292023 C7.09883604 45.55409308 -0.01922168 45.41945251 -7.4609375 38.81640625 C-8.09257812 38.07261719 -8.72421875 37.32882812 -9.375 36.5625 C-10.02210938 35.82128906 -10.66921875 35.08007812 -11.3359375 34.31640625 C-15.04254906 29.15673335 -15.93406319 24.20414605 -15 18 C-12.54984273 10.53556738 -8.31360618 5.5575038 -2 1 C-1.34 0.67 -0.68 0.34 0 0 Z " fill="#D4D4D4" transform="translate(177,374)"/>
<path d="M0 0 C0.66 0.33 1.32 0.66 2 1 C1.57847656 1.60328125 1.15695313 2.2065625 0.72265625 2.828125 C0.17480469 3.62734375 -0.37304688 4.4265625 -0.9375 5.25 C-1.48277344 6.03890625 -2.02804688 6.8278125 -2.58984375 7.640625 C-6.29447348 13.83895286 -5.94487779 22.35568544 -4.5390625 29.265625 C-2.85692076 33.81730264 -0.25974399 35.90885295 4 38 C12.23988494 40.41557507 20.73337213 40.39577127 29.25 40.5625 C31.90122953 40.62087043 34.55209431 40.68630497 37.203125 40.75390625 C38.36489258 40.77783447 39.52666016 40.8017627 40.72363281 40.82641602 C43.88611596 40.99396635 46.89026762 41.41478775 50 42 C50 42.33 50 42.66 50 43 C45.98389666 43.02517326 41.96782537 43.04307755 37.95166016 43.05493164 C35.93260071 43.06229008 33.91356303 43.07501162 31.89453125 43.08789062 C4.54773469 43.15524727 4.54773469 43.15524727 -2.08203125 37.09765625 C-2.93861328 36.09025391 -2.93861328 36.09025391 -3.8125 35.0625 C-4.68841797 34.05896484 -4.68841797 34.05896484 -5.58203125 33.03515625 C-9.36050899 27.61205183 -8.41595064 20.31488701 -8 14 C-6.81940311 8.24575218 -3.91177915 4.22895043 0 0 Z " fill="#E4E4E4" transform="translate(108,324)"/>
<path d="M0 0 C0.66 0 1.32 0 2 0 C2.625 3.375 2.625 3.375 3 7 C1 9 1 9 -1.44814491 9.24609566 C-2.48608381 9.24425207 -3.52402271 9.24240849 -4.59341431 9.24050903 C-5.78255936 9.24325836 -6.97170441 9.24600769 -8.19688416 9.24884033 C-9.50814774 9.24164978 -10.81941132 9.23445923 -12.17041016 9.22705078 C-13.55984997 9.22648687 -14.94929039 9.22680284 -16.33872986 9.22793579 C-20.11746842 9.22851109 -23.89608075 9.21672832 -27.67478991 9.20278788 C-31.62127071 9.19030986 -35.56775422 9.18911234 -39.51425171 9.18673706 C-46.9905238 9.18051365 -54.4667376 9.16409124 -61.94298398 9.14403808 C-70.45313837 9.1217058 -78.9632955 9.11069238 -87.47347188 9.10064721 C-104.98234834 9.07972573 -122.49116801 9.04453309 -140 9 C-140 8.67 -140 8.34 -140 8 C-139.284553 7.99576806 -138.56910601 7.99153612 -137.8319788 7.98717594 C-120.44853535 7.88401101 -103.0651346 7.7753948 -85.68176365 7.66066074 C-77.27540561 7.60530933 -68.86904333 7.55182424 -60.46264648 7.50268555 C-53.13829404 7.45986714 -45.8139731 7.41359518 -38.48966926 7.36312145 C-34.60911063 7.33650155 -30.72855832 7.31164809 -26.84796333 7.29092598 C-23.19957382 7.27138937 -19.55124436 7.24725473 -15.90290833 7.21950912 C-13.91713987 7.20562877 -11.93133877 7.19669921 -9.94554138 7.18788147 C-8.7745993 7.17809265 -7.60365723 7.16830383 -6.39723206 7.15821838 C-5.37312005 7.15176583 -4.34900805 7.14531328 -3.29386234 7.1386652 C-1.03555498 7.25660539 -1.03555498 7.25660539 0 6 C0.04080783 4.00041636 0.04254356 1.99954746 0 0 Z " fill="#FFFFFF" transform="translate(290,262)"/>
<path d="M0 0 C-0.33 0.66 -0.66 1.32 -1 2 C-3.23728974 2.48025591 -5.49113096 2.88445688 -7.75 3.25 C-13.59208651 4.29161761 -13.59208651 4.29161761 -18.375 7.5 C-21.0405322 13.24114628 -20.90821966 18.48465568 -19.3359375 24.5703125 C-17.66069358 28.98421603 -15.70990134 32.22274497 -11.28125 34.359375 C-6.31316272 35.7545228 -1.13275576 35.84563141 4 36 C4 36.33 4 36.66 4 37 C1.79229195 37.08165496 -0.41630425 37.13948488 -2.625 37.1875 C-4.46964844 37.23970703 -4.46964844 37.23970703 -6.3515625 37.29296875 C-11.83175948 36.85291011 -14.94056638 35.08351166 -18.75 31.1875 C-23.41555588 24.5779625 -23.88057889 17.92521005 -23 10 C-20.86995319 5.50323452 -18.57411192 2.97518469 -14 1 C-9.27084527 0.17427457 -4.80613446 -0.12015336 0 0 Z " fill="#E8E8E8" transform="translate(284,171)"/>
<path d="M0 0 C0.495 0.99 0.495 0.99 1 2 C-0.14045776 2.02187378 -0.14045776 2.02187378 -1.30395508 2.04418945 C-4.80726959 2.11946377 -8.30971232 2.2158588 -11.8125 2.3125 C-13.00810547 2.33505859 -14.20371094 2.35761719 -15.43554688 2.38085938 C-25.0442192 2.66885773 -35.4903704 3.36358315 -43 10 C-48.95188975 17.48197461 -50.17312701 23.21783947 -50.125 32.5625 C-50.12886719 33.31724609 -50.13273437 34.07199219 -50.13671875 34.84960938 C-50.13045683 38.40324793 -49.95795536 41.58246808 -49 45 C-49.99 44.67 -50.98 44.34 -52 44 C-54.7963107 35.6110679 -54.29709655 23.07753135 -50.390625 15.11328125 C-46.00888927 8.45451993 -40.85261003 3.80639889 -33 2 C-28.81192159 1.21586193 -24.76483879 0.82549463 -20.5078125 0.68359375 C-18.70957031 0.62075195 -18.70957031 0.62075195 -16.875 0.55664062 C-15.01875 0.49766602 -15.01875 0.49766602 -13.125 0.4375 C-11.23394531 0.37272461 -11.23394531 0.37272461 -9.3046875 0.30664062 C-6.20322577 0.20090898 -3.10168855 0.09881429 0 0 Z " fill="#DEDEDE" transform="translate(135,261)"/>
<path d="M0 0 C3.61331361 1.43606054 4.8601147 3.02879132 6.75 6.375 C9.81749028 11.25938837 12.69305216 12.89552068 18 15 C17.33240496 18.5632885 15.79848361 21.18677007 14 24.3125 C10.27043355 31.53072789 10.02186834 37.99618786 10 46 C9.34 45.67 8.68 45.34 8 45 C7.60084805 36.39605807 8.02514992 28.65432498 12.1015625 20.90625 C13.21316628 18.89894393 13.21316628 18.89894393 13 16 C11.36929236 14.26464825 11.36929236 14.26464825 9.25 12.625 C0.82047922 5.53823474 0.82047922 5.53823474 0 0 Z " fill="#F7F7F7" transform="translate(83,305)"/>
<path d="M0 0 C1.25103516 0.02030273 1.25103516 0.02030273 2.52734375 0.04101562 C4.51853192 0.07534646 6.50937297 0.12907942 8.5 0.1875 C8.5 0.5175 8.5 0.8475 8.5 1.1875 C7.2625 1.24357422 7.2625 1.24357422 6 1.30078125 C-2.07070829 1.76016308 -9.70641847 2.84349557 -17.61328125 4.46875 C-27.77989814 6.3488078 -37.76863503 6.30650697 -48.0625 6.25 C-49.65950381 6.24497543 -51.25650914 6.24041421 -52.85351562 6.23632812 C-56.73571533 6.22539728 -60.61784051 6.20818533 -64.5 6.1875 C-64.5 5.8575 -64.5 5.5275 -64.5 5.1875 C-63.43265625 5.14262451 -62.3653125 5.09774902 -61.265625 5.05151367 C-57.22436745 4.87850795 -53.18393057 4.69021945 -49.14355469 4.49780273 C-47.41001333 4.41727343 -45.67628569 4.34063926 -43.94238281 4.26831055 C-33.73675164 3.83962673 -24.02969181 2.88364759 -14.0234375 0.8269043 C-9.30048076 -0.03017883 -4.78315828 -0.15571216 0 0 Z " fill="#D7D7D7" transform="translate(340.5,202.8125)"/>
<path d="M0 0 C0.66 0 1.32 0 2 0 C2.27972656 0.79664063 2.55945313 1.59328125 2.84765625 2.4140625 C6.1187053 11.05972913 9.042816 15.6658745 17.41796875 19.609375 C23.12181873 21.67050753 28.99761812 21.56717734 35 21.6875 C36.15628906 21.72166016 37.31257813 21.75582031 38.50390625 21.79101562 C41.33584046 21.87293108 44.16748701 21.94226522 47 22 C47 22.33 47 22.66 47 23 C43.35515262 23.22873531 39.70925324 23.42920117 36.0625 23.625 C35.04091797 23.68945312 34.01933594 23.75390625 32.96679688 23.8203125 C24.00265546 24.27854337 16.15880898 23.91379873 9 18 C4.74625368 13.80009857 1.23029549 10.01477795 0 4 C0 2.68 0 1.36 0 0 Z " fill="#E4E4E4" transform="translate(92,351)"/>
<path d="M0 0 C0.33 0 0.66 0 1 0 C1.14695313 1.59328125 1.14695313 1.59328125 1.296875 3.21875 C2.38625113 13.92145926 3.65786131 21.33425093 12 29 C12.33 29.66 12.66 30.32 13 31 C3.76 31 -5.48 31 -15 31 C-15 30.67 -15 30.34 -15 30 C-8.73 29.67 -2.46 29.34 4 29 C4 25.07126286 3.52002882 23.59784362 2 20.125 C-0.57335922 13.42882935 -0.37209643 7.0801682 0 0 Z " fill="#D1D1D1" transform="translate(253,181)"/>
<path d="M0 0 C0.66 0.66 1.32 1.32 2 2 C-12.48566141 10.03242598 -26.34950556 14.35836245 -43 15 C-39.13161596 12.4210773 -36.88866933 11.81287446 -32.3125 11.25 C-20.83936086 9.53664404 -10.14219556 5.60803755 0 0 Z " fill="#E5E5E5" transform="translate(489,402)"/>
<path d="M0 0 C0.99 0.33 1.98 0.66 3 1 C4.09765625 3.2578125 4.09765625 3.2578125 5.0625 6.125 C5.38347656 7.05570313 5.70445312 7.98640625 6.03515625 8.9453125 C6.35355469 9.95335937 6.67195313 10.96140625 7 12 C7.34587158 13.01892334 7.69174316 14.03784668 8.0480957 15.08764648 C9.32429302 19.59989313 9.25118945 23.99332372 9.1953125 28.65234375 C9.1924826 29.55247696 9.18965271 30.45261017 9.18673706 31.38002014 C9.17561278 34.2326532 9.15052283 37.08496311 9.125 39.9375 C9.11496017 41.88085482 9.10583608 43.82421459 9.09765625 45.76757812 C9.07569888 50.51184176 9.04122301 55.25586624 9 60 C8.67 60 8.34 60 8 60 C7.98598145 58.65760254 7.98598145 58.65760254 7.97167969 57.28808594 C7.98597884 27.93995339 7.98597884 27.93995339 0 0 Z " fill="#D0D0D0" transform="translate(500,236)"/>
<path d="M0 0 C0.33 0 0.66 0 1 0 C1.10957031 0.79664063 1.21914063 1.59328125 1.33203125 2.4140625 C2.6631333 12.57617591 2.6631333 12.57617591 8.875 20.3125 C14.11856432 23.04187149 20.21302924 22.82595577 26 23 C26 23.33 26 23.66 26 24 C23.79229195 24.08165496 21.58369575 24.13948488 19.375 24.1875 C17.53035156 24.23970703 17.53035156 24.23970703 15.6484375 24.29296875 C10.16824052 23.85291011 7.05943362 22.08351166 3.25 18.1875 C-0.78627795 12.46943957 -1.34609255 7.8064868 -1 1 C-0.67 0.67 -0.34 0.34 0 0 Z " fill="#F3F3F3" transform="translate(262,184)"/>
<path d="M0 0 C8.93695942 -0.33583564 19.76005434 -0.07638296 27 6 C28 9.75 28 9.75 28 13 C26.02 13.99 26.02 13.99 24 15 C23.67 14.34 23.34 13.68 23 13 C23.66 12.67 24.32 12.34 25 12 C25 10.68 25 9.36 25 8 C16.72612356 4.50361996 8.92934736 2.07795725 0 1 C0 0.67 0 0.34 0 0 Z " fill="#F0F0F0" transform="translate(340,202)"/>
<path d="M0 0 C0.66 0.33 1.32 0.66 2 1 C1.57847656 1.60328125 1.15695313 2.2065625 0.72265625 2.828125 C0.17480469 3.62734375 -0.37304688 4.4265625 -0.9375 5.25 C-1.48277344 6.03890625 -2.02804688 6.8278125 -2.58984375 7.640625 C-5.32799019 12.22190049 -5.1267801 16.51858892 -5.0625 21.75 C-5.05798828 22.44738281 -5.05347656 23.14476562 -5.04882812 23.86328125 C-5.0371002 25.57555803 -5.01916653 27.28779033 -5 29 C-5.66 29 -6.32 29 -7 29 C-9.432375 24.13524999 -8.5698374 16.78637026 -7.50390625 11.57421875 C-5.8875736 6.87132997 -3.31699763 3.58594339 0 0 Z " fill="#EAEAEA" transform="translate(108,324)"/>
<path d="M0 0 C0.66 0.33 1.32 0.66 2 1 C1.50628906 1.53109375 1.01257813 2.0621875 0.50390625 2.609375 C-0.13675781 3.31578125 -0.77742187 4.0221875 -1.4375 4.75 C-2.07558594 5.44609375 -2.71367187 6.1421875 -3.37109375 6.859375 C-6.5847765 11.08263195 -6.28566465 16.11266202 -6.5625 21.25 C-6.60568359 21.99507812 -6.64886719 22.74015625 -6.69335938 23.5078125 C-6.79896725 25.338349 -6.89994201 27.16915176 -7 29 C-7.66 28.67 -8.32 28.34 -9 28 C-9.75648949 10.68479604 -9.75648949 10.68479604 -5 4 C-2.25 1.5 -2.25 1.5 0 0 Z " fill="#DEDEDE" transform="translate(146,221)"/>
<path d="M0 0 C0 0.66 0 1.32 0 2 C-4.96937093 4.27762834 -9.67732856 5.75804333 -15 7 C-15.99 7.33 -16.98 7.66 -18 8 C-20.22818441 8.06937062 -22.45834524 8.08457084 -24.6875 8.0625 C-26.45673828 8.04896484 -26.45673828 8.04896484 -28.26171875 8.03515625 C-29.16535156 8.02355469 -30.06898438 8.01195312 -31 8 C-31 7.67 -31 7.34 -31 7 C-30.43603516 6.89453857 -29.87207031 6.78907715 -29.29101562 6.68041992 C-26.69255853 6.19015002 -24.09633176 5.68889834 -21.5 5.1875 C-20.613125 5.02185547 -19.72625 4.85621094 -18.8125 4.68554688 C-14.57106273 3.85909035 -10.56375611 2.93363219 -6.53125 1.36328125 C-3 0 -3 0 0 0 Z " fill="#DFDFDF" transform="translate(485,415)"/>
<path d="M0 0 C10.45706054 0.47532093 19.70831965 7.09531854 28 13 C27.67 13.66 27.34 14.32 27 15 C25.97261719 14.40832031 24.94523437 13.81664062 23.88671875 13.20703125 C16.07789422 8.74282293 8.30179635 4.50012177 0 1 C0 0.67 0 0.34 0 0 Z " fill="#E2E2E2" transform="translate(423,164)"/>
<path d="M0 0 C0.66 0.33 1.32 0.66 2 1 C-1.57616264 5.69116392 -5.12668056 8.78130334 -10.125 11.875 C-10.74503906 12.2771875 -11.36507813 12.679375 -12.00390625 13.09375 C-16.60052615 16 -16.60052615 16 -20 16 C-20 15.34 -20 14.68 -20 14 C-18.96552734 13.48953125 -18.96552734 13.48953125 -17.91015625 12.96875 C-11.04614197 9.4284628 -5.53074049 5.38052285 0 0 Z " fill="#F1F1F1" transform="translate(505,400)"/>
<path d="M0 0 C5.76315769 1.54803265 10.37456974 4.48278386 15.375 7.625 C16.20644531 8.140625 17.03789062 8.65625 17.89453125 9.1875 C19.93317962 10.45286795 21.96812882 11.72378866 24 13 C22.17089844 13.59448242 22.17089844 13.59448242 20 14 C17.265625 12.48828125 17.265625 12.48828125 14.25 10.3125 C9.6161961 7.06997301 5.12818381 4.36685407 0 2 C0 1.34 0 0.68 0 0 Z " fill="#E7E7E7" transform="translate(428,174)"/>
<path d="M0 0 C0.33 0 0.66 0 1 0 C1.02578125 0.76183594 1.0515625 1.52367187 1.078125 2.30859375 C1.46938335 9.43127424 2.78043168 14.68159718 6 21 C6.33 21.99 6.66 22.98 7 24 C3.18935809 22.36342958 1.49496782 20.446625 -0.31640625 16.640625 C-1.72841964 11.18621901 -0.71328139 5.52017769 0 0 Z " fill="#D8D8D8" transform="translate(155,391)"/>
<path d="M0 0 C0.66 0.66 1.32 1.32 2 2 C0.63875 2.9590625 0.63875 2.9590625 -0.75 3.9375 C-5.79886248 8.12698163 -8.17282635 14.58940418 -9 21 C-11 18 -11 18 -10.6796875 15.6953125 C-8.51607212 8.78434686 -6.13521111 4.16317897 0 0 Z " fill="#EAEAEA" transform="translate(140,215)"/>
<path d="M0 0 C2 2 2 2 3.75 5.3125 C6.79267934 10.74181629 11.01798299 14.06464156 17 16 C14.589802 16.86616491 13.42372482 17.1663451 11 16.21484375 C5.41626331 12.64866817 1.74704186 9.36168838 0.25 2.625 C0.1675 1.75875 0.085 0.8925 0 0 Z " fill="#E7E7E7" transform="translate(91,298)"/>
<path d="M0 0 C0.680625 0.4125 1.36125 0.825 2.0625 1.25 C9.29050404 5.60394916 9.29050404 5.60394916 17 9 C17 9.33 17 9.66 17 10 C10.16367109 9.52852904 6.39297523 7.94057853 1.125 3.375 C0 2 0 2 0 0 Z " fill="#E8E8E8" transform="translate(168,409)"/>
<path d="M0 0 C0.99 0.33 1.98 0.66 3 1 C2.31292969 1.54269531 1.62585938 2.08539063 0.91796875 2.64453125 C0.01691406 3.35996094 -0.88414062 4.07539063 -1.8125 4.8125 C-2.70582031 5.52019531 -3.59914062 6.22789062 -4.51953125 6.95703125 C-6.47076911 8.56411377 -8.26274976 10.17040423 -10 12 C-10.66 11.67 -11.32 11.34 -12 11 C-8.42539858 6.48738261 -5.12178417 2.73161823 0 0 Z " fill="#E3E3E3" transform="translate(177,374)"/>
<path d="M0 0 C3.3574731 0.60569114 5.30166781 1.8027369 7.9375 3.9375 C10.85198064 6.20916061 13.43177668 7.88493021 17 9 C16.67 9.66 16.34 10.32 16 11 C11.39768517 9.71108192 8.29991103 7.97785432 4.625 4.9375 C3.75101563 4.22464844 2.87703125 3.51179688 1.9765625 2.77734375 C1.32429687 2.19082031 0.67203125 1.60429687 0 1 C0 0.67 0 0.34 0 0 Z " fill="#F3F3F3" transform="translate(160,415)"/>
<path d="M0 0 C-1.61992165 0.86375896 -3.24611861 1.71575854 -4.875 2.5625 C-6.23238281 3.27599609 -6.23238281 3.27599609 -7.6171875 4.00390625 C-8.40351562 4.33261719 -9.18984375 4.66132813 -10 5 C-10.66 4.67 -11.32 4.34 -12 4 C-8.00742806 -0.42034751 -5.71963172 -1.56098282 0 0 Z " fill="#E9E9E9" transform="translate(110,271)"/>
<path d="M0 0 C4.66154042 1.49835228 5.86610751 4.88463591 8 9 C6.25 8.9375 6.25 8.9375 4 8 C0 2.5 0 2.5 0 0 Z " fill="#E4E4E4" transform="translate(83,305)"/>
<path d="M0 0 C0.33 0 0.66 0 1 0 C1.70731186 4.66825827 -0.07722471 7.03280231 -2.7109375 10.64453125 C-3.13632812 11.09183594 -3.56171875 11.53914063 -4 12 C-4.66 12 -5.32 12 -6 12 C-4 8 -2 4 0 0 Z " fill="#E0E0E0" transform="translate(512,388)"/>
<path d="M0 0 C0.66 0 1.32 0 2 0 C4 3 4 3 6 6 C7.31558703 7.02323436 8.64377755 8.03126968 10 9 C10 9.66 10 10.32 10 11 C6.8510285 9.63088196 4.9521513 8.1247864 2.75 5.5 C2.22921875 4.8915625 1.7084375 4.283125 1.171875 3.65625 C0 2 0 2 0 0 Z " fill="#DFDFDF" transform="translate(101,353)"/>
<path d="M0 0 C-1.90598443 2.43542455 -3.00596275 3.00158196 -6.0625 3.8125 C-7.5165625 3.9053125 -7.5165625 3.9053125 -9 4 C-9.66 3.34 -10.32 2.68 -11 2 C-9.54494642 1.47007308 -8.08581873 0.9513211 -6.625 0.4375 C-5.81289063 0.14746094 -5.00078125 -0.14257812 -4.1640625 -0.44140625 C-2 -1 -2 -1 0 0 Z " fill="#DCDCDC" transform="translate(293,168)"/>
<path d="M0 0 C4.97306516 0.49730652 8.63799813 1.55302334 13 4 C13 4.66 13 5.32 13 6 C8.52761347 4.58192622 4.28853694 2.88695626 0 1 C0 0.67 0 0.34 0 0 Z " fill="#D5D5D5" transform="translate(423,164)"/>
<path d="M0 0 C5.94 1.485 5.94 1.485 12 3 C12 3.33 12 3.66 12 4 C7.45194365 4.17835515 4.1205746 3.99785435 0 2 C0 1.34 0 0.68 0 0 Z " fill="#E2E2E2" transform="translate(378,156)"/>
<path d="M0 0 C1.39195915 4.17587745 -0.17676781 6.13474776 -2 10 C-2.66 8.68 -3.32 7.36 -4 6 C-2.68 4.02 -1.36 2.04 0 0 Z " fill="#ECECEC" transform="translate(97,324)"/>
<path d="M0 0 C2.97 0.99 5.94 1.98 9 3 C9 3.66 9 4.32 9 5 C5.65626525 4.44271087 2.96687001 3.64826111 0 2 C0 1.34 0 0.68 0 0 Z " fill="#EFEFEF" transform="translate(419,170)"/>
<path d="M0 0 C0.66 0 1.32 0 2 0 C2.33 2.31 2.66 4.62 3 7 C1.02 7.99 1.02 7.99 -1 9 C-0.67 6.03 -0.34 3.06 0 0 Z " fill="#EFEFEF" transform="translate(290,262)"/>
<path d="M0 0 C1.98 0.99 1.98 0.99 4 2 C4 3.65 4 5.3 4 7 C2.68 7.33 1.36 7.66 0 8 C0.185625 7.05125 0.37125 6.1025 0.5625 5.125 C1.28686632 2.10131207 1.28686632 2.10131207 0 0 Z " fill="#E0E0E0" transform="translate(304,367)"/>
<path d="M0 0 C0.66 0 1.32 0 2 0 C3.32 2.64 4.64 5.28 6 8 C2 6 2 6 0.75 2.875 C0.5025 1.92625 0.255 0.9775 0 0 Z " fill="#E8E8E8" transform="translate(496,228)"/>
<path d="M0 0 C-0.33 0.66 -0.66 1.32 -1 2 C-3.64860427 2.59355614 -6.29197322 2.74209269 -9 3 C-6.38997624 -0.48003168 -4.1689578 -0.27793052 0 0 Z " fill="#FAFAFA" transform="translate(284,171)"/>
</svg>
