<?xml version="1.0" encoding="UTF-8"?>
<svg version="1.1" xmlns="http://www.w3.org/2000/svg" width="600" height="600">
<path d="M0 0 C1.37702856 0.45357417 2.75465938 0.90532304 4.1328125 1.35546875 C14.63749677 4.80026291 25.08508695 8.41202081 35.50195312 12.11328125 C37.1532935 12.69944898 38.80562506 13.28283262 40.45898438 13.86328125 C51.99138649 17.92046368 63.06804653 22.52469338 74 28 C74.6388916 28.31549805 75.2777832 28.63099609 75.93603516 28.95605469 C90.06329294 35.97784391 102.91465589 44.87595594 115 55 C116.16509281 55.95606046 117.33047796 56.91176472 118.49609375 57.8671875 C119.70636942 58.8690187 120.91600967 59.87161805 122.125 60.875 C122.70660889 61.35195312 123.28821777 61.82890625 123.88745117 62.3203125 C125.29668954 63.50256943 126.65369616 64.7465447 128 66 C128 66.66 128 67.32 128 68 C128.57363281 68.22816406 129.14726562 68.45632812 129.73828125 68.69140625 C132.61183183 70.35399597 134.13447159 72.33101403 136.1875 74.9375 C138.56110392 77.93285519 140.92708918 80.91468134 143.41015625 83.8203125 C154.57099071 96.90028878 158.41514987 109.91631284 158.51171875 127.015625 C158.53864555 128.8358316 158.53864555 128.8358316 158.56611633 130.69281006 C158.61976974 134.54517116 158.65382867 138.39741815 158.6875 142.25 C158.72074664 144.78647514 158.75524279 147.32293423 158.79101562 149.859375 C158.87364198 156.05517552 158.93209349 162.25082567 158.97518921 168.44702148 C158.99152072 170.78574265 159.01003761 173.12444975 159.03091431 175.46313477 C159.05875722 178.69938058 159.07774803 181.93555141 159.09375 185.171875 C159.10254684 186.10968811 159.11134369 187.04750122 159.1204071 188.01373291 C159.16986443 208.47315602 155.4750605 233.53257545 141.00390625 249.06640625 C124.51487438 264.9768756 105.16951965 273.23377892 82.29760742 273.67700195 C81.05994975 273.71001813 79.82229208 273.74303431 78.54712963 273.77705097 C61.71902865 274.17615069 44.88315375 274.16485552 28.05130029 274.16725707 C25.20289629 274.1679777 22.35449683 274.17013021 19.50609398 274.17275429 C9.53522825 274.18192355 -0.43562433 274.1860982 -10.40649414 274.18530273 C-19.65627459 274.18469798 -28.90599748 274.19534878 -38.15576333 274.2110464 C-46.15644084 274.22413426 -54.15709949 274.2294864 -62.15778762 274.22884732 C-66.91181449 274.22859355 -71.66578949 274.23138081 -76.41980553 274.24202538 C-80.87296248 274.25173239 -85.32601801 274.25176782 -89.77917862 274.24450874 C-91.40529975 274.24346752 -93.03142733 274.24579816 -94.65753746 274.2518692 C-118.68246799 274.33572979 -118.68246799 274.33572979 -127 267 C-134.08427746 258.41955198 -134.80668261 248.77915026 -134 238 C-133.24150086 234.23819504 -132.24412423 230.62869567 -131 227 C-131.72445312 226.6596875 -132.44890625 226.319375 -133.1953125 225.96875 C-140.52020054 222.29653946 -145.94980765 218.71053578 -148.80078125 210.76953125 C-150.9236739 202.37905079 -151.10445188 191.96349254 -147.01171875 184.1015625 C-146.06688629 182.69290319 -145.03903232 181.34068686 -144 180 C-143.505 179.01 -143.505 179.01 -143 178 C-144.485 177.071875 -144.485 177.071875 -146 176.125 C-146.99 175.42375 -147.98 174.7225 -149 174 C-149 173.34 -149 172.68 -149 172 C-149.99 171.67 -150.98 171.34 -152 171 C-157.35610918 165.64389082 -159.13382343 158.96592529 -159.4375 151.5625 C-159.14579168 142.85986849 -155.85928691 136.0630474 -149.94140625 129.76171875 C-142.49002217 123 -142.49002217 123 -138 123 C-138.474375 121.948125 -138.94875 120.89625 -139.4375 119.8125 C-143.08840278 111.71701993 -143.38580363 101.49993663 -140.75 93.0625 C-137.877905 85.75535598 -133.58741015 80.29370507 -126.5 76.75 C-121.78037648 75.33411294 -117.07213632 74.86830621 -112.1640625 74.68359375 C-111.10058594 74.64169922 -110.03710938 74.59980469 -108.94140625 74.55664062 C-107.84699219 74.51732422 -106.75257813 74.47800781 -105.625 74.4375 C-104.50738281 74.39431641 -103.38976562 74.35113281 -102.23828125 74.30664062 C-99.49229801 74.20102589 -96.74623119 74.0989203 -94 74 C-93.67 73.34 -93.34 72.68 -93 72 C-93.70125 71.835 -94.4025 71.67 -95.125 71.5 C-102.09293108 67.8645577 -106.55783587 58.70842205 -109.3125 51.625 C-110.6100669 44.7832836 -109.59090886 38.88732729 -106.23046875 32.78515625 C-100.50290382 24.47564141 -91.36826136 22.48252381 -82.0625 20.6875 C-65.72117929 17.28534715 -52.38190608 10.82833578 -37.87109375 2.70703125 C-23.83530706 -5.14140969 -15.14094786 -5.16968939 0 0 Z M-27.875 9.5625 C-28.57044922 9.93020508 -29.26589844 10.29791016 -29.98242188 10.67675781 C-34.69475327 13.19481419 -39.29624048 15.89101496 -43.84375 18.6953125 C-54.84449797 25.35156218 -65.84153809 28.63495527 -78.52148438 30.33398438 C-84.99498151 31.31691672 -90.79708405 32.83089054 -96 37 C-98.42466884 40.81171281 -98.55144781 44.59664805 -98 49 C-96.71422413 52.72317444 -96.71422413 52.72317444 -95 56 C-94.72542969 56.66128906 -94.45085937 57.32257813 -94.16796875 58.00390625 C-92.70175383 60.50971169 -91.10927684 61.60418707 -88.6875 63.1875 C-87.54861328 63.95126953 -87.54861328 63.95126953 -86.38671875 64.73046875 C-76.09037679 70.20724639 -61.9689125 65.30841197 -51.4375 62.6875 C-48.78898799 62.04952798 -46.13848477 61.41996526 -43.48828125 60.7890625 C-42.20904785 60.48258789 -40.92981445 60.17611328 -39.61181641 59.86035156 C-4.83397112 51.57610614 -4.83397112 51.57610614 8.015625 57.7421875 C13.73389648 61.36676115 16.06287121 66.66296392 18 73 C18.7568877 76.52176006 19.31332441 80.06761822 19.875 83.625 C21.39655844 92.55088209 23.42669941 100.643974 27 109 C27.55107422 110.34578125 27.55107422 110.34578125 28.11328125 111.71875 C31.20579784 118.60517869 35.83536515 123.5771334 41 129 C42.21590293 130.38924447 43.42485118 131.78462333 44.625 133.1875 C49.5454737 138.85949231 49.5454737 138.85949231 55 144 C55.66 144 56.32 144 57 144 C57 144.66 57 145.32 57 146 C58.6454378 147.68762851 60.31288577 149.3540349 62 151 C62.33 151.66 62.66 152.32 63 153 C61.8125 155 61.8125 155 60 157 C56.4652269 157.54381125 53.95965054 157.00833429 51 155 C50.67 154.01 50.34 153.02 50 152 C49.34 152 48.68 152 48 152 C47.67 151.01 47.34 150.02 47 149 C43.94491974 145.96722801 43.94491974 145.96722801 40 145 C39.34 143.68 38.68 142.36 38 141 C37.34 141 36.68 141 36 141 C35.75636719 140.45472656 35.51273438 139.90945313 35.26171875 139.34765625 C33.71214357 136.46439098 31.81554356 134.02663203 29.8125 131.4375 C28.99680199 130.34777076 28.18302578 129.25660057 27.37109375 128.1640625 C25.97634518 126.3028659 24.56044471 124.45664829 23.09765625 122.6484375 C17.55772867 115.13624545 15.65721201 106.63140678 13.39599609 97.68286133 C13.12609863 96.62349365 12.85620117 95.56412598 12.578125 94.47265625 C12.22862793 93.03805054 12.22862793 93.03805054 11.87207031 91.57446289 C10.95126813 88.85613731 9.95430236 87.09531869 8 85 C5.47346579 84.73274904 5.47346579 84.73274904 2.8125 85.25 C1.91144531 85.37890625 1.01039063 85.5078125 0.08203125 85.640625 C-0.60503906 85.75921875 -1.29210937 85.8778125 -2 86 C-1.45330768 90.443281 -1.45330768 90.443281 -0.48828125 94.8046875 C2.01748769 106.07062466 -0.57710152 115.74835318 -5 126 C-4.32904297 126.51046875 -4.32904297 126.51046875 -3.64453125 127.03125 C2.40734102 131.88307084 6.86336846 137.14796378 8 145 C8.53426689 152.93180852 8.12518838 159.66724092 5 167 C4.608125 168.010625 4.21625 169.02125 3.8125 170.0625 C3.544375 170.701875 3.27625 171.34125 3 172 C2.34 172 1.68 172 1 172 C0.67 172.99 0.34 173.98 0 175 C1.20852419 176.53515235 2.42620215 178.06569051 3.72265625 179.52734375 C9.5505512 186.24635414 8.51371516 196.68715466 8 205 C6.87712932 211.02990399 4.32770456 216.59172647 0 221 C-2.26452874 222.49209415 -4.60815196 223.71208182 -7 225 C-7.33 225.99 -7.66 226.98 -8 228 C-7.04465526 229.75146536 -6.08305035 231.50306466 -5.0078125 233.18359375 C-2.17772475 238.28433329 -2.42544464 244.34398748 -3 250 C-3.86813967 252.75226811 -4.90356553 255.29373739 -6.125 257.90625 C-7.1927965 260.08312915 -7.1927965 260.08312915 -7 263 C5.55335762 263.89886217 18.04177684 264.16361047 30.625 264.125 C31.55665985 264.12311676 32.4883197 264.12123352 33.44821167 264.11929321 C74.77564415 265.50843406 74.77564415 265.50843406 114 255 C115.03253906 254.57460938 115.03253906 254.57460938 116.0859375 254.140625 C129.96320239 248.13658386 138.86172425 236.36422127 144.3125 222.625 C148.39241911 209.69131192 149.43896066 197.59846259 149.28125 184.12036133 C149.25000023 181.4375198 149.24024752 178.75527175 149.234375 176.07226562 C149.19490213 167.44530567 148.90784766 158.91569564 148.20507812 150.3137207 C147.75959617 143.11547484 148.03965129 135.8854297 148.21484375 128.6796875 C148.43512038 109.93614919 141.66582993 96.23756573 128.88671875 82.7734375 C126.94750523 80.82326797 124.97987848 78.90874513 123 77 C122.23429688 76.23042969 121.46859375 75.46085937 120.6796875 74.66796875 C106.43477424 60.48535103 91.33405033 50.11947105 74 40 C73.35434082 39.61666504 72.70868164 39.23333008 72.04345703 38.83837891 C53.48037841 27.88404898 32.29492658 21.56629782 11.89599609 14.95117188 C8.95954905 13.98671414 6.03560313 12.99076328 3.11328125 11.984375 C2.16815674 11.66106201 1.22303223 11.33774902 0.24926758 11.00463867 C-1.51975011 10.39841904 -3.287004 9.78701472 -5.05200195 9.16918945 C-13.68139753 6.23577031 -19.65193952 4.97485536 -27.875 9.5625 Z M-35 68 C-35.74040527 68.20882812 -36.48081055 68.41765625 -37.24365234 68.6328125 C-42.17937502 70.03467456 -47.09408966 71.49734223 -52 73 C-52 73.33 -52 73.66 -52 74 C-48.47503766 74.79485739 -45.17759478 75.14500438 -41.56713867 75.20532227 C-40.50641647 75.22526749 -39.44569427 75.24521271 -38.35282898 75.26576233 C-37.2193251 75.28247482 -36.08582123 75.29918732 -34.91796875 75.31640625 C-33.74865311 75.33718735 -32.57933746 75.35796844 -31.37458801 75.37937927 C-27.64561747 75.44467414 -23.91657753 75.50366659 -20.1875 75.5625 C-17.65689391 75.60570429 -15.1262948 75.64931919 -12.59570312 75.69335938 C-6.39720842 75.800335 -0.19864494 75.90213848 6 76 C7.11884806 74.1482623 7.11884806 74.1482623 8 72 C7.11734188 69.24952182 7.11734188 69.24952182 5 67 C-0.13123172 64.711534 -4.98601497 64.65140618 -10.5 64.6875 C-11.38856689 64.69241455 -12.27713379 64.6973291 -13.19262695 64.70239258 C-20.75677831 64.83567256 -27.71052379 65.94255137 -35 68 Z M-127 90 C-132.34547679 96.54820907 -132.77405028 102.80354978 -132 111 C-130.52977947 115.36495526 -128.01377231 118.66942253 -124 121 C-121.26643712 121.91118763 -119.65815714 122.12904603 -116.84526062 122.14044189 C-115.99997803 122.14615204 -115.15469543 122.15186218 -114.28379822 122.15774536 C-113.35958572 122.15886322 -112.43537323 122.15998108 -111.4831543 122.16113281 C-110.50724335 122.16609772 -109.5313324 122.17106262 -108.52584839 122.17617798 C-105.29196471 122.19080283 -102.05813009 122.19760223 -98.82421875 122.203125 C-96.57843525 122.20887627 -94.33265176 122.214634 -92.08686829 122.22039795 C-87.37504853 122.23090891 -82.66324585 122.23675093 -77.95141602 122.24023438 C-71.9153939 122.24571871 -65.87959741 122.26974523 -59.84364605 122.29820633 C-55.20336753 122.31683508 -50.56314333 122.32203845 -45.92283058 122.32357025 C-43.69769876 122.32659685 -41.4725679 122.33462561 -39.24747276 122.34775543 C-36.13315063 122.36482024 -33.01937929 122.36293441 -29.9050293 122.35644531 C-28.5278196 122.37026749 -28.5278196 122.37026749 -27.12278748 122.3843689 C-22.00663918 122.3509951 -18.40010504 121.90811188 -14 119 C-10.00104431 113.70408571 -8.74402425 108.62583373 -9 102 C-9.97497474 96.42985741 -11.24661304 91.4570087 -16 88 C-24.76325733 82.95303521 -37.22005993 84.85177745 -47.04296875 84.8671875 C-48.58075475 84.8665116 -50.11854065 84.8655392 -51.65632629 84.86428833 C-54.86602809 84.8628226 -58.07570188 84.86492796 -61.28540039 84.86962891 C-65.35164999 84.87530124 -69.41783319 84.87205582 -73.48408031 84.86605644 C-76.65784685 84.86239947 -79.83159831 84.86361307 -83.00536537 84.86618423 C-84.50211915 84.86684066 -85.9988744 84.86607133 -87.49562645 84.86370468 C-108.22739751 83.70372134 -108.22739751 83.70372134 -127 90 Z M-142.375 136.97265625 C-142.91125 137.66230469 -143.4475 138.35195313 -144 139.0625 C-144.556875 139.75472656 -145.11375 140.44695312 -145.6875 141.16015625 C-148.07786831 144.5109404 -148.16225183 146.71724721 -148.1875 150.8125 C-148.20167969 151.85019531 -148.21585938 152.88789063 -148.23046875 153.95703125 C-147.92448082 157.99710913 -147.1760608 160.7770072 -144.3359375 163.73046875 C-143.36527344 164.45169922 -143.36527344 164.45169922 -142.375 165.1875 C-141.74335938 165.67605469 -141.11171875 166.16460937 -140.4609375 166.66796875 C-133.58002155 170.39240103 -126.26745345 170.2928905 -118.64624023 170.2746582 C-116.97886307 170.2823246 -116.97886307 170.2823246 -115.27780151 170.29014587 C-111.62134343 170.3039909 -107.96507485 170.3030893 -104.30859375 170.30078125 C-101.75846792 170.30467015 -99.20834273 170.30900523 -96.65821838 170.31376648 C-91.3213565 170.32121715 -85.98456367 170.32108423 -80.64770508 170.31567383 C-74.49120087 170.30962829 -68.33492487 170.32196702 -62.17845958 170.3432439 C-56.23681563 170.36301784 -50.2952421 170.36602997 -44.35356331 170.36250877 C-41.83340989 170.36302176 -39.3132528 170.36825519 -36.79311943 170.37832069 C-33.27002259 170.39066882 -29.74745374 170.38390324 -26.22436523 170.37231445 C-24.66796577 170.38378006 -24.66796577 170.38378006 -23.0801239 170.39547729 C-16.47232996 170.34748138 -11.23671707 169.77893438 -6.0390625 165.31640625 C-5.57242188 164.73761719 -5.10578125 164.15882813 -4.625 163.5625 C-4.14289063 162.98628906 -3.66078125 162.41007812 -3.1640625 161.81640625 C-0.36013635 157.44115236 -0.29824598 152.02143987 -1 147 C-2.9007515 141.73871984 -4.96765649 136.81219196 -10 134 C-16.67802994 131.9399576 -23.22159898 131.70816559 -30.16015625 131.7253418 C-31.23941376 131.72023087 -32.31867126 131.71511993 -33.43063354 131.70985413 C-36.97464647 131.69602915 -40.51846343 131.69690929 -44.0625 131.69921875 C-46.53914461 131.69532852 -49.01578855 131.69099317 -51.49243164 131.68623352 C-56.67368741 131.678787 -61.85487501 131.67905168 -67.03613281 131.68432617 C-73.66358599 131.69012491 -80.29076007 131.67317208 -86.91816711 131.6499815 C-92.02951681 131.63522631 -97.14079952 131.63437481 -102.25216675 131.63749123 C-104.69530796 131.63697912 -107.13845303 131.6317623 -109.58157349 131.62167931 C-113.00117995 131.60929509 -116.42024546 131.61611851 -119.83984375 131.62768555 C-121.34102249 131.61621994 -121.34102249 131.61621994 -122.87252808 131.60452271 C-129.911507 131.65695016 -136.7943757 132.33743376 -142.375 136.97265625 Z M-136 186.875 C-139.42485787 192.22634042 -140.55738423 196.64581977 -140 203 C-138.29385892 208.49756571 -135.87318307 211.96536256 -131 215 C-123.4879876 218.70678123 -116.08834701 218.47621608 -107.84765625 218.51171875 C-106.34629425 218.52863972 -104.84494576 218.5467993 -103.34361267 218.56611633 C-99.38288808 218.6135369 -95.42221741 218.64331118 -91.46130371 218.66955566 C-87.55675789 218.69876376 -83.65243482 218.74586609 -79.74804688 218.79101562 C-72.80343713 218.86864299 -65.85897204 218.91919773 -58.91402626 218.9546032 C-54.26218486 218.98013006 -49.61120424 219.02777372 -44.95975208 219.09287167 C-41.93950993 219.13279689 -38.91923156 219.16022541 -35.89883232 219.18515968 C-34.48598285 219.19951407 -33.07317472 219.21907528 -31.66047859 219.24435997 C-22.57574615 219.40323531 -14.1776672 219.34011423 -6.625 213.75 C-1.87852315 208.77750045 -0.82428572 204.7675924 -0.5625 198.0625 C-0.71268888 192.61473966 -1.6208118 188.35248189 -5 184 C-9.24029812 180.71376896 -13.28113142 179.88144447 -18.55178833 179.85282898 C-19.9140731 179.84209602 -19.9140731 179.84209602 -21.30387878 179.83114624 C-22.29301773 179.82845734 -23.28215668 179.82576843 -24.30126953 179.82299805 C-25.3489299 179.81642685 -26.39659027 179.80985565 -27.47599792 179.80308533 C-30.94493686 179.78336743 -34.4138325 179.77169204 -37.8828125 179.76171875 C-39.069212 179.75764322 -40.2556115 179.7535677 -41.47796249 179.74936867 C-47.7593951 179.72851279 -54.04080589 179.71420984 -60.32226562 179.70483398 C-66.79847554 179.69378018 -73.27434088 179.65939026 -79.75042915 179.61966228 C-84.74000674 179.59346893 -89.72950263 179.58513962 -94.71914291 179.58155251 C-97.10565387 179.57669239 -99.49216132 179.56509494 -101.87860489 179.54651451 C-105.2267989 179.5220697 -108.57410666 179.52309847 -111.92236328 179.5300293 C-112.89935684 179.51721924 -113.8763504 179.50440918 -114.88294983 179.49121094 C-122.52371568 179.54856212 -130.65796613 180.91943327 -136 186.875 Z M-119.1875 231.125 C-123.29327606 237.6376103 -123.72709077 244.4791549 -123 252 C-121.36485428 256.73331657 -119.28006826 259.39474106 -115 262 C-109.1742594 263.79120557 -103.45466872 264.29773267 -97.39428711 264.27807617 C-96.18264137 264.28556885 -96.18264137 264.28556885 -94.94651794 264.29321289 C-92.30665083 264.30530611 -89.66722213 264.3011372 -87.02734375 264.29296875 C-86.11884737 264.29133539 -85.21035099 264.28970203 -84.27432442 264.28801918 C-79.47335704 264.2773836 -74.67267553 264.25288766 -69.87182617 264.21801758 C-64.92983572 264.18523455 -59.98941164 264.20398536 -55.04746151 264.23395824 C-51.22853457 264.24725518 -47.41060072 264.22087351 -43.59185982 264.18395424 C-41.77033488 264.17337364 -39.94865543 264.17780114 -38.12721062 264.19789696 C-28.14624217 264.54889331 -28.14624217 264.54889331 -19.0930481 261.05923462 C-13.50692807 255.03242004 -12.64006026 249.76355172 -12.71484375 241.76171875 C-13.22652119 236.8061578 -15.36983498 233.81129446 -18.6875 230.125 C-26.66921373 226.24200413 -37.67461536 227.85408652 -46.390625 227.8671875 C-47.98329686 227.86651225 -49.57596862 227.86554039 -51.16864014 227.86428833 C-54.49703966 227.86282004 -57.82541222 227.86493673 -61.15380859 227.86962891 C-65.38407685 227.87530698 -69.61428138 227.87205384 -73.84454727 227.86605644 C-77.13228825 227.86241133 -80.42001458 227.86360771 -83.70775604 227.86618423 C-85.26560219 227.8668436 -86.82344974 227.86606043 -88.38129425 227.86370468 C-104.52521755 226.79579214 -104.52521755 226.79579214 -119.1875 231.125 Z " fill="#0B0B0B" transform="translate(344,165)"/>
<path d="M0 0 C1.37702856 0.45357417 2.75465938 0.90532304 4.1328125 1.35546875 C14.63749677 4.80026291 25.08508695 8.41202081 35.50195312 12.11328125 C37.1532935 12.69944898 38.80562506 13.28283262 40.45898438 13.86328125 C51.99138649 17.92046368 63.06804653 22.52469338 74 28 C74.6388916 28.31549805 75.2777832 28.63099609 75.93603516 28.95605469 C90.06329294 35.97784391 102.91465589 44.87595594 115 55 C116.16509281 55.95606046 117.33047796 56.91176472 118.49609375 57.8671875 C119.70636942 58.8690187 120.91600967 59.87161805 122.125 60.875 C122.70660889 61.35195312 123.28821777 61.82890625 123.88745117 62.3203125 C125.29668954 63.50256943 126.65369616 64.7465447 128 66 C128 66.66 128 67.32 128 68 C128.57363281 68.22816406 129.14726562 68.45632812 129.73828125 68.69140625 C132.61183183 70.35399597 134.13447159 72.33101403 136.1875 74.9375 C138.56110392 77.93285519 140.92708918 80.91468134 143.41015625 83.8203125 C154.57099071 96.90028878 158.41514987 109.91631284 158.51171875 127.015625 C158.53864555 128.8358316 158.53864555 128.8358316 158.56611633 130.69281006 C158.61976974 134.54517116 158.65382867 138.39741815 158.6875 142.25 C158.72074664 144.78647514 158.75524279 147.32293423 158.79101562 149.859375 C158.87364198 156.05517552 158.93209349 162.25082567 158.97518921 168.44702148 C158.99152072 170.78574265 159.01003761 173.12444975 159.03091431 175.46313477 C159.05875722 178.69938058 159.07774803 181.93555141 159.09375 185.171875 C159.10254684 186.10968811 159.11134369 187.04750122 159.1204071 188.01373291 C159.16986443 208.47315602 155.4750605 233.53257545 141.00390625 249.06640625 C124.51487438 264.9768756 105.16951965 273.23377892 82.29760742 273.67700195 C81.05994975 273.71001813 79.82229208 273.74303431 78.54712963 273.77705097 C61.71902865 274.17615069 44.88315375 274.16485552 28.05130029 274.16725707 C25.20289629 274.1679777 22.35449683 274.17013021 19.50609398 274.17275429 C9.53522825 274.18192355 -0.43562433 274.1860982 -10.40649414 274.18530273 C-19.65627459 274.18469798 -28.90599748 274.19534878 -38.15576333 274.2110464 C-46.15644084 274.22413426 -54.15709949 274.2294864 -62.15778762 274.22884732 C-66.91181449 274.22859355 -71.66578949 274.23138081 -76.41980553 274.24202538 C-80.87296248 274.25173239 -85.32601801 274.25176782 -89.77917862 274.24450874 C-91.40529975 274.24346752 -93.03142733 274.24579816 -94.65753746 274.2518692 C-118.68246799 274.33572979 -118.68246799 274.33572979 -127 267 C-134.08427746 258.41955198 -134.80668261 248.77915026 -134 238 C-133.24150086 234.23819504 -132.24412423 230.62869567 -131 227 C-131.72445312 226.6596875 -132.44890625 226.319375 -133.1953125 225.96875 C-140.52020054 222.29653946 -145.94980765 218.71053578 -148.80078125 210.76953125 C-150.9236739 202.37905079 -151.10445188 191.96349254 -147.01171875 184.1015625 C-146.06688629 182.69290319 -145.03903232 181.34068686 -144 180 C-143.505 179.01 -143.505 179.01 -143 178 C-144.485 177.071875 -144.485 177.071875 -146 176.125 C-146.99 175.42375 -147.98 174.7225 -149 174 C-149 173.34 -149 172.68 -149 172 C-149.99 171.67 -150.98 171.34 -152 171 C-157.35610918 165.64389082 -159.13382343 158.96592529 -159.4375 151.5625 C-159.14579168 142.85986849 -155.85928691 136.0630474 -149.94140625 129.76171875 C-142.49002217 123 -142.49002217 123 -138 123 C-138.474375 121.948125 -138.94875 120.89625 -139.4375 119.8125 C-143.08840278 111.71701993 -143.38580363 101.49993663 -140.75 93.0625 C-137.877905 85.75535598 -133.58741015 80.29370507 -126.5 76.75 C-121.78037648 75.33411294 -117.07213632 74.86830621 -112.1640625 74.68359375 C-111.10058594 74.64169922 -110.03710938 74.59980469 -108.94140625 74.55664062 C-107.84699219 74.51732422 -106.75257813 74.47800781 -105.625 74.4375 C-104.50738281 74.39431641 -103.38976562 74.35113281 -102.23828125 74.30664062 C-99.49229801 74.20102589 -96.74623119 74.0989203 -94 74 C-93.67 73.34 -93.34 72.68 -93 72 C-93.70125 71.835 -94.4025 71.67 -95.125 71.5 C-102.09293108 67.8645577 -106.55783587 58.70842205 -109.3125 51.625 C-110.6100669 44.7832836 -109.59090886 38.88732729 -106.23046875 32.78515625 C-100.50290382 24.47564141 -91.36826136 22.48252381 -82.0625 20.6875 C-65.72117929 17.28534715 -52.38190608 10.82833578 -37.87109375 2.70703125 C-23.83530706 -5.14140969 -15.14094786 -5.16968939 0 0 Z M-40 6 C-42.51456296 7.38668886 -45.03620499 8.75981181 -47.5625 10.125 C-48.17134033 10.45516113 -48.78018066 10.78532227 -49.4074707 11.12548828 C-59.99319962 16.76617155 -71.28869806 21.27327949 -83.2043457 22.9362793 C-91.72886322 24.16831225 -98.7376808 25.76577834 -104.421875 32.74609375 C-107.83898811 38.37496842 -107.73096879 44.61503164 -107 51 C-104.64419526 60.16899542 -97.54419288 67.66386357 -90 73 C-85.64841204 74.74187495 -81.9870876 75.27132081 -77.3125 75.25 C-75.63607422 75.25773437 -75.63607422 75.25773437 -73.92578125 75.265625 C-63.40632609 74.55386087 -53.27780505 71.62142388 -43.125 68.9375 C-41.03946861 68.38929904 -38.95363512 67.8422892 -36.86740112 67.29676819 C-34.99058252 66.80555029 -33.11464786 66.31095864 -31.23876953 65.81616211 C-24.40254024 64.09344882 -18.09943609 63.75074388 -11.0625 63.6875 C-9.99064453 63.65849609 -8.91878906 63.62949219 -7.81445312 63.59960938 C-3.2205736 63.56263078 0.2303208 63.67994388 4.50390625 65.45703125 C6.93073858 67.9294379 7.82948874 69.53609682 9.15600586 72.65893555 C9.67909584 73.87748482 9.67909584 73.87748482 10.2127533 75.12065125 C10.47254471 75.74083633 10.73233612 76.36102142 11 77 C10.32892527 76.99539104 9.65785053 76.99078207 8.9664402 76.98603344 C-7.39360608 76.87541196 -23.75353326 76.79277463 -40.11386681 76.74093914 C-48.02575523 76.71520288 -55.93739336 76.68014067 -63.84912109 76.62280273 C-70.7483375 76.57282669 -77.64737257 76.54067572 -84.54676497 76.52955753 C-88.19701769 76.52306258 -91.8467518 76.50789511 -95.49683762 76.47134972 C-99.58064114 76.4307969 -103.66355414 76.43005961 -107.74755859 76.43237305 C-108.94590332 76.41439667 -110.14424805 76.39642029 -111.37890625 76.37789917 C-119.70907074 76.42881978 -126.66609729 77.95235497 -132.91112328 83.78489208 C-138.27810765 89.5957255 -140.54484176 95.31558076 -140.4375 103.25 C-140.43157837 104.36955078 -140.43157837 104.36955078 -140.42553711 105.51171875 C-140.27101308 111.48061329 -139.44487924 118.55512076 -135 123 C-135.78503906 123.3403125 -136.57007813 123.680625 -137.37890625 124.03125 C-146.05302503 128.03305204 -152.4147097 132.2125133 -155.9375 141.375 C-158.15190624 149.37987223 -157.80150065 157.54476021 -154 165 C-150.19277951 170.5386696 -146.00394438 174.05929255 -140 177 C-141.10175536 179.47894956 -142.266293 181.3245446 -144 183.4375 C-149.48199851 190.46131059 -148.83663653 199.49669162 -148 208 C-146.45102592 214.36285162 -142.25706757 218.33943885 -137 222 C-133.14803098 224.26586413 -131.51621181 225 -127 225 C-127.54140625 226.03833984 -127.54140625 226.03833984 -128.09375 227.09765625 C-132.42662676 236.23280476 -133.7753034 245.07902026 -131.23046875 255 C-128.37910643 262.63392622 -124.70791594 267.34491063 -117.33265686 270.92170525 C-110.02682665 273.28553648 -102.21034634 272.68180033 -94.60742188 272.63110352 C-92.64502314 272.63624795 -90.68262903 272.64353317 -88.72024536 272.65278625 C-83.40970583 272.6712513 -78.0996705 272.65838846 -72.78915215 272.63869596 C-67.21086974 272.62224923 -61.63261778 272.63113158 -56.05432129 272.63621521 C-46.67968757 272.64073244 -37.30525359 272.62489662 -27.93066406 272.59692383 C-17.13231371 272.56494858 -6.334325 272.56485995 4.46405077 272.5821386 C14.88968922 272.59807881 25.31519664 272.59121731 35.74082947 272.57420158 C40.15823407 272.56737504 44.57553224 272.56831821 48.99293518 272.57574654 C54.21341574 272.58348449 59.43349202 272.5710415 64.65390396 272.54389763 C66.55560737 272.53708782 68.45734908 272.53683476 70.35905075 272.54411316 C95.13989967 272.62792936 119.2291468 266.94606586 137.75 249.375 C153.61626883 232.6272718 157.22397833 208.73713205 157.125 186.5 C157.12016602 185.31599609 157.11533203 184.13199219 157.11035156 182.91210938 C157.09487231 180.05592002 157.07189145 177.19986209 157.04589844 174.34375 C157.00930691 170.3229411 156.98400545 166.30216424 156.96191406 162.28125 C156.92489437 155.97343221 156.86378383 149.6661378 156.79046631 143.35864258 C156.76366009 140.80255015 156.74327199 138.24638172 156.72955322 135.69018555 C156.7080442 132.03257968 156.66136371 128.3760344 156.609375 124.71875 C156.60751694 123.08703857 156.60751694 123.08703857 156.60562134 121.42236328 C156.27909623 104.06731181 148.7202816 91.67785626 137.1328125 79.28515625 C135.28209229 77.30224174 133.54499448 75.27258757 131.8125 73.1875 C121.94402382 61.93834251 110.23819879 52.53165292 98 44 C97.38495605 43.57122559 96.76991211 43.14245117 96.13623047 42.70068359 C75.94216399 28.87290043 52.99057503 19.97892403 30 12 C29.22615967 11.73086792 28.45231934 11.46173584 27.6550293 11.18444824 C18.36520616 7.95556268 9.06580422 4.75452511 -0.24609375 1.58984375 C-1.33334747 1.21869949 -1.33334747 1.21869949 -2.44256592 0.84005737 C-17.47196402 -4.24837315 -26.62005116 -1.53026106 -40 6 Z M-35 68 C-35.74040527 68.20882812 -36.48081055 68.41765625 -37.24365234 68.6328125 C-42.17937502 70.03467456 -47.09408966 71.49734223 -52 73 C-52 73.33 -52 73.66 -52 74 C-48.47503766 74.79485739 -45.17759478 75.14500438 -41.56713867 75.20532227 C-40.50641647 75.22526749 -39.44569427 75.24521271 -38.35282898 75.26576233 C-37.2193251 75.28247482 -36.08582123 75.29918732 -34.91796875 75.31640625 C-33.74865311 75.33718735 -32.57933746 75.35796844 -31.37458801 75.37937927 C-27.64561747 75.44467414 -23.91657753 75.50366659 -20.1875 75.5625 C-17.65689391 75.60570429 -15.1262948 75.64931919 -12.59570312 75.69335938 C-6.39720842 75.800335 -0.19864494 75.90213848 6 76 C7.11884806 74.1482623 7.11884806 74.1482623 8 72 C7.11734188 69.24952182 7.11734188 69.24952182 5 67 C-0.13123172 64.711534 -4.98601497 64.65140618 -10.5 64.6875 C-11.38856689 64.69241455 -12.27713379 64.6973291 -13.19262695 64.70239258 C-20.75677831 64.83567256 -27.71052379 65.94255137 -35 68 Z " fill="#E0E0E0" transform="translate(344,165)"/>
<path d="M0 0 C1.59579043 0.55031775 3.19198777 1.09945687 4.78857422 1.64746094 C9.51513658 3.27812495 14.22741104 4.94745534 18.9375 6.625 C20.27488572 7.09867975 21.61228718 7.57231506 22.94970703 8.04589844 C67.45362327 23.89372017 120.10928234 49.3148771 142.1328125 94.24609375 C144.02144434 99.82947622 144.11577314 105.74445298 144.25390625 111.58984375 C144.28541779 112.74460709 144.28541779 112.74460709 144.31756592 113.92269897 C144.38436521 116.46919284 144.44338213 119.01576011 144.5 121.5625 C144.51984955 122.44505463 144.5396991 123.32760925 144.56015015 124.23690796 C144.70856989 131.0325909 144.8268316 137.82861072 144.9375 144.625 C144.95530518 145.65862671 144.97311035 146.69225342 144.99145508 147.75720215 C145.0988113 154.11744527 145.17787695 160.4771732 145.22360229 166.83816528 C145.24092482 168.87198976 145.26505063 170.90577003 145.29666138 172.93942261 C145.6082033 194.01152252 143.99864929 216.42815373 129.5859375 233.01953125 C109.26313797 253.01260985 83.73701203 254.79192414 56.86328125 254.72265625 C54.72665948 254.72078841 52.59003727 254.71936624 50.45341492 254.71836853 C44.86234327 254.71457218 39.27129809 254.70476686 33.68023682 254.69366455 C27.96195839 254.68338811 22.24367564 254.67885762 16.52539062 254.67382812 C5.32941553 254.6631417 -5.86654002 254.64610035 -17.0625 254.625 C-16.64097656 253.80515625 -16.21945312 252.9853125 -15.78515625 252.140625 C-15.23730469 251.06296875 -14.68945312 249.9853125 -14.125 248.875 C-13.57972656 247.80765625 -13.03445313 246.7403125 -12.47265625 245.640625 C-9.68186236 239.67250067 -8.8642377 232.99659141 -10.62890625 226.55859375 C-11.9960861 223.24443526 -13.76110555 220.36475529 -16.0625 217.625 C-14.78258981 213.64305719 -12.48299499 212.76081571 -8.94140625 210.8828125 C-3.63513662 207.33059042 -0.64069931 201.66519916 0.9375 195.625 C2.08482182 185.83880953 2.22500037 175.71378426 -4.0625 167.625 C-6.64695078 165.0474028 -6.64695078 165.0474028 -9.0625 163.625 C-8.59199219 163.12871094 -8.12148438 162.63242187 -7.63671875 162.12109375 C-7.01410156 161.44175781 -6.39148438 160.76242187 -5.75 160.0625 C-5.13511719 159.40121094 -4.52023437 158.73992187 -3.88671875 158.05859375 C0.17334423 152.64227847 1.47728899 147.36105769 1.375 140.6875 C1.36597656 139.98310791 1.35695313 139.27871582 1.34765625 138.55297852 C1.11900566 131.6990184 -0.15274069 127.50548608 -5.00390625 122.703125 C-6.36162488 121.49293012 -7.74550535 120.31109357 -9.16015625 119.16796875 C-10.91637666 117.74351893 -12.494597 116.2515162 -14.0625 114.625 C-12.82552083 112.96484375 -11.58854167 111.3046875 -10.3515625 109.64453125 C-7.01770619 104.4214897 -6.69747915 99.85487323 -6.6875 93.8125 C-6.65076172 92.65911133 -6.65076172 92.65911133 -6.61328125 91.48242188 C-6.58342644 85.58609613 -8.12852909 81.66966822 -11.0625 76.625 C-11.7225 75.305 -12.3825 73.985 -13.0625 72.625 C-6.4625 72.625 0.1375 72.625 6.9375 72.625 C7.26621094 74.31625 7.59492188 76.0075 7.93359375 77.75 C13.70154146 105.87159895 27.37549453 125.09325355 49.20703125 143.54296875 C50.92159352 144.87251664 50.92159352 144.87251664 53.1875 144.3125 C53.765 144.085625 54.3425 143.85875 54.9375 143.625 C54.41846336 139.50923387 52.31521541 137.7086188 49.37890625 134.9140625 C48.43982422 134.00599854 47.50074219 133.09793457 46.53320312 132.16235352 C46.03699463 131.68694122 45.54078613 131.21152893 45.02954102 130.72171021 C26.61915133 113.00740369 16.80332835 96.85137454 12.76049805 71.25512695 C10.84407693 59.08836021 10.84407693 59.08836021 3.5625 49.625 C-2.01429408 45.81903627 -9.43183077 46.36132969 -15.9375 46.0625 C-16.81664062 46.01931641 -17.69578125 45.97613281 -18.6015625 45.93164062 C-20.75505797 45.82630661 -22.90876064 45.72522351 -25.0625 45.625 C-18.43446578 41.977125 -9.27350249 42.7280135 -2 44.27734375 C3.70376774 46.30322467 7.88779474 49.34264447 10.9375 54.625 C13.5876264 60.75719122 14.77448081 66.67568802 15.8125 73.25 C17.33405844 82.17588209 19.36419941 90.268974 22.9375 98.625 C23.30488281 99.5221875 23.67226563 100.419375 24.05078125 101.34375 C27.14426872 108.23234064 31.77652922 113.1966214 36.9375 118.625 C38.13160376 120.01518817 39.31962522 121.41063613 40.5 122.8125 C43.52331294 126.31131051 46.85444768 129.25932164 50.43359375 132.1796875 C50.92988281 132.65664063 51.42617188 133.13359375 51.9375 133.625 C51.9375 134.285 51.9375 134.945 51.9375 135.625 C52.8346875 135.9653125 52.8346875 135.9653125 53.75 136.3125 C56.50101888 137.96311133 57.46234637 139.8222081 58.9375 142.625 C55.7194104 147.39254015 55.7194104 147.39254015 52.625 148.3125 C46.55662974 146.76012621 42.22903513 140.91653513 37.9375 136.625 C36.87562732 135.79086745 35.81306602 134.95761115 34.75 134.125 C29.7683988 129.88901807 26.00557943 124.62949519 22.20166016 119.35742188 C21.01414222 117.73003152 19.77995093 116.13699239 18.54296875 114.546875 C11.19933189 104.38838586 8.55390711 93.11601348 5.66430664 81.03833008 C4.99722232 78.39911903 4.99722232 78.39911903 2.9375 75.625 C0.50056689 75.26083953 0.50056689 75.26083953 -2.1875 75.4375 C-3.09757812 75.46457031 -4.00765625 75.49164063 -4.9453125 75.51953125 C-5.64398438 75.55433594 -6.34265625 75.58914062 -7.0625 75.625 C-6.8459375 76.24503906 -6.629375 76.86507812 -6.40625 77.50390625 C-2.10311309 91.19027226 -3.5009688 102.73416518 -9.0625 115.625 C-8.39154297 116.13546875 -8.39154297 116.13546875 -7.70703125 116.65625 C-1.65515898 121.50807084 2.80086846 126.77296378 3.9375 134.625 C4.59726911 144.42003375 3.9624851 153.50436791 -2.0625 161.625 C-2.7225 161.625 -3.3825 161.625 -4.0625 161.625 C-3.48484485 165.52417223 -1.52767206 167.63691265 0.9375 170.625 C5.4462692 177.98141291 4.91614323 189.04341613 3.4765625 197.25390625 C1.51768291 203.8795284 -2.21405024 209.55340017 -7.8125 213.625 C-10.0625 214.625 -10.0625 214.625 -12.0625 214.625 C-11.49173685 218.62034208 -10.16208585 221.213173 -8.0625 224.625 C-5.7107177 232.22802223 -6.64107115 239.22534857 -9.5859375 246.50390625 C-10.04661621 247.65576416 -10.50729492 248.80762207 -10.98193359 249.99438477 C-11.33852051 250.86248779 -11.69510742 251.73059082 -12.0625 252.625 C49.99306407 256.64310139 49.99306407 256.64310139 108.9375 243.625 C109.63746094 243.32980469 110.33742188 243.03460938 111.05859375 242.73046875 C124.53552259 236.79194276 132.93462762 225.67830917 138.25 212.25 C142.32922002 199.31585774 143.37646469 187.22380689 143.21875 173.74536133 C143.18750023 171.0625198 143.17774752 168.38027175 143.171875 165.69726562 C143.13240213 157.07030567 142.84534766 148.54069564 142.14257812 139.9387207 C141.69709617 132.74047484 141.97715129 125.5104297 142.15234375 118.3046875 C142.37262038 99.56114919 135.60332993 85.86256573 122.82421875 72.3984375 C120.88500523 70.44826797 118.91737848 68.53374513 116.9375 66.625 C116.16148437 65.84511719 115.38546875 65.06523437 114.5859375 64.26171875 C100.7314665 50.46855072 85.79367022 40.4654887 68.9375 30.625 C68.29184082 30.24166504 67.64618164 29.85833008 66.98095703 29.46337891 C48.41787841 18.50904898 27.23242658 12.19129782 6.83349609 5.57617188 C3.89704905 4.61171414 0.97310313 3.61576328 -1.94921875 2.609375 C-2.89434326 2.28606201 -3.83946777 1.96274902 -4.81323242 1.62963867 C-6.58225011 1.02341904 -8.349504 0.41201472 -10.11450195 -0.20581055 C-19.4850962 -3.5409934 -19.4850962 -3.5409934 -28.9921875 -1.93359375 C-30.31853832 -1.2478929 -31.63358253 -0.53995543 -32.9375 0.1875 C-33.63294922 0.55520508 -34.32839844 0.92291016 -35.04492188 1.30175781 C-39.75725327 3.81981419 -44.35874048 6.51601496 -48.90625 9.3203125 C-59.93259899 15.99205265 -70.9811368 19.2528963 -83.671875 21.046875 C-89.49485381 21.94749572 -95.2884241 22.93244461 -100.0625 26.625 C-102.47008311 30.44562268 -102.62228825 34.2207836 -102.0625 38.625 C-101.24636278 41.08834099 -100.19265027 43.27428745 -99.0625 45.625 C-98.918125 46.388125 -98.77375 47.15125 -98.625 47.9375 C-98.20801154 49.79484726 -98.20801154 49.79484726 -96.3125 50.6875 C-95.57 50.996875 -94.8275 51.30625 -94.0625 51.625 C-93.258125 52.140625 -92.45375 52.65625 -91.625 53.1875 C-81.0834187 59.10107 -66.44986876 53.82238369 -55.5 51.125 C-54.1480049 50.79987157 -52.7957917 50.47564864 -51.44335938 50.15234375 C-45.15015701 48.65741334 -45.15015701 48.65741334 -38.89086914 47.02929688 C-35.96194173 46.38163981 -33.04765378 46.5675932 -30.0625 46.625 C-30.0625 46.955 -30.0625 47.285 -30.0625 47.625 C-33.95429317 48.56786708 -37.84631324 49.50979169 -41.73852539 50.45092773 C-43.69624049 50.92449567 -45.65378673 51.39876143 -47.61132812 51.87304688 C-50.17409076 52.49254421 -52.73757305 53.10907186 -55.30175781 53.72265625 C-57.75111761 54.31034995 -60.19851732 54.90629362 -62.64355469 55.51171875 C-71.69287767 57.70549402 -82.09449221 59.92610676 -91.125 56.4375 C-97.81012001 52.31263872 -102.3864792 48.17682141 -105.0625 40.625 C-105.91311524 35.28807534 -106.40522639 29.65710282 -103.125 25.0625 C-97.70808882 20.7510809 -92.17228038 19.78948522 -85.4296875 18.60986328 C-68.17567462 15.58795085 -53.30027496 8.45021153 -38.3828125 -0.578125 C-37.30773437 -1.21234375 -36.23265625 -1.8465625 -35.125 -2.5 C-34.22910156 -3.05945313 -33.33320313 -3.61890625 -32.41015625 -4.1953125 C-21.22156236 -8.13808421 -10.5875907 -3.7439593 0 0 Z " fill="#EFEFEF" transform="translate(349.0625,175.375)"/>
<path d="M0 0 C6.84160135 3.27706955 10.14505828 8.08337637 12.6809082 15.12695312 C13.95290537 19.36127644 14.56161284 23.70258839 15.25 28.0625 C16.77155844 36.98838209 18.80169941 45.081474 22.375 53.4375 C22.74238281 54.3346875 23.10976563 55.231875 23.48828125 56.15625 C26.58176872 63.04484064 31.21402922 68.0091214 36.375 73.4375 C37.56910376 74.82768817 38.75712522 76.22313613 39.9375 77.625 C42.96081294 81.12381051 46.29194768 84.07182164 49.87109375 86.9921875 C50.36738281 87.46914063 50.86367188 87.94609375 51.375 88.4375 C51.375 89.0975 51.375 89.7575 51.375 90.4375 C51.973125 90.664375 52.57125 90.89125 53.1875 91.125 C55.93851888 92.77561133 56.89984637 94.6347081 58.375 97.4375 C55.1569104 102.20504015 55.1569104 102.20504015 52.0625 103.125 C45.99412974 101.57262621 41.66653513 95.72903513 37.375 91.4375 C36.31312732 90.60336745 35.25056602 89.77011115 34.1875 88.9375 C29.2058988 84.70151807 25.44307943 79.44199519 21.63916016 74.16992188 C20.45164222 72.54253152 19.21745093 70.94949239 17.98046875 69.359375 C10.63683189 59.20088586 7.99140711 47.92851348 5.10180664 35.85083008 C4.43472232 33.21161903 4.43472232 33.21161903 2.375 30.4375 C-0.06193311 30.07333953 -0.06193311 30.07333953 -2.75 30.25 C-3.66007812 30.27707031 -4.57015625 30.30414063 -5.5078125 30.33203125 C-6.20648438 30.36683594 -6.90515625 30.40164062 -7.625 30.4375 C-7.4084375 31.05753906 -7.191875 31.67757812 -6.96875 32.31640625 C-2.66561309 46.00277226 -4.0634688 57.54666518 -9.625 70.4375 C-9.17769531 70.7778125 -8.73039062 71.118125 -8.26953125 71.46875 C-2.21765898 76.32057084 2.23836846 81.58546378 3.375 89.4375 C4.03476911 99.23253375 3.3999851 108.31686791 -2.625 116.4375 C-3.285 116.4375 -3.945 116.4375 -4.625 116.4375 C-4.04734485 120.33667223 -2.09017206 122.44941265 0.375 125.4375 C3.54693448 130.61276152 3.5300161 136.51243707 3.5625 142.4375 C3.57667969 143.613125 3.59085937 144.78875 3.60546875 146 C3.37044833 149.50538926 2.74422821 152.20900401 1.375 155.4375 C0.715 155.7675 0.055 156.0975 -0.625 156.4375 C-0.46773438 155.62796875 -0.31046875 154.8184375 -0.1484375 153.984375 C1.31640415 144.05843308 2.16205894 133.14891195 -3.1796875 124.296875 C-5.05380206 121.88585194 -7.04036126 120.06213007 -9.625 118.4375 C-8.91923828 117.69306641 -8.91923828 117.69306641 -8.19921875 116.93359375 C-7.57660156 116.25425781 -6.95398438 115.57492187 -6.3125 114.875 C-5.69761719 114.21371094 -5.08273437 113.55242187 -4.44921875 112.87109375 C-0.38915577 107.45477847 0.91478899 102.17355769 0.8125 95.5 C0.80347656 94.79560791 0.79445313 94.09121582 0.78515625 93.36547852 C0.55650566 86.5115184 -0.71524069 82.31798608 -5.56640625 77.515625 C-6.92412488 76.30543012 -8.30800535 75.12359357 -9.72265625 73.98046875 C-11.47887666 72.55601893 -13.057097 71.0640162 -14.625 69.4375 C-13.38802083 67.77734375 -12.15104167 66.1171875 -10.9140625 64.45703125 C-7.58020619 59.2339897 -7.25997915 54.66737323 -7.25 48.625 C-7.22550781 47.85607422 -7.20101563 47.08714844 -7.17578125 46.29492188 C-7.14592644 40.39859613 -8.69102909 36.48216822 -11.625 31.4375 C-12.285 30.1175 -12.945 28.7975 -13.625 27.4375 C-7.025 27.4375 -0.425 27.4375 6.375 27.4375 C6.86806641 29.974375 6.86806641 29.974375 7.37109375 32.5625 C13.13904146 60.68409895 26.81299453 79.90575355 48.64453125 98.35546875 C50.35909352 99.68501664 50.35909352 99.68501664 52.625 99.125 C53.2025 98.898125 53.78 98.67125 54.375 98.4375 C53.85596336 94.32173387 51.75271541 92.5211188 48.81640625 89.7265625 C47.87732422 88.81849854 46.93824219 87.91043457 45.97070312 86.97485352 C45.47449463 86.49944122 44.97828613 86.02402893 44.46704102 85.53421021 C26.05665133 67.81990369 16.24082835 51.66387454 12.19799805 26.06762695 C10.28157693 13.90086021 10.28157693 13.90086021 3 4.4375 C-2.57679408 0.63153627 -9.99433077 1.17382969 -16.5 0.875 C-17.37914062 0.83181641 -18.25828125 0.78863281 -19.1640625 0.74414062 C-21.31755797 0.63880661 -23.47126064 0.53772351 -25.625 0.4375 C-18.48615007 -3.49151293 -7.563635 -2.68647402 0 0 Z " fill="#E9E9E9" transform="translate(349.625,220.5625)"/>
<path d="M0 0 C1.13079987 -0.00511093 2.26159973 -0.01022186 3.42666626 -0.01548767 C7.15892858 -0.0293703 10.89100597 -0.02842794 14.62329102 -0.02612305 C17.22111581 -0.03001052 19.81893997 -0.0343453 22.41676331 -0.03910828 C27.85973441 -0.04656752 33.302634 -0.0464198 38.74560547 -0.04101562 C45.02589843 -0.03497574 51.30596736 -0.04729096 57.58622211 -0.06858569 C63.64213898 -0.08836022 69.69793892 -0.09137143 75.7538929 -0.08785057 C78.32428577 -0.08836372 80.89468224 -0.09360019 83.46505547 -0.10366249 C87.0602122 -0.11600999 90.65485144 -0.10924484 94.25 -0.09765625 C95.30944321 -0.10529999 96.36888641 -0.11294373 97.46043396 -0.12081909 C105.34944076 -0.0646637 111.22816202 1.26164291 117.33422852 6.6965332 C120.79744222 10.72863216 122.42046671 15.45735193 123.18969727 20.6496582 C122.3064318 27.05333286 120.79018218 33.9745607 115.68969727 38.3371582 C111.45280898 41.07348189 108.77754364 42.52175174 103.68234253 42.54881287 C102.16860298 42.56377556 102.16860298 42.56377556 100.62428284 42.57904053 C99.52293503 42.5797052 98.42158722 42.58036987 97.28686523 42.58105469 C96.12216202 42.5893782 94.9574588 42.59770172 93.75746155 42.60627747 C89.89890211 42.63041299 86.04051174 42.63915527 82.18188477 42.64575195 C80.17694249 42.65245127 78.1720002 42.65915284 76.16705906 42.66618687 C69.85819196 42.68765593 63.54937862 42.69699182 57.24047852 42.70019531 C50.75113002 42.70382342 44.26225657 42.73366608 37.77305305 42.7755999 C32.1889819 42.81040844 26.60506724 42.82574562 21.02088845 42.82644135 C17.69143676 42.82723107 14.36285122 42.83822443 11.03344345 42.86443901 C7.31151251 42.89140415 3.59087643 42.88651025 -0.13110352 42.87402344 C-1.76490715 42.89627487 -1.76490715 42.89627487 -3.43171692 42.91897583 C-11.82753085 42.83908554 -18.75982107 40.82513987 -24.81030273 34.7746582 C-28.67086062 28.34039506 -28.92343374 22.65233287 -28.31030273 15.2746582 C-26.5709002 9.51288732 -22.20892425 5.60331871 -17.31030273 2.2746582 C-11.62956515 -0.24181123 -6.09407385 -0.01422329 0 0 Z M-20.68530273 7.24731445 C-21.22155273 7.93696289 -21.75780273 8.62661133 -22.31030273 9.3371582 C-22.86717773 10.02938477 -23.42405273 10.72161133 -23.99780273 11.43481445 C-26.38817105 14.78559861 -26.47255457 16.99190542 -26.49780273 21.0871582 C-26.51198242 22.12485352 -26.52616211 23.16254883 -26.54077148 24.23168945 C-26.23478356 28.27176733 -25.48636353 31.0516654 -22.64624023 34.00512695 C-21.67557617 34.72635742 -21.67557617 34.72635742 -20.68530273 35.4621582 C-20.05366211 35.95071289 -19.42202148 36.43926758 -18.77124023 36.94262695 C-11.89032428 40.66705924 -4.57775618 40.56754871 3.04345703 40.54931641 C4.7108342 40.5569828 4.7108342 40.5569828 6.41189575 40.56480408 C10.06835383 40.5786491 13.72462242 40.5777475 17.38110352 40.57543945 C19.93122935 40.57932836 22.48135453 40.58366343 25.03147888 40.58842468 C30.36834076 40.59587535 35.7051336 40.59574243 41.04199219 40.59033203 C47.19849639 40.58428649 53.35477239 40.59662522 59.51123768 40.6179021 C65.45288164 40.63767604 71.39445516 40.64068817 77.33613396 40.63716698 C79.85628738 40.63767996 82.37644447 40.64291339 84.89657784 40.6529789 C88.41967467 40.66532703 91.94224353 40.65856145 95.46533203 40.64697266 C97.02173149 40.65843826 97.02173149 40.65843826 98.60957336 40.6701355 C105.21736731 40.62213958 110.45298019 40.05359258 115.65063477 35.59106445 C116.11727539 35.01227539 116.58391602 34.43348633 117.06469727 33.8371582 C117.54680664 33.26094727 118.02891602 32.68473633 118.52563477 32.09106445 C121.32956091 27.71581056 121.39145129 22.29609808 120.68969727 17.2746582 C118.78894576 12.01337804 116.72204077 7.08685016 111.68969727 4.2746582 C105.01166733 2.2146158 98.46809828 1.9828238 91.52954102 2 C90.45028351 1.99488907 89.371026 1.98977814 88.25906372 1.98451233 C84.7150508 1.97068735 81.17123384 1.97156749 77.62719727 1.97387695 C75.15055266 1.96998672 72.67390871 1.96565137 70.19726562 1.96089172 C65.01600986 1.9534452 59.83482225 1.95370988 54.65356445 1.95898438 C48.02611128 1.96478312 41.39893719 1.94783028 34.77153015 1.9246397 C29.66018045 1.90988451 24.54889774 1.90903301 19.43753052 1.91214943 C16.99438931 1.91163733 14.55124424 1.9064205 12.10812378 1.89633751 C8.68851731 1.8839533 5.26945181 1.89077672 1.84985352 1.90234375 C0.34867477 1.89087814 0.34867477 1.89087814 -1.18283081 1.87918091 C-8.22180973 1.93160837 -15.10467844 2.61209197 -20.68530273 7.24731445 Z " fill="#E1E1E1" transform="translate(222.310302734375,294.725341796875)"/>
<path d="M0 0 C2.5 1.375 2.5 1.375 5 3 C5 3.66 5 4.32 5 5 C5.57363281 5.22816406 6.14726562 5.45632812 6.73828125 5.69140625 C9.61183183 7.35399597 11.13447159 9.33101403 13.1875 11.9375 C15.56110392 14.93285519 17.92708918 17.91468134 20.41015625 20.8203125 C31.57099071 33.90028878 35.41514987 46.91631284 35.51171875 64.015625 C35.52966995 65.22909607 35.54762115 66.44256714 35.56611633 67.69281006 C35.61976974 71.54517116 35.65382867 75.39741815 35.6875 79.25 C35.72074664 81.78647514 35.75524279 84.32293423 35.79101562 86.859375 C35.87364198 93.05517552 35.93209349 99.25082567 35.97518921 105.44702148 C35.99152072 107.78574265 36.01003761 110.12444975 36.03091431 112.46313477 C36.05875722 115.69938058 36.07774803 118.93555141 36.09375 122.171875 C36.10694527 123.57859467 36.10694527 123.57859467 36.1204071 125.01373291 C36.16986443 145.47315602 32.4750605 170.53257545 18.00390625 186.06640625 C1.42820847 202.0605006 -17.95110498 210.23604185 -40.92651367 210.68139648 C-42.1699438 210.71455428 -43.41337393 210.74771208 -44.69448376 210.78187466 C-60.34116524 211.15357896 -75.99322742 211.12852339 -91.64329171 211.10139394 C-95.96598404 211.0950141 -100.28867759 211.09454532 -104.6113739 211.09336853 C-112.74546246 211.09029732 -120.87953709 211.08214259 -129.0136196 211.07201904 C-138.29585481 211.06072473 -147.57809078 211.05531438 -156.86033118 211.05032361 C-175.90689526 211.0399549 -194.9534465 211.02243979 -214 211 C-214 210.67 -214 210.34 -214 210 C-213.32657845 209.99576806 -212.65315691 209.99153612 -211.95932865 209.98717594 C-195.35465685 209.88257072 -178.75001786 209.77377634 -162.14540195 209.66066074 C-154.11460552 209.60604733 -146.08380476 209.55273923 -138.05297852 209.50268555 C-119.29835296 209.38519383 -100.54410631 209.24707128 -81.79005706 209.05746162 C-77.58294512 209.01499809 -73.375815 208.97720519 -69.16864014 208.94158936 C-64.33709138 208.89852808 -59.50625708 208.83601906 -54.67521477 208.75401115 C-53.04347126 208.72867845 -51.41162014 208.70928029 -49.77972603 208.69702339 C-26.18724812 208.50505786 -2.78121102 202.01997719 14.74609375 185.44921875 C29.8989124 168.9833309 33.22087751 145.04048034 33.125 123.5 C33.12016602 122.31599609 33.11533203 121.13199219 33.11035156 119.91210938 C33.09487231 117.05592002 33.07189145 114.19986209 33.04589844 111.34375 C33.00930691 107.3229411 32.98400545 103.30216424 32.96191406 99.28125 C32.92489437 92.97343221 32.86378383 86.6661378 32.79046631 80.35864258 C32.76366009 77.80255015 32.74327199 75.24638172 32.72955322 72.69018555 C32.7080442 69.03257968 32.66136371 65.3760344 32.609375 61.71875 C32.60751694 60.08703857 32.60751694 60.08703857 32.60562134 58.42236328 C32.25385073 39.72549463 23.36091281 27.2057234 11 14 C9.72301392 12.54705127 8.45169629 11.08909058 7.1875 9.625 C5.36714627 7.52524314 3.55651684 5.56788821 1.5625 3.625 C0 2 0 2 0 0 Z " fill="#F7F7F7" transform="translate(467,228)"/>
<path d="M0 0 C8.46092049 7.73569873 11.5172968 15.50370892 12.24975586 26.87866211 C12.45074058 31.62579773 12.54154147 36.37458078 12.625 41.125 C12.65102798 42.43759293 12.65102798 42.43759293 12.67758179 43.77670288 C12.79056592 49.50018195 12.87954944 55.223754 12.95709229 60.94781494 C13.00085536 64.06084462 13.05156682 67.17370993 13.10302734 70.28662109 C13.18746135 75.59436637 13.24497984 80.90188531 13.28509521 86.21014404 C13.3030724 88.24524969 13.32762787 90.28031012 13.35943604 92.31524658 C13.67076353 113.3869948 12.06084582 135.80350307 -2.3515625 152.39453125 C-22.67436203 172.38760985 -48.20048797 174.16692414 -75.07421875 174.09765625 C-77.21084052 174.09578841 -79.34746273 174.09436624 -81.48408508 174.09336853 C-87.07515673 174.08957218 -92.66620191 174.07976686 -98.25726318 174.06866455 C-103.97554161 174.05838811 -109.69382436 174.05385762 -115.41210938 174.04882812 C-126.60808447 174.0381417 -137.80404002 174.02110035 -149 174 C-148.57847656 173.18015625 -148.15695312 172.3603125 -147.72265625 171.515625 C-147.17480469 170.43796875 -146.62695312 169.3603125 -146.0625 168.25 C-145.51722656 167.18265625 -144.97195313 166.1153125 -144.41015625 165.015625 C-141.61936236 159.04750067 -140.8017377 152.37159141 -142.56640625 145.93359375 C-143.9335861 142.61943526 -145.69860555 139.73975529 -148 137 C-146.72164549 133.02289709 -144.43364216 132.12338937 -140.875 130.27734375 C-137.96908414 128.29768857 -136.2777262 125.61150118 -134.359375 122.70703125 C-133 121 -133 121 -130 120 C-132.59036725 125.88719829 -136.02662676 131.25547716 -142 134 C-142.66 134 -143.32 134 -144 134 C-143.42923685 137.99534208 -142.09958585 140.588173 -140 144 C-137.6482177 151.60302223 -138.57857115 158.60034857 -141.5234375 165.87890625 C-141.98411621 167.03076416 -142.44479492 168.18262207 -142.91943359 169.36938477 C-143.27602051 170.23748779 -143.63260742 171.10559082 -144 172 C-81.94443593 176.01810139 -81.94443593 176.01810139 -23 163 C-22.30003906 162.70480469 -21.60007812 162.40960938 -20.87890625 162.10546875 C-7.40197741 156.16694276 0.99712762 145.05330917 6.3125 131.625 C10.39172002 118.69085774 11.43896469 106.59880689 11.28125 93.12036133 C11.25000023 90.4375198 11.24024752 87.75527175 11.234375 85.07226562 C11.19490213 76.44530567 10.90784766 67.91569564 10.20507812 59.3137207 C9.75959617 52.11547484 10.03965129 44.8854297 10.21484375 37.6796875 C10.33492381 27.46196587 9.27331545 17.89772597 3.875 9 C2.07173889 5.98559337 0.65796701 3.46636276 0 0 Z " fill="#F1F1F1" transform="translate(481,256)"/>
<path d="M0 0 C0.97983856 -0.0071553 1.95967712 -0.01431061 2.96920776 -0.02168274 C4.03786575 -0.02437164 5.10652374 -0.02706055 6.20756531 -0.02983093 C7.33807312 -0.03640213 8.46858093 -0.04297333 9.63334656 -0.04974365 C13.37642991 -0.06946303 17.1194732 -0.08113527 20.8625946 -0.09111023 C22.14099905 -0.09518576 23.4194035 -0.09926128 24.73654747 -0.10346031 C30.80366376 -0.12216437 36.8707558 -0.13673267 42.93789321 -0.14507228 C49.93011854 -0.15484363 56.92202722 -0.18116602 63.914141 -0.22157317 C69.97965252 -0.25541722 76.04503125 -0.26722085 82.11063194 -0.27127647 C84.68662351 -0.27614928 87.26261152 -0.28778288 89.83854103 -0.30631447 C93.44357707 -0.33064098 97.04778495 -0.32975235 100.65287781 -0.32279968 C101.7154631 -0.33560974 102.7780484 -0.3484198 103.87283325 -0.36161804 C110.1742224 -0.31734426 114.00064174 0.38972917 119.12431335 4.14717102 C123.79981271 10.38117016 123.94913068 17.6033362 123.12431335 25.14717102 C121.20806496 30.98337981 118.54777572 35.97246134 113.12431335 39.14717102 C107.60141423 41.52455893 102.41053769 41.44960726 96.50419617 41.4535675 C95.44649017 41.46189102 94.38878418 41.47021454 93.29902649 41.47879028 C89.80845945 41.50285051 86.31807948 41.51165799 82.82743835 41.51826477 C80.39374232 41.52723462 77.96004685 41.53635653 75.52635193 41.54562378 C70.42552858 41.5621059 65.3247708 41.56981241 60.22392273 41.57270813 C53.70282046 41.57808874 47.18233854 41.61576 40.66141129 41.66145229 C35.6340767 41.69126437 30.60689069 41.69843262 25.5794754 41.69943428 C23.17621268 41.70362884 20.7729492 41.71603221 18.36977386 41.73695183 C15.00006114 41.76394862 11.63177601 41.75901475 8.26200867 41.74653625 C7.27880646 41.76137054 6.29560425 41.77620483 5.28260803 41.79148865 C-3.1076367 41.70346321 -9.38297971 38.9849954 -15.87568665 33.70967102 C-20.22269872 28.1400618 -20.71331244 21.99661738 -19.87568665 15.14717102 C-18.07133863 9.03183584 -14.23600189 4.54438836 -8.87568665 1.14717102 C-5.86990447 0.21319373 -3.13867905 0.01577974 0 0 Z M-13.87568665 8.02217102 C-17.30054452 13.37351144 -18.43307088 17.79299079 -17.87568665 24.14717102 C-16.16954556 29.64473673 -13.74886972 33.11253358 -8.87568665 36.14717102 C-1.36367424 39.85395225 6.03596634 39.6233871 14.2766571 39.65888977 C15.77801911 39.67581074 17.2793676 39.69397032 18.78070068 39.71328735 C22.74142528 39.76070792 26.70209594 39.7904822 30.66300964 39.81672668 C34.56755546 39.84593478 38.47187854 39.89303711 42.37626648 39.93818665 C49.32087623 40.01581401 56.26534132 40.06636875 63.21028709 40.10177422 C67.8621285 40.12730108 72.51310912 40.17494474 77.16456127 40.24004269 C80.18480342 40.27996791 83.2050818 40.30739644 86.22548103 40.3323307 C87.6383305 40.34668509 89.05113863 40.3662463 90.46383476 40.39153099 C99.5485672 40.55040633 107.94664615 40.48728525 115.49931335 34.89717102 C120.2457902 29.92467147 121.30002763 25.91476342 121.56181335 19.20967102 C121.41162447 13.76191068 120.50350155 9.49965291 117.12431335 5.14717102 C112.88401523 1.86093998 108.84318193 1.02861549 103.57252502 1 C102.21024025 0.98926704 102.21024025 0.98926704 100.82043457 0.97831726 C99.83129562 0.97562836 98.84215668 0.97293945 97.82304382 0.97016907 C96.77538345 0.96359787 95.72772308 0.95702667 94.64831543 0.95025635 C91.17937649 0.93053845 87.71048085 0.91886307 84.24150085 0.90888977 C83.05510136 0.90481424 81.86870186 0.90073872 80.64635086 0.89653969 C74.36491826 0.87568381 68.08350746 0.86138086 61.80204773 0.852005 C55.32583781 0.8409512 48.84997248 0.80656128 42.3738842 0.76683331 C37.38430661 0.74063995 32.39481073 0.73231064 27.40517044 0.72872353 C25.01865949 0.72386341 22.63215204 0.71226596 20.24570847 0.69368553 C16.89751446 0.66924072 13.5502067 0.67026949 10.20195007 0.67720032 C9.22495651 0.66439026 8.24796295 0.6515802 7.24136353 0.63838196 C-0.39940233 0.69573314 -8.53365277 2.06660429 -13.87568665 8.02217102 Z " fill="#FCFCFC" transform="translate(221.8756866455078,343.8528289794922)"/>
<path d="M0 0 C0.91461502 -0.00671722 1.82923004 -0.01343445 2.77156067 -0.02035522 C5.78477461 -0.0392998 8.79776542 -0.04325754 11.81103516 -0.04541016 C13.9132191 -0.05184015 16.01540215 -0.05856867 18.11758423 -0.06558228 C22.52063064 -0.07754591 26.92359864 -0.081264 31.32666016 -0.08007812 C36.95782608 -0.0798749 42.58848752 -0.1071848 48.21953392 -0.14162254 C52.56051933 -0.16390109 56.90138347 -0.16791538 61.2424202 -0.16685867 C63.31797653 -0.16921288 65.39353629 -0.17802622 67.4690361 -0.19352341 C70.37684859 -0.21320393 73.28357483 -0.20733723 76.19140625 -0.1953125 C77.04153793 -0.20655151 77.89166962 -0.21779053 78.76756287 -0.22937012 C85.11295222 -0.16296965 90.49633779 1.3083719 95.25377464 5.70244789 C100.36287172 11.49179669 101.1742292 16.79810267 101.04541016 24.27880859 C100.45762844 29.80539032 98.19583286 33.55238574 94.66259766 37.72802734 C91.6545879 40.15384166 89.06488641 40.41778033 85.33584595 40.44442749 C84.43863327 40.45302795 83.54142059 40.46162842 82.61701965 40.4704895 C81.1441877 40.47687943 81.1441877 40.47687943 79.64160156 40.48339844 C78.6055629 40.49157593 77.56952423 40.49975342 76.50209045 40.50817871 C73.06861959 40.5330218 69.63518997 40.54954395 66.20166016 40.56396484 C65.03016796 40.56928852 63.85867577 40.5746122 62.65168381 40.5800972 C56.45383101 40.60682106 50.25599834 40.62620048 44.05810547 40.640625 C37.64967516 40.65729218 31.24175717 40.70209011 24.83352089 40.75299644 C19.91105541 40.78660739 14.98871263 40.79819558 10.06614304 40.80385208 C7.70339405 40.81057901 5.34065353 40.82583816 2.9780159 40.84974289 C-0.3259574 40.88127082 -3.6285337 40.88144953 -6.93261719 40.87402344 C-7.9104567 40.89042877 -8.8882962 40.90683411 -9.89576721 40.92373657 C-14.52549619 40.8810803 -16.57594859 40.84181135 -20.3097229 37.8968811 C-20.95823212 37.03678436 -21.60674133 36.17668762 -22.27490234 35.29052734 C-22.86400391 34.53642578 -23.45310547 33.78232422 -24.06005859 33.00537109 C-25.74562918 29.23858152 -25.75141079 25.93472904 -25.71240234 21.85302734 C-25.73238281 21.11503906 -25.75236328 20.37705078 -25.77294922 19.61669922 C-25.76829499 14.38069591 -24.67705571 11.45831958 -21.27490234 7.29052734 C-14.62317357 0.92800417 -8.81799991 -0.0093568 0 0 Z M-19.27490234 7.29052734 C-24.62037913 13.83873641 -25.04895262 20.09407713 -24.27490234 28.29052734 C-22.80468181 32.6554826 -20.28867465 35.95994987 -16.27490234 38.29052734 C-13.54133947 39.20171497 -11.93305948 39.41957337 -9.12016296 39.43096924 C-8.27488037 39.43667938 -7.42959778 39.44238953 -6.55870056 39.44827271 C-5.63448807 39.44939056 -4.71027557 39.45050842 -3.75805664 39.45166016 C-2.78214569 39.45662506 -1.80623474 39.46158997 -0.80075073 39.46670532 C2.43313295 39.48133017 5.66696757 39.48812957 8.90087891 39.49365234 C11.14666241 39.49940361 13.3924459 39.50516135 15.63822937 39.51092529 C20.35004912 39.52143625 25.06185181 39.52727828 29.77368164 39.53076172 C35.80970376 39.53624606 41.84550025 39.56027257 47.88145161 39.58873367 C52.52173012 39.60736243 57.16195432 39.61256579 61.80226707 39.6140976 C64.02739889 39.6171242 66.25252975 39.62515295 68.47762489 39.63828278 C71.59194703 39.65534758 74.70571836 39.65346175 77.82006836 39.64697266 C79.19727806 39.66079483 79.19727806 39.66079483 80.60231018 39.67489624 C85.71845847 39.64152245 89.32499262 39.19863923 93.72509766 36.29052734 C97.72405334 30.99461306 98.9810734 25.91636108 98.72509766 19.29052734 C97.75012291 13.72038475 96.47848462 8.74753604 91.72509766 5.29052734 C82.96184033 0.24356255 70.50503772 2.1423048 60.68212891 2.15771484 C59.1443429 2.15703894 57.60655701 2.15606655 56.06877136 2.15481567 C52.85906956 2.15334995 49.64939578 2.15545531 46.43969727 2.16015625 C42.37344767 2.16582858 38.30726447 2.16258317 34.24101734 2.15658379 C31.0672508 2.15292681 27.89349934 2.15414042 24.71973228 2.15671158 C23.22297851 2.157368 21.72622326 2.15659867 20.22947121 2.15423203 C-0.50229985 0.99424868 -0.50229985 0.99424868 -19.27490234 7.29052734 Z " fill="#FDFDFD" transform="translate(236.27490234375,247.70947265625)"/>
<path d="M0 0 C1.41778496 -0.01774223 1.41778496 -0.01774223 2.86421204 -0.0358429 C5.99068376 -0.06875613 9.11628628 -0.07168674 12.24291992 -0.0715332 C14.41762143 -0.08184681 16.5923195 -0.09290975 18.76701355 -0.10469055 C23.32751415 -0.12413513 27.88770802 -0.12754034 32.44824219 -0.12109375 C38.28626051 -0.11510146 44.12268671 -0.15930066 49.96037769 -0.21698284 C54.45322347 -0.25399679 58.94568624 -0.25888337 63.43866539 -0.25470924 C65.59043456 -0.25757934 67.74221945 -0.27163987 69.89383888 -0.2971859 C72.90817867 -0.32920907 75.91924476 -0.31658809 78.93359375 -0.29296875 C79.81851501 -0.3118515 80.70343628 -0.33073425 81.61517334 -0.35018921 C86.48241181 -0.25969084 89.0863093 0.43890947 92.6438446 3.86882019 C97.45215273 9.1843426 98.11044943 13.47996633 97.97338867 20.5300293 C97.51505168 24.9816273 96.09533092 27.88761945 93.66088867 31.56518555 C93.25706718 32.17937757 92.8532457 32.79356958 92.43718719 33.42637348 C90.45994286 36.07669114 88.86890887 38.17945378 85.64808655 39.20789146 C83.25231879 39.45410671 80.94572056 39.47755669 78.5378418 39.42333984 C77.63952133 39.4307872 76.74120087 39.43823456 75.81565857 39.44590759 C72.85673576 39.46137859 69.90083333 39.42648121 66.94213867 39.3894043 C64.88000689 39.38649969 62.81787014 39.3861148 60.7557373 39.38813782 C56.43805776 39.38492324 52.12139735 39.35797756 47.80395508 39.31298828 C42.27558973 39.25631997 36.74849522 39.24812929 31.21988678 39.25639629 C26.96295428 39.25919681 22.70630434 39.24157319 18.44944763 39.21726418 C16.41135039 39.2070665 14.37322102 39.20195663 12.33509827 39.20206261 C9.48413379 39.19808639 6.63463052 39.1679061 3.78393555 39.13037109 C2.52600441 39.13544678 2.52600441 39.13544678 1.24266052 39.140625 C-4.08165519 39.03432311 -7.09628829 38.06072631 -11.33911133 34.56518555 C-16.76988473 28.69407916 -16.62757225 23.59877038 -16.55786133 15.8347168 C-16.20607991 10.57684099 -14.86701257 6.74787759 -11.81343079 2.38566589 C-8.05256605 -0.38139004 -4.55920187 -0.01731479 0 0 Z M-10.52661133 4.69018555 C-14.63238739 11.20279585 -15.06620209 18.04434044 -14.33911133 25.56518555 C-12.70396561 30.29850211 -10.61917958 32.95992661 -6.33911133 35.56518555 C-0.51337073 37.35639112 5.20621995 37.86291821 11.26660156 37.84326172 C12.4782473 37.85075439 12.4782473 37.85075439 13.71437073 37.85839844 C16.35423784 37.87049166 18.99366654 37.86632275 21.63354492 37.8581543 C22.5420413 37.85652094 23.45053768 37.85488758 24.38656425 37.85320473 C29.18753163 37.84256915 33.98821314 37.81807321 38.7890625 37.78320312 C43.73105295 37.7504201 48.67147703 37.76917091 53.61342716 37.79914379 C57.4323541 37.81244073 61.25028795 37.78605905 65.06902885 37.74913979 C66.89055379 37.73855919 68.71223325 37.74298669 70.53367805 37.7630825 C80.5146465 38.11407886 80.5146465 38.11407886 89.56784058 34.62442017 C95.1539606 28.59760559 96.02082841 23.32873726 95.94604492 15.3269043 C95.43436748 10.37134334 93.29105369 7.37648001 89.97338867 3.69018555 C81.99167494 -0.19281032 70.98627331 1.41927207 62.27026367 1.43237305 C60.67759181 1.4316978 59.08492005 1.43072594 57.49224854 1.42947388 C54.16384901 1.42800558 50.83547645 1.43012228 47.50708008 1.43481445 C43.27681182 1.44049253 39.04660729 1.43723938 34.8163414 1.43124199 C31.52860042 1.42759688 28.24087409 1.42879325 24.95313263 1.43136978 C23.39528648 1.43202914 21.83743893 1.43124598 20.27959442 1.42889023 C4.13567112 0.36097768 4.13567112 0.36097768 -10.52661133 4.69018555 Z " fill="#FDFDFD" transform="translate(235.339111328125,391.434814453125)"/>
<path d="M0 0 C1.07185547 -0.02900391 2.14371094 -0.05800781 3.24804688 -0.08789062 C9.53290051 -0.13848078 13.29583289 0.07982525 18.0625 4.3125 C20.0625 6.3125 20.0625 6.3125 22.0625 14.3125 C-19.1875 14.3125 -60.4375 14.3125 -102.9375 14.3125 C-102.9375 13.9825 -102.9375 13.6525 -102.9375 13.3125 C-88.4175 12.9825 -73.8975 12.6525 -58.9375 12.3125 C-58.9375 11.9825 -58.9375 11.6525 -58.9375 11.3125 C-58.3276123 11.21525635 -57.71772461 11.1180127 -57.08935547 11.01782227 C-48.61626313 9.57971434 -40.36207583 7.44401728 -32.0625 5.25 C-29.97696861 4.70179904 -27.89113512 4.1547892 -25.80490112 3.60926819 C-23.92808252 3.11805029 -22.05214786 2.62345864 -20.17626953 2.12866211 C-13.34004024 0.40594882 -7.03693609 0.06324388 0 0 Z M-23.9375 5.3125 C-24.67790527 5.52132812 -25.41831055 5.73015625 -26.18115234 5.9453125 C-31.11687502 7.34717456 -36.03158966 8.80984223 -40.9375 10.3125 C-40.9375 10.6425 -40.9375 10.9725 -40.9375 11.3125 C-37.41253766 12.10735739 -34.11509478 12.45750438 -30.50463867 12.51782227 C-29.44391647 12.53776749 -28.38319427 12.55771271 -27.29032898 12.57826233 C-26.1568251 12.59497482 -25.02332123 12.61168732 -23.85546875 12.62890625 C-22.68615311 12.64968735 -21.51683746 12.67046844 -20.31208801 12.69187927 C-16.58311747 12.75717414 -12.85407753 12.81616659 -9.125 12.875 C-6.59439391 12.91820429 -4.0637948 12.96181919 -1.53320312 13.00585938 C4.66529158 13.112835 10.86385506 13.21463848 17.0625 13.3125 C18.18134806 11.4607623 18.18134806 11.4607623 19.0625 9.3125 C18.17984188 6.56202182 18.17984188 6.56202182 16.0625 4.3125 C10.93126828 2.024034 6.07648503 1.96390618 0.5625 2 C-0.32606689 2.00491455 -1.21463379 2.0098291 -2.13012695 2.01489258 C-9.69427831 2.14817256 -16.64802379 3.25505137 -23.9375 5.3125 Z " fill="#D4D4D4" transform="translate(332.9375,227.6875)"/>
<path d="M0 0 C6.6 0 13.2 0 20 0 C21.98 8.91 23.96 17.82 26 27 C25.34 27 24.68 27 24 27 C23.79318604 26.30849854 23.58637207 25.61699707 23.37329102 24.90454102 C22.43965276 21.78952946 21.50114417 18.67600659 20.5625 15.5625 C20.07426758 13.92958008 20.07426758 13.92958008 19.57617188 12.26367188 C19.26357422 11.22919922 18.95097656 10.19472656 18.62890625 9.12890625 C18.34088135 8.17056885 18.05285645 7.21223145 17.75610352 6.22485352 C17.2010872 4.05376216 17.2010872 4.05376216 16 3 C14.31391034 2.92794489 12.62499341 2.91613932 10.9375 2.9375 C10.01839844 2.94652344 9.09929687 2.95554688 8.15234375 2.96484375 C7.44207031 2.97644531 6.73179687 2.98804688 6 3 C6.2165625 3.62003906 6.433125 4.24007812 6.65625 4.87890625 C10.95938691 18.56527226 9.5615312 30.10916518 4 43 C4.44730469 43.3403125 4.89460938 43.680625 5.35546875 44.03125 C11.40734102 48.88307084 15.86336846 54.14796378 17 62 C17.65976911 71.79503375 17.0249851 80.87936791 11 89 C10.34 89 9.68 89 9 89 C9.57765515 92.89917223 11.53482794 95.01191265 14 98 C17.17193448 103.17526152 17.1550161 109.07493707 17.1875 115 C17.20167969 116.175625 17.21585937 117.35125 17.23046875 118.5625 C16.99544833 122.06788926 16.36922821 124.77150401 15 128 C14.34 128.33 13.68 128.66 13 129 C13.15726562 128.19046875 13.31453125 127.3809375 13.4765625 126.546875 C14.94140415 116.62093308 15.78705894 105.71141195 10.4453125 96.859375 C8.57119794 94.44835194 6.58463874 92.62463007 4 91 C4.70576172 90.25556641 4.70576172 90.25556641 5.42578125 89.49609375 C6.04839844 88.81675781 6.67101562 88.13742187 7.3125 87.4375 C7.92738281 86.77621094 8.54226563 86.11492187 9.17578125 85.43359375 C13.23584423 80.01727847 14.53978899 74.73605769 14.4375 68.0625 C14.42847656 67.35810791 14.41945313 66.65371582 14.41015625 65.92797852 C14.18150566 59.0740184 12.90975931 54.88048608 8.05859375 50.078125 C6.70087512 48.86793012 5.31699465 47.68609357 3.90234375 46.54296875 C2.14612334 45.11851893 0.567903 43.6265162 -1 42 C0.23697917 40.33984375 1.47395833 38.6796875 2.7109375 37.01953125 C6.04479381 31.7964897 6.36502085 27.22987323 6.375 21.1875 C6.39949219 20.41857422 6.42398437 19.64964844 6.44921875 18.85742188 C6.47907356 12.96109613 4.93397091 9.04466822 2 4 C1.34 2.68 0.68 1.36 0 0 Z " fill="#F0F0F0" transform="translate(336,248)"/>
<path d="M0 0 C1.37702856 0.45357417 2.75465938 0.90532304 4.1328125 1.35546875 C14.63749677 4.80026291 25.08508695 8.41202081 35.50195312 12.11328125 C37.1532935 12.69944898 38.80562506 13.28283262 40.45898438 13.86328125 C51.99138649 17.92046368 63.06804653 22.52469338 74 28 C74.6388916 28.31549805 75.2777832 28.63099609 75.93603516 28.95605469 C93.29387614 37.58356772 108.57948731 49.11015626 123 62 C122.67 62.66 122.34 63.32 122 64 C121.03513672 63.19949219 121.03513672 63.19949219 120.05078125 62.3828125 C92.48381645 39.65284723 63.83821543 24.74361884 30 13 C29.22615967 12.73086792 28.45231934 12.46173584 27.6550293 12.18444824 C18.36520616 8.95556268 9.06580422 5.75452511 -0.24609375 2.58984375 C-0.97092957 2.34241425 -1.69576538 2.09498474 -2.44256592 1.84005737 C-7.88965008 -0.00413553 -12.24721083 -1.13938197 -18 -1.125 C-19.03125 -1.12757813 -20.0625 -1.13015625 -21.125 -1.1328125 C-23.59657009 -1.01863671 -25.6442958 -0.71350656 -28 0 C-27.67 -0.99 -27.34 -1.98 -27 -3 C-17.23150408 -5.52090217 -9.33172486 -3.18620204 0 0 Z " fill="#E6E6E6" transform="translate(344,165)"/>
<path d="M0 0 C15.22035991 -0.0233389 30.44071899 -0.04098406 45.66109276 -0.05181217 C52.72784396 -0.05697302 59.79458405 -0.0640117 66.86132812 -0.07543945 C73.67587006 -0.08645413 80.49040044 -0.09227766 87.30495071 -0.09487724 C89.91017463 -0.09673079 92.51539789 -0.10035007 95.12061691 -0.10573006 C98.75799701 -0.11294557 102.39532879 -0.11399072 106.03271484 -0.11352539 C107.66298363 -0.1189183 107.66298363 -0.1189183 109.32618713 -0.12442017 C110.80699516 -0.12235817 110.80699516 -0.12235817 112.31771851 -0.12025452 C113.17867315 -0.12117631 114.0396278 -0.1220981 114.92667198 -0.12304783 C117 0 117 0 119 1 C119 1.66 119 2.32 119 3 C79.4 3 39.8 3 -1 3 C-0.67 2.01 -0.34 1.02 0 0 Z " fill="#ECECEC" transform="translate(211,295)"/>
<path d="M0 0 C0.99 0.495 0.99 0.495 2 1 C-33.12494055 21.84727367 -33.12494055 21.84727367 -53.34082031 25.01123047 C-64.64114998 26.70919153 -64.64114998 26.70919153 -73.35546875 33.6796875 C-76.80670184 39.35714261 -76.73824377 45.55148513 -76 52 C-74.14420648 59.2229086 -69.30022469 64.9715817 -64 70 C-63 71 -62 72 -61 73 C-65.90968449 72.5791699 -67.81498598 70.65111364 -71 67 C-71.50917969 66.41992188 -72.01835937 65.83984375 -72.54296875 65.2421875 C-77.57657004 59.10243679 -80.49204878 52.42982107 -79.9375 44.375 C-78.94703033 38.41110818 -76.71529622 33.22358722 -72.125 29.1875 C-65.66721795 24.66705257 -59.67933485 23.15674033 -52.0625 21.6875 C-34.66806186 18.0660952 -20.51132006 10.84095782 -5.12207031 2.11987305 C-3 1 -3 1 0 0 Z " fill="#EBEBEB" transform="translate(314,164)"/>
<path d="M0 0 C0.87439224 0.01281006 1.74878448 0.02562012 2.64967346 0.03881836 C4.03539551 0.03553276 4.03539551 0.03553276 5.44911194 0.03218079 C8.50778301 0.02986612 11.56549568 0.05614405 14.6240387 0.08300781 C16.74488011 0.08792966 18.86572586 0.09122988 20.98657227 0.0929718 C25.43284457 0.10061808 29.87879569 0.12119918 34.32496643 0.15209961 C40.03398026 0.19169888 45.74278501 0.20971131 51.45192051 0.21940899 C56.88432177 0.22936798 62.31667155 0.24927093 67.7490387 0.27050781 C68.79108522 0.27390356 69.83313175 0.27729931 70.90675545 0.28079796 C73.84456178 0.29233604 76.78223342 0.31085083 79.71998596 0.33178711 C80.59640244 0.33447601 81.47281891 0.33716492 82.37579346 0.3399353 C88.39031658 0.39388113 88.39031658 0.39388113 90.62013245 1.50878906 C90.62013245 2.16878906 90.62013245 2.82878906 90.62013245 3.50878906 C89.63280121 3.50656845 88.64546997 3.50434784 87.6282196 3.50205994 C78.24492878 3.48163611 68.86164257 3.46672537 59.47833443 3.45697689 C54.6562875 3.45179637 49.83425876 3.44478845 45.01222229 3.43334961 C40.34376221 3.42234657 35.67531944 3.41647603 31.00684738 3.41391182 C29.24100854 3.4120885 27.47517045 3.40852961 25.70933914 3.40305901 C13.97601928 3.36821167 2.32834639 3.73193005 -9.37986755 4.50878906 C-7.26805558 0.06099668 -4.64705759 0.04030626 0 0 Z " fill="#D5D5D5" transform="translate(233.37986755371094,247.4912109375)"/>
<path d="M0 0 C0.33 0 0.66 0 1 0 C3.4385172 10.86248569 -0.39449903 21.81362342 -3.9375 32.0625 C-4.17799072 32.76431396 -4.41848145 33.46612793 -4.66625977 34.18920898 C-10.27260957 49.67686653 -23.95758178 60.30498918 -38 68 C-44.77042972 70.9436651 -51.37350362 73.1735298 -58.8125 73.0625 C-59.60269531 73.05347656 -60.39289063 73.04445313 -61.20703125 73.03515625 C-61.79871094 73.02355469 -62.39039063 73.01195312 -63 73 C-63 72.67 -63 72.34 -63 72 C-62.030625 71.8040625 -61.06125 71.608125 -60.0625 71.40625 C-42.28852437 67.54574786 -23.85948435 59.17167045 -13 44 C-4.67100074 30.37382534 -1.8617666 15.67803452 0 0 Z " fill="#DEDEDE" transform="translate(500,363)"/>
<path d="M0 0 C12.65652456 -0.16229616 25.31280098 -0.28662367 37.97015476 -0.3626852 C43.84774633 -0.39919406 49.72462523 -0.44870312 55.60180664 -0.52807617 C61.27528305 -0.60421733 66.94807466 -0.64600795 72.62202263 -0.6641407 C74.78502113 -0.67706008 76.94798276 -0.7022895 79.11068916 -0.7401104 C82.14435479 -0.79104534 85.17520306 -0.79791886 88.20922852 -0.79467773 C89.54603668 -0.83242813 89.54603668 -0.83242813 90.90985107 -0.87094116 C95.79947244 -0.81453914 98.41134175 -0.14744438 101.98692322 3.29966736 C105.93013342 7.66767199 107.27974109 11.04132867 107.25 16.9375 C107.25773437 18.46697266 107.25773437 18.46697266 107.265625 20.02734375 C106.99523535 23.05332204 106.27241136 25.25825647 105 28 C104.67 28 104.34 28 104 28 C104.03480469 26.90300781 104.06960938 25.80601562 104.10546875 24.67578125 C104.13361865 23.22136955 104.16091752 21.7669412 104.1875 20.3125 C104.21263672 19.59126953 104.23777344 18.87003906 104.26367188 18.12695312 C104.32745312 13.4709223 103.67698759 10.78712942 101 7 C101 6.34 101 5.68 101 5 C94.02158938 2.10604337 87.88998407 1.60753527 80.390625 1.7421875 C79.28125076 1.74916656 78.17187653 1.75614563 77.02888489 1.76333618 C74.65959536 1.77940531 72.2903428 1.80207071 69.9211731 1.83081055 C63.7432108 1.90517391 57.56503076 1.93124687 51.38671875 1.9609375 C50.15968735 1.96796692 48.93265594 1.97499634 47.66844177 1.98223877 C36.79236426 2.03207438 25.9327852 1.83933284 15.0625 1.5 C14.274198 1.47580994 13.485896 1.45161987 12.67370605 1.42669678 C8.4487229 1.29538547 4.22423925 1.15365328 0 1 C0 0.67 0 0.34 0 0 Z " fill="#E5E5E5" transform="translate(226,392)"/>
<path d="M0 0 C2.94245791 2.59947202 4.65468961 5.62695835 6.625 9 C14.5570104 22.13904739 26.07767989 36.42542218 39 45 C41.20800528 44.78282648 41.20800528 44.78282648 43 44 C42.43379699 40.22531329 40.87731019 38.52448107 38.18359375 35.890625 C37.41982422 35.13652344 36.65605469 34.38242187 35.86914062 33.60546875 C35.06669922 32.82816406 34.26425781 32.05085938 33.4375 31.25 C32.63119141 30.45722656 31.82488281 29.66445313 30.99414062 28.84765625 C29.00266222 26.89152954 27.00452279 24.94274281 25 23 C25.33 22.34 25.66 21.68 26 21 C26.84304688 21.85464844 27.68609375 22.70929688 28.5546875 23.58984375 C29.66132593 24.70586047 30.76810402 25.82173872 31.875 26.9375 C32.70837891 27.78344727 32.70837891 27.78344727 33.55859375 28.64648438 C36.4921571 31.69860028 36.4921571 31.69860028 40 34 C40 34.66 40 35.32 40 36 C40.598125 36.226875 41.19625 36.45375 41.8125 36.6875 C44.56351888 38.33811133 45.52484637 40.1972081 47 43 C43.7819104 47.76754015 43.7819104 47.76754015 40.6875 48.6875 C34.61912974 47.13512621 30.29153513 41.29153513 26 37 C24.93812732 36.16586745 23.87556602 35.33261115 22.8125 34.5 C15.10827112 27.94889865 9.40079996 18.82697105 3.875 10.4375 C3.4845752 9.85419922 3.09415039 9.27089844 2.69189453 8.66992188 C0.5874445 5.39229592 0 4.02568965 0 0 Z " fill="#F1F1F1" transform="translate(361,275)"/>
<path d="M0 0 C0.74958984 0.01353516 1.49917969 0.02707031 2.27148438 0.04101562 C4.11879767 0.07631461 5.96574066 0.13012083 7.8125 0.1875 C7.8125 0.5175 7.8125 0.8475 7.8125 1.1875 C6.92046875 1.21328125 6.0284375 1.2390625 5.109375 1.265625 C3.93890625 1.32234375 2.7684375 1.3790625 1.5625 1.4375 C-0.17773438 1.50710938 -0.17773438 1.50710938 -1.953125 1.578125 C-5.70945423 2.2858392 -6.8813244 3.20143773 -9.1875 6.1875 C-11.96671467 12.99657593 -12.35412199 20.62282168 -10.0625 27.625 C-6.84067154 32.02816557 -3.75659567 33.9302712 1.625 34.8125 C3.2028125 34.998125 3.2028125 34.998125 4.8125 35.1875 C5.1425 35.8475 5.4725 36.5075 5.8125 37.1875 C1.12528181 37.56247746 -2.23625802 37.67209497 -6.5 35.5 C-10.39152409 32.15147927 -13.24743656 29.30860752 -14.1875 24.1875 C-14.75962596 15.86966877 -14.7186064 8.67332601 -10.09375 1.48828125 C-6.99936383 -0.62325686 -3.60467011 -0.12277916 0 0 Z " fill="#F0F0F0" transform="translate(233.1875,392.8125)"/>
<path d="M0 0 C1.44734566 0.47699653 2.89529189 0.95217357 4.34375 1.42578125 C13.61651892 4.46941611 22.82730729 7.66715667 32 11 C32 11.66 32 12.32 32 13 C25.59665635 11.40194295 19.35208221 9.48483896 13.12890625 7.30078125 C12.43469574 7.05939423 11.74048523 6.8180072 11.02523804 6.56930542 C8.14645794 5.56801742 5.26830306 4.5663086 2.40014648 3.53491211 C-7.72535124 -0.09372627 -17.23050938 -3.05792595 -28 0 C-27.67 -0.99 -27.34 -1.98 -27 -3 C-17.23149368 -5.52090486 -9.33139422 -3.18561252 0 0 Z " fill="#DADADA" transform="translate(344,165)"/>
<path d="M0 0 C0.66 0.33 1.32 0.66 2 1 C1.52949219 1.4125 1.05898437 1.825 0.57421875 2.25 C-5.06152988 7.47736105 -7.56937093 11.90902386 -8.375 19.5625 C-7.81767095 24.67134962 -6.4896974 28.46648797 -2.875 32.1875 C0.33590388 34.21176549 3.5917158 35.66091925 7.109375 37.0703125 C9 38 9 38 10 40 C2.78399888 39.54899993 -1.84813986 36.57125432 -7.375 32.0625 C-11.04815803 27.40041481 -11.45548234 22.27801422 -11.30859375 16.5234375 C-10.45352186 9.53133064 -6.77093392 5.28124192 -1.390625 1.03125 C-0.93171875 0.6909375 -0.4728125 0.350625 0 0 Z " fill="#E9E9E9" transform="translate(213,345)"/>
<path d="M0 0 C0 0.66 0 1.32 0 2 C2.83962421 2.9465414 4.70406529 3.14994224 7.6550293 3.20532227 C9.06615242 3.2352401 9.06615242 3.2352401 10.50578308 3.26576233 C11.51836685 3.28247482 12.53095062 3.29918732 13.57421875 3.31640625 C14.61318802 3.33718735 15.65215729 3.35796844 16.72261047 3.37937927 C20.04417253 3.44480656 23.36581416 3.50372821 26.6875 3.5625 C28.9381593 3.60569169 31.18881052 3.64930619 33.43945312 3.69335938 C38.9595511 3.80048098 44.47972837 3.90226016 50 4 C50 4.33 50 4.66 50 5 C27.89 5 5.78 5 -17 5 C-16 3 -16 3 -13.92578125 2.1484375 C-9.17052631 0.74105263 -5.01830661 -0.3961821 0 0 Z " fill="#F9F9F9" transform="translate(294,236)"/>
<path d="M0 0 C0.66 0.33 1.32 0.66 2 1 C-8.07742848 6.9811321 -18.14460949 12.88223567 -28.875 17.625 C-29.59220215 17.94275391 -30.3094043 18.26050781 -31.04833984 18.58789062 C-36.83889351 21.07521838 -42.54039341 23.32183405 -48.9375 23.125 C-50.09572266 23.09792969 -50.09572266 23.09792969 -51.27734375 23.0703125 C-51.84582031 23.04710937 -52.41429687 23.02390625 -53 23 C-53 22.67 -53 22.34 -53 22 C-52.030625 21.79246094 -51.06125 21.58492187 -50.0625 21.37109375 C-33.48181524 17.63866333 -19.37568934 10.40860759 -4.73901367 1.92041016 C-3 1 -3 1 0 0 Z " fill="#F1F1F1" transform="translate(314,164)"/>
<path d="M0 0 C-2 2 -2 2 -4.25 2.6875 C-8.62138084 4.77384086 -11.8373313 8.6746626 -14 13 C-14.09720427 14.93550864 -14.12977914 16.87455792 -14.125 18.8125 C-14.12757813 19.85019531 -14.13015625 20.88789063 -14.1328125 21.95703125 C-14.00982632 24.77486177 -13.74998384 27.28252609 -13 30 C-11.21771064 31.14209817 -11.21771064 31.14209817 -9 32 C-6.25 34 -6.25 34 -4 36 C-4 36.66 -4 37.32 -4 38 C-9.5147489 36.2667932 -12.52266132 33.08865124 -15.8125 28.4375 C-17.9326616 22.3001901 -17.87372708 15.89422094 -16 9.6875 C-12.11556222 4.46778674 -6.85248131 -2.05574439 0 0 Z " fill="#E9E9E9" transform="translate(211,297)"/>
<path d="M0 0 C1.23415334 3.7495651 0.96117079 7.21134184 0.8125 11.125 C0.67484416 19.29125913 2.18762834 25.40641399 7.25 31.875 C10.09561023 34.07388063 12.87410457 35.61559256 16.1328125 37.10546875 C18 38 18 38 21 40 C14.92509085 40.77883451 10.85697093 38.33394372 6 35 C0.59435651 30.03265193 -1.69302763 22.5002337 -2.3203125 15.34765625 C-2.4028027 9.73243066 -2.41171934 5.1514325 0 0 Z " fill="#EDEDED" transform="translate(212,398)"/>
<path d="M0 0 C2.5 1.375 2.5 1.375 5 3 C5 3.66 5 4.32 5 5 C5.57363281 5.22816406 6.14726562 5.45632812 6.73828125 5.69140625 C9.61183183 7.35399597 11.13447159 9.33101403 13.1875 11.9375 C15.56110392 14.93285519 17.92708918 17.91468134 20.41015625 20.8203125 C25.92222506 27.28019949 31.55943365 33.88943039 32.3125 42.625 C32.1578125 43.800625 32.1578125 43.800625 32 45 C30.95140972 42.9265432 29.93011429 40.8484501 28.95703125 38.73828125 C25.99256538 32.45523242 22.46678293 27.30025873 18 22 C17.54109375 21.45230957 17.0821875 20.90461914 16.609375 20.34033203 C15.05802366 18.49260462 13.499644 16.65111047 11.9375 14.8125 C11.44306396 14.23016602 10.94862793 13.64783203 10.43920898 13.04785156 C7.93875325 10.1378991 5.38681053 7.36813228 2.62890625 4.69921875 C0 2 0 2 0 0 Z " fill="#E8E8E8" transform="translate(467,228)"/>
<path d="M0 0 C0.33 0.66 0.66 1.32 1 2 C1.72218719 1.99555878 2.44437439 1.99111755 3.18844604 1.98654175 C9.98666022 1.94650625 16.78485684 1.91603662 23.58315849 1.89637566 C27.07843927 1.88592802 30.57362283 1.87175117 34.06884766 1.84912109 C38.08497056 1.82328047 42.10099097 1.81353534 46.1171875 1.8046875 C48.00472244 1.78920364 48.00472244 1.78920364 49.9303894 1.77340698 C51.09144196 1.77325592 52.25249451 1.77310486 53.44873047 1.77294922 C54.47465302 1.768508 55.50057556 1.76406677 56.55758667 1.75949097 C59 2 59 2 61 4 C39.55 4 18.1 4 -4 4 C-2.68 2.68 -1.36 1.36 0 0 Z " fill="#FEFEFE" transform="translate(336,426)"/>
<path d="M0 0 C0.9964415 1.95807282 1.96103698 3.90877853 2.82421875 5.9296875 C6.0285726 13.15035817 11.12878593 17.25206505 18 21 C16.91998769 23.4300277 15.86851272 25.14421186 14.0625 27.125 C11.21249223 31.0977381 10.20335851 35.30507856 9 40 C8.67 40 8.34 40 8 40 C7.3880576 32.65669115 9.99096184 28.01355723 14 22 C13.01 21.38125 12.02 20.7625 11 20.125 C10.01 19.42375 9.02 18.7225 8 18 C8 17.34 8 16.68 8 16 C7.01 15.67 6.02 15.34 5 15 C0.50529163 9.97650242 -0.1257356 6.66398704 0 0 Z " fill="#EDEDED" transform="translate(187,321)"/>
<path d="M0 0 C5.26172176 1.70232175 9.38253756 4.3473616 12.26953125 9.08203125 C15.62819506 16.04858833 15.71926448 21.25731164 13.375 28.625 C11.45928162 33.63481029 9.44606314 36.06964021 5 39 C5 35.42569631 5.57148438 35.06212591 7.9375 32.5625 C12.03072834 28.23703175 12.32950081 24.17849708 12.30078125 18.38671875 C11.87832269 15.03448267 10.55919513 12.52361662 8.875 9.62890625 C8 8 8 8 8 6 C5.36095629 4.58622659 2.92879371 3.62759865 0 3 C0 2.01 0 1.02 0 0 Z " fill="#DEDEDE" transform="translate(330,296)"/>
<path d="M0 0 C4.99645246 1.27816226 7.72687235 2.99951065 11 7 C13.82917103 12.52361963 13.75837845 18.94813993 13 25 C11.24741921 30.0555215 9.50519556 33.99653629 5 37 C5 32.98905773 6.76100999 31.25671275 9 28 C11.0010069 21.99697929 10.91020343 15.19965828 8.5 9.375 C7.7575 8.199375 7.7575 8.199375 7 7 C7 6.34 7 5.68 7 5 C4.03 4.01 1.06 3.02 -2 2 C-1.34 1.34 -0.68 0.68 0 0 Z " fill="#E0E0E0" transform="translate(332,344)"/>
<path d="M0 0 C0.66 0.33 1.32 0.66 2 1 C-5.63222344 9.17864129 -17.72944158 14.29076816 -28.82421875 15.2421875 C-30.88438466 15.24865584 -32.94454235 15.13935306 -35 15 C-35 14.67 -35 14.34 -35 14 C-33.5459375 13.70609375 -33.5459375 13.70609375 -32.0625 13.40625 C-20.42212198 10.87286794 -9.95366412 6.63577608 0 0 Z " fill="#DDDDDD" transform="translate(472,421)"/>
<path d="M0 0 C2.78717889 0.08197585 4.51752767 0.56235395 6.59765625 2.44921875 C11.20348258 7.66613751 13.28613424 11.91768871 13.25 19 C13.25515625 20.010625 13.2603125 21.02125 13.265625 22.0625 C12.99363426 25.0703976 12.26321118 27.27306793 11 30 C10.34 29.67 9.68 29.34 9 29 C9.10699219 28.24976563 9.21398437 27.49953125 9.32421875 26.7265625 C10.15714686 19.61532679 10.13887667 13.56423811 7 7 C4.91311487 4.58652012 2.90847422 3.30379879 0 2 C0 1.34 0 0.68 0 0 Z " fill="#F2F2F2" transform="translate(324,250)"/>
<path d="M0 0 C1.7325 0.4640625 1.7325 0.4640625 3.5 0.9375 C10.55670372 2.53460309 17.79597415 2.66410677 25 3 C25 3.33 25 3.66 25 4 C24.41959961 3.99476318 23.83919922 3.98952637 23.24121094 3.98413086 C6.47095892 3.85510379 -10.24508805 4.2975193 -27 5 C-24.39911378 2.39911378 -23.17862887 2.70037775 -19.5546875 2.5859375 C-18.47832031 2.54726562 -17.40195313 2.50859375 -16.29296875 2.46875 C-15.16503906 2.4378125 -14.03710938 2.406875 -12.875 2.375 C-11.73933594 2.33632812 -10.60367188 2.29765625 -9.43359375 2.2578125 C-6.62256044 2.16332399 -3.81153767 2.07776459 -1 2 C-0.67 1.34 -0.34 0.68 0 0 Z " fill="#F7F7F7" transform="translate(251,237)"/>
<path d="M0 0 C6.6 0 13.2 0 20 0 C21.98 8.91 23.96 17.82 26 27 C25.34 27 24.68 27 24 27 C23.68977905 25.97845825 23.68977905 25.97845825 23.37329102 24.9362793 C22.43677714 21.85322618 21.49964576 18.7703611 20.5625 15.6875 C20.07426758 14.0797168 20.07426758 14.0797168 19.57617188 12.43945312 C19.26357422 11.41142578 18.95097656 10.38339844 18.62890625 9.32421875 C18.34088135 8.37635498 18.05285645 7.42849121 17.75610352 6.4519043 C17.19348373 4.62743205 16.60375823 2.81127469 16 1 C8.08 1.495 8.08 1.495 0 2 C0 1.34 0 0.68 0 0 Z " fill="#CDCDCD" transform="translate(336,248)"/>
<path d="M0 0 C0 0.99 0 1.98 0 3 C-1.609375 4.359375 -1.609375 4.359375 -3.75 5.75 C-9.68053147 9.9831002 -11.98594445 15.03472457 -14 22 C-14.27821125 24.45140859 -14.48557345 26.91179765 -14.625 29.375 C-14.69976562 30.62023437 -14.77453125 31.86546875 -14.8515625 33.1484375 C-14.90054688 34.08945312 -14.94953125 35.03046875 -15 36 C-18.01082923 31.48375615 -17.54883024 27.29378032 -17 22 C-14.88838402 13.37651438 -9.90962429 6.46755922 -2.5625 1.5 C-1.2940625 0.7575 -1.2940625 0.7575 0 0 Z " fill="#F5F5F5" transform="translate(202,289)"/>
<path d="M0 0 C0.66 0.33 1.32 0.66 2 1 C-2.51693852 4.88958595 -2.51693852 4.88958595 -5.1875 5.5 C-7.16479522 5.82860964 -7.16479522 5.82860964 -8.125 7.75 C-8.41375 8.4925 -8.7025 9.235 -9 10 C-9.3403125 10.75023437 -9.680625 11.50046875 -10.03125 12.2734375 C-11.88891787 17.5018737 -12.23414678 24.0514736 -10.06640625 29.23046875 C-9.07486857 30.83957315 -8.04066252 32.42222134 -7 34 C-7.33 34.99 -7.66 35.98 -8 37 C-12.60366766 31.5906905 -13.51502976 27.28711227 -13.5625 20.375 C-13.57667969 19.64676025 -13.59085938 18.91852051 -13.60546875 18.16821289 C-13.49758698 12.2448292 -11.57995132 8.65564672 -7.40234375 4.35546875 C-4.9370613 2.38981688 -3.01480266 1.00493422 0 0 Z " fill="#E6E6E6" transform="translate(224,249)"/>
<path d="M0 0 C-1.9969261 1.56901337 -3.79381863 2.90903763 -6.125 3.9375 C-8.63068933 5.35739062 -9.13031528 6.24599839 -10 9 C-10.53542811 15.31805175 -9.28396966 20.12693517 -7 26 C-10 25 -10 25 -11.6875 22.6875 C-13.56281945 17.41874535 -13.83225068 12.53068407 -13 7 C-9.97712259 1.05500777 -6.33276281 -0.13766876 0 0 Z " fill="#F7F7F7" transform="translate(257,197)"/>
<path d="M0 0 C-4.84588558 1.90034729 -9.72837255 3.60396044 -14.6875 5.1875 C-15.76386719 5.53167969 -16.84023438 5.87585938 -17.94921875 6.23046875 C-20.78756068 6.94641415 -23.09234254 7.15644168 -26 7 C-26.33 6.34 -26.66 5.68 -27 5 C-23.25414902 3.96350499 -19.50278991 2.9485563 -15.75 1.9375 C-14.68652344 1.64294922 -13.62304688 1.34839844 -12.52734375 1.04492188 C-11.50253906 0.77099609 -10.47773438 0.49707031 -9.421875 0.21484375 C-8.47924805 -0.04176025 -7.53662109 -0.29836426 -6.56542969 -0.56274414 C-3.96719613 -1.00559114 -2.46392487 -0.85426202 0 0 Z " fill="#E3E3E3" transform="translate(320,230)"/>
<path d="M0 0 C4.95 0 9.9 0 15 0 C15 0.33 15 0.66 15 1 C11.7 1.33 8.4 1.66 5 2 C5.495 3.52625 5.99 5.0525 6.5 6.625 C8.3899795 13.43070082 8.27636171 19.98860112 8 27 C7.67 27 7.34 27 7 27 C6.97421875 26.17757813 6.9484375 25.35515625 6.921875 24.5078125 C6.44483644 15.11882635 4.15950017 8.31900033 0 0 Z " fill="#F9F9F9" transform="translate(337,249)"/>
<path d="M0 0 C-2.29935131 3.21909183 -5.0424095 3.66113191 -8.80297852 4.33081055 C-9.54862061 4.44851807 -10.2942627 4.56622559 -11.0625 4.6875 C-12.20126587 4.87856323 -12.20126587 4.87856323 -13.36303711 5.07348633 C-18.96602087 5.96287724 -24.32259066 6.27035283 -30 6 C-30 5.67 -30 5.34 -30 5 C-24.08830659 3.3771822 -18.22305192 2.38617653 -12.1484375 1.5625 C-8.94485151 1.0765259 -8.94485151 1.0765259 -5.7890625 -0.125 C-3 -1 -3 -1 0 0 Z " fill="#E0E0E0" transform="translate(283,191)"/>
<path d="M0 0 C0.33 0 0.66 0 1 0 C1.02578125 0.67804688 1.0515625 1.35609375 1.078125 2.0546875 C1.5520842 9.83192714 3.53164207 16.06328414 7 23 C4.69 23.66 2.38 24.32 0 25 C0.495 23.515 0.495 23.515 1 22 C1.66 22 2.32 22 3 22 C2.505 21.154375 2.01 20.30875 1.5 19.4375 C-1.14137937 13.4602941 -0.22248869 6.40272999 0 0 Z " fill="#EFEFEF" transform="translate(203,266)"/>
<path d="M0 0 C7.44379088 2.23313726 14.11976695 5.40272079 21 9 C20.67 9.66 20.34 10.32 20 11 C15.26210835 9.55676531 11.01141849 7.62773267 6.625 5.375 C5.98433594 5.05015625 5.34367187 4.7253125 4.68359375 4.390625 C3.12052499 3.59742593 1.55999378 2.79922969 0 2 C0 1.34 0 0.68 0 0 Z " fill="#E9E9E9" transform="translate(400,195)"/>
<path d="M0 0 C0.66 0 1.32 0 2 0 C2 0.66 2 1.32 2 2 C2.8353125 2.4021875 2.8353125 2.4021875 3.6875 2.8125 C6 4 6 4 8.09375 5.5 C11.96092033 7.49595888 15.52161917 7.79545808 19.8125 8.1875 C20.60076172 8.26935547 21.38902344 8.35121094 22.20117188 8.43554688 C24.13302376 8.63458616 26.06639413 8.81879107 28 9 C28 9.33 28 9.66 28 10 C10.48631736 10.60858357 10.48631736 10.60858357 2.5625 4.4375 C1.716875 3.633125 0.87125 2.82875 0 2 C0 1.34 0 0.68 0 0 Z " fill="#DEDEDE" transform="translate(249,223)"/>
<path d="M0 0 C0.66 0.33 1.32 0.66 2 1 C-4.27 4.63 -10.54 8.26 -17 12 C-17 11.01 -17 10.02 -17 9 C-14.73103368 7.68417937 -12.45996813 6.37224764 -10.1875 5.0625 C-9.54490234 4.68931641 -8.90230469 4.31613281 -8.24023438 3.93164062 C-5.51683576 2.36533365 -2.98891878 0.99630626 0 0 Z " fill="#EAEAEA" transform="translate(314,164)"/>
<path d="M0 0 C0 4.92745075 -3.68086383 7.60021193 -7 11 C-9.60508221 13.41026736 -12.27081874 15.7315896 -15 18 C-15.66 17.67 -16.32 17.34 -17 17 C-11.33333333 11.33333333 -5.66666667 5.66666667 0 0 Z " fill="#F0F0F0" transform="translate(490,405)"/>
<path d="M0 0 C1.00098698 1.9712419 1.97329198 3.93893576 2.859375 5.96484375 C5.13186965 10.99822007 7.53433471 13.75224343 12 17 C11.67 17.66 11.34 18.32 11 19 C10.01 18.67 9.02 18.34 8 18 C8 17.34 8 16.68 8 16 C7.01 15.67 6.02 15.34 5 15 C0.50529163 9.97650242 -0.1257356 6.66398704 0 0 Z " fill="#E7E7E7" transform="translate(187,321)"/>
<path d="M0 0 C0.556875 0.721875 1.11375 1.44375 1.6875 2.1875 C3.9837597 4.98024828 6.41263695 7.47732103 9 10 C10.33333333 11.33333333 11.66666667 12.66666667 13 14 C7.20979674 13.50369686 4.83783607 10.0913307 1.1875 5.9375 C0 4 0 4 0 0 Z " fill="#E4E4E4" transform="translate(240,223)"/>
<path d="M0 0 C4.97923913 1.27375885 7.74514561 3.0011789 11 7 C11.8125 9.8125 11.8125 9.8125 12 12 C11.34 12 10.68 12 10 12 C7 7.61538462 7 7.61538462 7 5 C4.03 4.01 1.06 3.02 -2 2 C-1.34 1.34 -0.68 0.68 0 0 Z " fill="#E7E7E7" transform="translate(332,344)"/>
<path d="M0 0 C5.67212414 1.83509899 9.68463608 5.02695413 13 10 C13 10.99 13 11.98 13 13 C12.34 13 11.68 13 11 13 C8 8.61538462 8 8.61538462 8 6 C5.36095629 4.58622659 2.92879371 3.62759865 0 3 C0 2.01 0 1.02 0 0 Z " fill="#E6E6E6" transform="translate(330,296)"/>
<path d="M0 0 C0.33 0 0.66 0 1 0 C2.7629257 15.12292889 2.7629257 15.12292889 -1 22 C-3.1875 24 -3.1875 24 -5 25 C-3 20 -3 20 -1.96875 17.8125 C-0.75472127 14.28790047 -0.5444947 10.87754085 -0.375 7.1875 C-0.31699219 6.14819336 -0.31699219 6.14819336 -0.2578125 5.08789062 C-0.16426432 3.39232985 -0.08107636 1.69620288 0 0 Z " fill="#C8C8C8" transform="translate(343,263)"/>
<path d="M0 0 C2.6875 2.5 2.6875 2.5 4 5 C1.68143119 4.46494566 -0.4116911 3.83336313 -2.625 2.9375 C-7.12778419 1.68672661 -11.35797898 1.83486882 -16 2 C-16 1.67 -16 1.34 -16 1 C-10.67784418 -0.17840837 -5.42493934 -0.78452969 0 0 Z " fill="#EFEFEF" transform="translate(324,392)"/>
<path d="M0 0 C0.33 0 0.66 0 1 0 C2.59832366 13.15377176 2.59832366 13.15377176 0 19 C-0.99 19.33 -1.98 19.66 -3 20 C-2.690625 19.113125 -2.38125 18.22625 -2.0625 17.3125 C-0.42489586 11.69122053 -0.33225589 5.81447802 0 0 Z " fill="#CFCFCF" transform="translate(351,311)"/>
<path d="M0 0 C1.95903745 0.47627975 3.91721097 0.95611423 5.875 1.4375 C6.96554687 1.70433594 8.05609375 1.97117188 9.1796875 2.24609375 C12 3 12 3 14 4 C14 4.66 14 5.32 14 6 C8.83805777 5.04408477 4.30837002 4.19653259 0 1 C0 0.67 0 0.34 0 0 Z " fill="#E6E6E6" transform="translate(345,166)"/>
<path d="M0 0 C0.66 0.66 1.32 1.32 2 2 C-3.2894914 5.28806222 -6.74908765 6.11794174 -13 6 C-10.31498843 4.20999229 -8.39919848 3.3782523 -5.375 2.4375 C-2.42831448 1.661214 -2.42831448 1.661214 0 0 Z " fill="#EFEFEF" transform="translate(335,379)"/>
<path d="M0 0 C3.43752007 1.5277867 6.18953688 3.50181056 9 6 C9 6.66 9 7.32 9 8 C5.56801397 6.76067171 2.69674368 5.49698489 0 3 C0 2.01 0 1.02 0 0 Z " fill="#E3E3E3" transform="translate(198,327)"/>
<path d="M0 0 C2 3 2 3 1.4375 5.875 C-0.18168908 9.39497625 -2.13055032 11.43259766 -5 14 C-4.731875 13.360625 -4.46375 12.72125 -4.1875 12.0625 C-2.64635858 8.08797739 -1.32390688 4.05115505 0 0 Z " fill="#E0E0E0" transform="translate(339,414)"/>
<path d="M0 0 C0.33 0 0.66 0 1 0 C1.08069658 2.95887459 1.14034665 5.9155659 1.1875 8.875 C1.22520508 10.13763672 1.22520508 10.13763672 1.26367188 11.42578125 C1.27333984 12.23144531 1.28300781 13.03710938 1.29296875 13.8671875 C1.3086792 14.61081543 1.32438965 15.35444336 1.34057617 16.12060547 C1.17199097 17.05090576 1.17199097 17.05090576 1 18 C0.01 18.66 -0.98 19.32 -2 20 C-1.34 13.4 -0.68 6.8 0 0 Z " fill="#C9C9C9" transform="translate(351,357)"/>
<path d="M0 0 C2.5 1.375 2.5 1.375 5 3 C5 3.66 5 4.32 5 5 C5.639375 5.2475 6.27875 5.495 6.9375 5.75 C9 7 9 7 9.62890625 9.078125 C9.81259766 10.02945313 9.81259766 10.02945313 10 11 C8.8944811 10.06409496 7.79064547 9.12620142 6.6875 8.1875 C6.07261719 7.66542969 5.45773437 7.14335937 4.82421875 6.60546875 C1.48047722 3.6626898 1.48047722 3.6626898 0 2 C0 1.34 0 0.68 0 0 Z " fill="#F9F9F9" transform="translate(467,228)"/>
<path d="M0 0 C-3.64859761 3.04049801 -7.7444533 4.96518762 -12 7 C-9.22698119 1.11341622 -6.59891686 -0.44992615 0 0 Z " fill="#EAEAEA" transform="translate(257,197)"/>
<path d="M0 0 C1 3 1 3 -0.1875 6.5625 C-1.94478806 9.8952877 -2.50915788 10.91663521 -6 12 C-4.43358249 7.69235185 -2.31663844 3.93828536 0 0 Z " fill="#E7E7E7" transform="translate(494,395)"/>
<path d="M0 0 C5.28 0 10.56 0 16 0 C16 0.33 16 0.66 16 1 C14.67935547 1.07347656 14.67935547 1.07347656 13.33203125 1.1484375 C11.58986328 1.26058594 11.58986328 1.26058594 9.8125 1.375 C8.66394531 1.44460938 7.51539063 1.51421875 6.33203125 1.5859375 C3.20040883 1.97509574 0.84714191 2.6809851 -2 4 C-1.34 2.68 -0.68 1.36 0 0 Z " fill="#FDFDFD" transform="translate(225,393)"/>
<path d="M0 0 C0.33 0 0.66 0 1 0 C1.05441656 1.89551022 1.09298035 3.7914792 1.125 5.6875 C1.14820313 6.74324219 1.17140625 7.79898437 1.1953125 8.88671875 C0.99858729 12.02251859 0.33057654 14.17645373 -1 17 C-1.66 16.67 -2.32 16.34 -3 16 C-2.5359375 14.824375 -2.5359375 14.824375 -2.0625 13.625 C-0.73664193 9.10148422 -0.35188915 4.68568186 0 0 Z " fill="#D4D4D4" transform="translate(336,263)"/>
<path d="M0 0 C0.33 0 0.66 0 1 0 C1.06058594 0.73605469 1.12117187 1.47210938 1.18359375 2.23046875 C1.26738281 3.20628906 1.35117188 4.18210937 1.4375 5.1875 C1.51871094 6.15042969 1.59992188 7.11335938 1.68359375 8.10546875 C1.97666151 10.78649602 2.42703754 13.3662986 3 16 C2.01 15.67 1.02 15.34 0 15 C0 10.05 0 5.1 0 0 Z " fill="#D1D1D1" transform="translate(203,266)"/>
<path d="M0 0 C2 1 2 1 2.8515625 3.06640625 C3.10679687 3.89011719 3.36203125 4.71382812 3.625 5.5625 C3.88539063 6.38878906 4.14578125 7.21507812 4.4140625 8.06640625 C4.60742188 8.70449219 4.80078125 9.34257812 5 10 C2 9 2 9 0.25 6.125 C-1 3 -1 3 0 0 Z " fill="#EFEFEF" transform="translate(245,213)"/>
<path d="M0 0 C-0.33 0.99 -0.66 1.98 -1 3 C-2.84765625 3.73046875 -2.84765625 3.73046875 -5.0625 4.1875 C-5.79597656 4.34605469 -6.52945312 4.50460938 -7.28515625 4.66796875 C-8.13400391 4.83232422 -8.13400391 4.83232422 -9 5 C-8.67 4.01 -8.34 3.02 -8 2 C-5.10441559 0.5522078 -3.25811062 0 0 0 Z " fill="#F4F4F4" transform="translate(291,187)"/>
<path d="M0 0 C0.33 0.99 0.66 1.98 1 3 C-0.40445835 5.2636564 -2.1967913 7.0208685 -4 9 C-4.33 8.01 -4.66 7.02 -5 6 C-3.59554165 3.7363436 -1.8032087 1.9791315 0 0 Z " fill="#F3F3F3" transform="translate(483,398)"/>
<path d="M0 0 C2.32947183 2.11770166 3.88750845 4.03335588 5 7 C4.67 7.99 4.34 8.98 4 10 C0 4.5 0 4.5 0 0 Z " fill="#F3F3F3" transform="translate(361,275)"/>
<path d="M0 0 C2.96404505 2.80804268 5.44499019 5.18315774 7 9 C3.26955235 7.75651745 2.20459674 6.19286425 0 3 C0 2.01 0 1.02 0 0 Z " fill="#EFEFEF" transform="translate(485,247)"/>
<path d="M0 0 C1.24546405 2.49092811 0.7767578 3.41080733 0 6 C-1.65 5.67 -3.3 5.34 -5 5 C-3.35 3.35 -1.7 1.7 0 0 Z " fill="#F5F5F5" transform="translate(340,286)"/>
<path d="M0 0 C6.57142857 4 6.57142857 4 8 8 C1.42857143 4 1.42857143 4 0 0 Z " fill="#EDEDED" transform="translate(452,215)"/>
<path d="M0 0 C3.82097239 0.53069061 6.06171403 1.49701566 9 4 C8.67 4.99 8.34 5.98 8 7 C6.66382648 6.02471263 5.3311249 5.04466681 4 4.0625 C3.2575 3.51722656 2.515 2.97195312 1.75 2.41015625 C1.1725 1.94480469 0.595 1.47945312 0 1 C0 0.67 0 0.34 0 0 Z " fill="#DDDDDD" transform="translate(443,210)"/>
<path d="M0 0 C0.66 0 1.32 0 2 0 C2 1.98 2 3.96 2 6 C0.68 5.34 -0.64 4.68 -2 4 C-1.34 2.68 -0.68 1.36 0 0 Z " fill="#E5E5E5" transform="translate(335,389)"/>
<path d="M0 0 C2.9375 0.8125 2.9375 0.8125 6 2 C6.33 2.99 6.66 3.98 7 5 C4.03 4.01 1.06 3.02 -2 2 C-1.34 1.34 -0.68 0.68 0 0 Z " fill="#EDEDED" transform="translate(332,344)"/>
<path d="M0 0 C0.33 0.99 0.66 1.98 1 3 C-0.62339805 4.70884005 -2.29319053 6.37446717 -4 8 C-4.66 8 -5.32 8 -6 8 C-6 6 -6 6 -3.5625 3.4375 C-2.716875 2.633125 -1.87125 1.82875 -1 1 C-0.67 0.67 -0.34 0.34 0 0 Z " fill="#F0F0F0" transform="translate(333,279)"/>
</svg>
