<?xml version="1.0" encoding="UTF-8"?>
<svg version="1.1" xmlns="http://www.w3.org/2000/svg" width="600" height="600">
<path d="M0 0 C3.74042025 1.85234188 7.59810763 3.39360736 11.46484375 4.9609375 C14.26928375 6.13770252 16.97322422 7.43899659 19.703125 8.77734375 C27.28589766 12.27708498 35.45856405 13.9152564 43.5871582 15.67749023 C47.357304 16.53748542 50.34926664 17.31239047 53.265625 19.90234375 C53.80832031 20.35996094 54.35101563 20.81757813 54.91015625 21.2890625 C59.1684431 26.60383571 59.98074225 31.94208124 59.890625 38.52734375 C59.88667725 39.27064941 59.88272949 40.01395508 59.87866211 40.77978516 C59.71930074 46.90752986 58.26885717 51.76430999 55.453125 57.21484375 C55.123125 58.20484375 54.793125 59.19484375 54.453125 60.21484375 C58.97360414 60.37243472 63.49452055 60.51411866 68.015625 60.65234375 C68.7572287 60.67573822 69.4988324 60.69913269 70.26290894 60.72323608 C82.13872158 61.08979354 94.01125502 61.26272603 105.89184761 61.34584618 C108.27166607 61.36332562 110.65144629 61.38346045 113.03123474 61.40461731 C114.21951543 61.41517418 114.21951543 61.41517418 115.4318018 61.42594433 C117.04105267 61.4403459 118.65030243 61.45487333 120.25955105 61.46952534 C125.07461875 61.51174342 129.88939967 61.53627402 134.7046299 61.54896164 C137.77657031 61.56121174 140.84821327 61.58989539 143.91999817 61.62253189 C145.35922749 61.63440456 146.79853183 61.63951149 148.23780823 61.6371727 C158.12532465 61.62549591 167.43735345 62.15953909 175.390625 68.58984375 C176.07125 69.45609375 176.751875 70.32234375 177.453125 71.21484375 C178.154375 72.10171875 178.855625 72.98859375 179.578125 73.90234375 C185.30691015 84.02319751 185.60594572 93.93339666 182.9296875 105.0703125 C182.65463379 106.2255542 182.37958008 107.3807959 182.09619141 108.57104492 C181.88397949 109.44349854 181.67176758 110.31595215 181.453125 111.21484375 C182.76132202 111.32759644 182.76132202 111.32759644 184.09594727 111.44262695 C187.36026684 111.72964063 190.62327594 112.02721715 193.88598633 112.33178711 C195.29283482 112.46097267 196.70006719 112.5860513 198.10766602 112.70678711 C200.14196008 112.88202052 202.17437224 113.07244336 204.20703125 113.265625 C205.42720947 113.37559814 206.6473877 113.48557129 207.90454102 113.59887695 C213.30596888 114.53646226 218.35241142 116.44218725 222.453125 120.21484375 C222.453125 120.87484375 222.453125 121.53484375 222.453125 122.21484375 C223.113125 122.21484375 223.773125 122.21484375 224.453125 122.21484375 C225.27149942 123.62812504 226.08258719 125.04562721 226.890625 126.46484375 C227.34308594 127.25375 227.79554688 128.04265625 228.26171875 128.85546875 C232.1797859 136.61452632 231.80082262 149.07538597 229.265625 157.33984375 C226.47363332 164.08498253 222.74383056 168.5574568 216.453125 172.21484375 C216.89810828 175.24073005 217.57460382 177.45780139 218.953125 180.21484375 C223.28160069 188.87179514 222.49028794 200.51042532 219.69140625 209.5703125 C216.84729534 215.64432855 211.94341398 221.42923168 205.765625 224.27734375 C199.55808991 226.0341933 193.66211652 226.38053365 187.2578125 226.4609375 C185.47265088 226.49385061 183.68749475 226.52706265 181.90234375 226.56054688 C179.10664318 226.60806935 176.3109688 226.65258348 173.51513672 226.69165039 C170.80414293 226.73134318 168.09357266 226.78286089 165.3828125 226.8359375 C164.12958694 226.84855873 164.12958694 226.84855873 162.8510437 226.86143494 C157.37290604 226.94196446 157.37290604 226.94196446 152.453125 229.21484375 C152.87464844 229.80652344 153.29617188 230.39820313 153.73046875 231.0078125 C154.55224609 232.19310547 154.55224609 232.19310547 155.390625 233.40234375 C156.20853516 234.56830078 156.20853516 234.56830078 157.04296875 235.7578125 C160.09977088 241.08393034 160.30589298 247.57176876 158.921875 253.484375 C155.4324452 264.61641463 149.82620601 270.7064108 139.88606262 276.78453064 C135.46952533 278.62465472 131.63360752 278.7762577 126.89331055 278.89672852 C125.50532399 278.94643594 125.50532399 278.94643594 124.08929729 278.99714756 C114.19730734 279.32031546 104.30623009 279.34146952 94.41015625 279.3046875 C92.32436674 279.30059901 90.23857669 279.29678012 88.15278625 279.29319763 C80.91951584 279.27759349 73.68633639 279.24745599 66.453125 279.21484375 C65.77251731 279.21181653 65.09190962 279.20878931 64.39067745 279.20567036 C42.16479376 279.1065467 19.93917848 278.97182888 -2.28644168 278.82600439 C-8.18354299 278.78757299 -14.08065683 278.75188227 -19.9777832 278.7175293 C-84.65496565 278.33952831 -84.65496565 278.33952831 -111.38671875 277.7578125 C-112.25103327 277.74018923 -113.11534779 277.72256596 -114.00585365 277.70440865 C-140.21505003 277.15219459 -168.31364737 275.58748454 -189.546875 258.21484375 C-189.546875 257.55484375 -189.546875 256.89484375 -189.546875 256.21484375 C-190.1346875 255.97765625 -190.7225 255.74046875 -191.328125 255.49609375 C-198.31415725 251.46190611 -202.36796944 241.67594462 -204.546875 234.21484375 C-207.34719654 222.5074754 -207.23014765 210.18630963 -207.546875 198.21484375 C-207.57023926 197.43383301 -207.59360352 196.65282227 -207.61767578 195.84814453 C-207.98045769 182.16303529 -207.1049481 168.51557733 -206.32006836 154.85913086 C-205.82793141 146.09652029 -205.4751808 137.35887096 -205.40234375 128.58203125 C-205.3922377 127.71377213 -205.38213165 126.845513 -205.37171936 125.95094299 C-205.32362403 121.80241055 -205.30087496 117.65726129 -205.32836914 113.50854492 C-205.25023726 95.0936396 -198.20930833 79.88848086 -185.640625 66.4609375 C-183.99436466 64.69489329 -182.47277746 62.92304554 -180.984375 61.02734375 C-150.2467105 25.56080779 -102.47259063 7.88865476 -58.60058594 -3.95800781 C-56.6280499 -4.49230203 -54.65720009 -5.03287919 -52.68847656 -5.58105469 C-31.9814642 -11.34165211 -19.08253266 -9.8887959 0 0 Z M-49.546875 4.21484375 C-50.58328125 4.52808594 -51.6196875 4.84132812 -52.6875 5.1640625 C-54.86837692 5.83044156 -57.04673574 6.50511073 -59.22265625 7.1875 C-62.50648667 8.20236181 -65.80184441 9.15535973 -69.109375 10.08984375 C-75.03246747 11.77646425 -80.95078768 13.47801928 -86.859375 15.21484375 C-87.6831665 15.45187012 -88.50695801 15.68889648 -89.35571289 15.93310547 C-94.98737919 17.60036393 -100.23059772 19.72994252 -105.546875 22.21484375 C-107.0845326 22.90778028 -108.62229427 23.60048592 -110.16015625 24.29296875 C-119.5235 28.58946157 -128.17576405 33.15575392 -136.546875 39.21484375 C-137.62839844 39.9625 -138.70992187 40.71015625 -139.82421875 41.48046875 C-146.45494861 46.08211253 -152.83684331 50.94837947 -159.109375 56.02734375 C-159.77614258 56.56641357 -160.44291016 57.1054834 -161.12988281 57.66088867 C-164.8083338 60.67405804 -168.22239956 63.80697846 -171.546875 67.21484375 C-172.33707031 67.94703125 -173.12726563 68.67921875 -173.94140625 69.43359375 C-184.32931313 79.23413917 -191.81377368 91.1072371 -194.234375 105.33984375 C-194.36392578 106.01015625 -194.49347656 106.68046875 -194.62695312 107.37109375 C-195.57528679 112.77007272 -195.58861913 117.99820641 -195.53051758 123.46923828 C-195.54884462 127.66585744 -195.74519483 131.83075784 -195.984375 136.01953125 C-196.0759616 137.64867974 -196.16751331 139.27783019 -196.2590332 140.90698242 C-196.3064566 141.75022064 -196.35388 142.59345886 -196.40274048 143.46224976 C-197.27784373 159.41551364 -197.78264145 175.35814634 -197.84643555 191.33575439 C-197.85495483 193.35478499 -197.86849574 195.37380164 -197.88745117 197.39276123 C-198.05415836 217.14219925 -196.88935702 235.23321369 -182.546875 250.21484375 C-168.01855631 262.60584926 -146.48420743 266.20390831 -127.98510742 266.49609375 C-127.05528172 266.51415762 -126.12545601 266.53222149 -125.16745377 266.55083275 C-122.07914565 266.60968258 -118.99076589 266.66234623 -115.90234375 266.71484375 C-113.69685829 266.75528497 -111.49137845 266.79603313 -109.28590393 266.83706665 C-103.34010674 266.94629711 -97.39422065 267.04957235 -91.44828796 267.15113068 C-87.72571927 267.21499224 -84.00317727 267.28024037 -80.28063965 267.34588623 C-34.92693414 268.14377889 10.42722146 268.79622277 55.7866354 269.15154743 C61.72862148 269.19877803 67.67045283 269.25617275 73.61230469 269.31787109 C80.75051822 269.39152267 87.88865691 269.4500547 95.02715302 269.48805618 C98.61385464 269.50727729 102.20023008 269.53221929 105.78674316 269.57427979 C109.63648181 269.61896443 113.48594137 269.63154018 117.3359375 269.640625 C118.44379608 269.65808273 119.55165466 269.67554047 120.69308472 269.69352722 C128.84864446 269.67078016 135.17243226 267.83336177 141.765625 262.96484375 C146.34624059 258.27770221 148.6404115 253.81657323 149.015625 247.21484375 C148.74335108 241.10276358 146.17511918 236.95076118 141.92578125 232.6796875 C133.60156237 225.41452955 124.36921233 226.06595634 113.85229492 226.1171875 C112.14601929 226.1193779 112.14601929 226.1193779 110.40527344 226.12161255 C107.94719696 226.12540465 105.48912318 226.13150644 103.03105736 226.13967896 C99.14401578 226.15247403 95.25700843 226.15896573 91.36994934 226.16381836 C83.12682575 226.17488009 74.88372995 226.1944418 66.640625 226.21484375 C57.07093236 226.238493 47.50125905 226.25880672 37.93154335 226.27078247 C34.09644561 226.27727962 30.26139679 226.28978431 26.42631531 226.30249023 C24.08653812 226.3061211 21.74676047 226.30947304 19.40698242 226.3125 C18.3363002 226.31766632 17.26561798 226.32283264 16.16249084 226.32815552 C14.69696274 226.32826126 14.69696274 226.32826126 13.201828 226.32836914 C12.3521857 226.33058975 11.50254339 226.33281036 10.62715435 226.33509827 C8.453125 226.21484375 8.453125 226.21484375 5.453125 225.21484375 C5.453125 222.90484375 5.453125 220.59484375 5.453125 218.21484375 C20.90311432 218.08270083 36.35311734 217.95225608 51.80313683 217.82369232 C58.98106929 217.76392558 66.15899674 217.70365005 73.33691406 217.64208984 C81.63345057 217.57099707 89.92999953 217.50152763 98.2265625 217.43359375 C98.90022173 217.42805206 99.57388096 217.42251036 100.26795411 217.41680074 C117.62024486 217.27447072 134.97151826 217.15095544 152.32443237 217.2277832 C179.90021305 218.90959084 179.90021305 218.90959084 205.453125 211.21484375 C211.00338419 205.52227022 210.74042289 200.06572063 210.671875 192.4140625 C210.24938928 186.23520889 207.78975756 181.67902433 203.453125 177.21484375 C199.30599957 175.06172949 195.42412806 174.92836463 190.84872437 174.9498291 C190.09111175 174.94544783 189.33349914 174.94106656 188.55292857 174.93655252 C186.01878655 174.92424801 183.48485199 174.92603955 180.95068359 174.92773438 C179.1321736 174.92170933 177.3136664 174.91478488 175.49516296 174.9070282 C171.58174192 174.89214544 167.66837185 174.88339162 163.75492477 174.87931824 C157.5703394 174.87260638 151.38586328 174.85085531 145.20132446 174.82678223 C130.95970406 174.7736484 116.71805003 174.74025153 102.47637177 174.70702362 C89.41859038 174.67636101 76.3608559 174.64157064 63.30313551 174.59071302 C57.1513771 174.56732544 50.99969486 174.5536139 44.84789634 174.54721832 C41.02698236 174.54129398 37.20613048 174.52721052 33.38524818 174.51087379 C31.60947409 174.50498156 29.83368486 174.50252892 28.05790138 174.50371361 C25.639654 174.5048673 23.2217581 174.49390067 20.80355835 174.4798584 C20.09588204 174.48315737 19.38820573 174.48645635 18.65908468 174.48985529 C15.0262135 174.45487958 13.56760789 174.29116568 10.453125 172.21484375 C10.265625 169.08984375 10.265625 169.08984375 10.453125 166.21484375 C20.83610272 165.19727436 31.10398731 165.09582268 41.52490234 165.14892578 C43.30854154 165.15413021 45.09218225 165.15883605 46.87582397 165.16308594 C50.6903358 165.1729596 54.50482192 165.18578229 58.31931686 165.20080948 C64.35435776 165.2240259 70.38939547 165.23721992 76.42446899 165.24850464 C93.57647975 165.28181773 110.72844033 165.32369348 127.88037109 165.38623047 C137.37331471 165.4207583 146.86622235 165.44456108 156.35922205 165.4564389 C162.35608818 165.46452604 168.35271741 165.48574121 174.34950709 165.51664376 C178.07772445 165.53266231 181.805874 165.53606336 185.53412247 165.53587341 C187.25987016 165.53829231 188.98561964 165.54585704 190.71131897 165.55900192 C193.07089905 165.5762241 195.42977872 165.57480168 197.78939819 165.56887817 C199.10819159 165.57294237 200.42698498 165.57700657 201.78574181 165.58119392 C207.64486597 164.99590162 212.33303751 163.06777849 216.265625 158.52734375 C220.58076134 153.21342305 221.76945813 148.48582306 221.328125 141.71484375 C220.39268069 135.54941533 218.26528581 130.32217629 213.328125 126.33984375 C204.07407848 120.74881489 192.42183053 121.91456974 181.99389648 121.91186523 C180.24036777 121.90419322 178.4868427 121.89564481 176.73332214 121.8862915 C172.97604923 121.86809707 169.21882525 121.85600535 165.46151543 121.84875298 C159.52491275 121.83722576 153.58841875 121.81175598 147.65187073 121.78443909 C138.2717231 121.74289207 128.8915702 121.71042287 119.51137453 121.68196493 C102.68366757 121.63084149 85.85600529 121.56894101 69.02837616 121.49662453 C63.12110952 121.47166173 57.21385757 121.45225009 51.30655754 121.43724239 C47.64527676 121.42707441 43.98401897 121.41293023 40.32275581 121.39776611 C38.61869978 121.39158615 36.91463649 121.38714063 35.21057129 121.38450813 C32.89488999 121.38072461 30.57931137 121.37093631 28.26365662 121.35960388 C26.96493339 121.35574897 25.66621016 121.35189405 24.32813168 121.34792233 C21.453125 121.21484375 21.453125 121.21484375 20.453125 120.21484375 C20.41219563 117.88186942 20.41070777 115.5477915 20.453125 113.21484375 C35.29352213 113.08317183 50.13392974 112.95273366 64.97434998 112.82369232 C71.86783348 112.76372412 78.76131327 112.70337944 85.65478516 112.64208984 C92.32677405 112.58277058 98.99877196 112.52457795 105.67077637 112.46702576 C108.19641436 112.44506465 110.72204927 112.42274706 113.24768066 112.40003967 C116.82787295 112.36791642 120.40807555 112.33722757 123.98828125 112.30664062 C125.12006805 112.29599831 126.25185486 112.28535599 127.41793823 112.27439117 C133.04004577 112.22685367 138.65866748 112.21590995 144.28076172 112.27172852 C145.37255234 112.28031136 146.46434296 112.2888942 147.58921814 112.29773712 C149.63534792 112.31607634 151.68142833 112.34269421 153.72731018 112.37944794 C159.55240685 112.42777603 165.35328212 112.45955756 170.265625 108.90234375 C174.54916734 102.81520464 174.83302199 94.84395898 174.2421875 87.64453125 C173.26950039 82.23051808 171.43394959 79.01051371 167.453125 75.21484375 C161.27642402 71.88892784 154.23548518 72.05970568 147.39257812 72.02539062 C146.49520998 72.01707466 145.59784184 72.0087587 144.67328072 72.00019073 C141.6936648 71.9736111 138.71404134 71.95365633 135.734375 71.93359375 C133.62429414 71.91582874 131.51421722 71.89758991 129.40414429 71.87890625 C124.91786303 71.83989518 120.43157158 71.80353695 115.94525146 71.76928711 C105.43599573 71.68861597 94.92687809 71.592411 84.41775131 71.49659729 C82.08929452 71.47540022 79.76083636 71.45435366 77.43237686 71.43345642 C50.10767862 71.18792471 22.78697834 70.81659022 -4.53356934 70.27410889 C-7.49141894 70.21593445 -10.44931111 70.16066855 -13.40722656 70.10595703 C-17.76830344 70.02405197 -22.12903401 69.93214598 -26.48968506 69.83007812 C-27.98364363 69.7959314 -29.477664 69.76435196 -30.97174072 69.73583984 C-38.70784459 69.58393173 -46.02442083 69.09765813 -53.546875 67.21484375 C-54.671875 61.46484375 -54.671875 61.46484375 -53.546875 59.21484375 C-40.27791353 52.59285733 -27.46291646 53.82398213 -13.234375 56.15234375 C0.03762705 58.21697714 12.99447554 59.6160501 26.453125 59.21484375 C27.42507813 59.18648437 28.39703125 59.158125 29.3984375 59.12890625 C35.49477325 58.7800696 39.58070043 57.99345873 44.453125 54.21484375 C48.25251074 49.29236914 50.81496463 43.47251409 50.328125 37.21484375 C49.666898 33.15413203 48.10378164 30.39563171 45.453125 27.21484375 C42.64894949 25.55467686 39.95713052 24.75315191 36.78515625 24.06640625 C35.89119141 23.8653125 34.99722656 23.66421875 34.07617188 23.45703125 C32.22274031 23.05002335 30.3685836 22.64630181 28.51367188 22.24609375 C22.43012286 20.87000106 17.07280628 18.89589564 11.453125 16.21484375 C9.66451454 15.47821217 7.87318048 14.74812756 6.078125 14.02734375 C-0.43982419 11.33753031 -6.78405996 8.30506052 -13.13623047 5.24926758 C-13.92271973 4.87181396 -14.70920898 4.49436035 -15.51953125 4.10546875 C-16.22343994 3.76547852 -16.92734863 3.42548828 -17.65258789 3.07519531 C-27.46230761 -1.38020516 -39.67827466 1.14722327 -49.546875 4.21484375 Z " fill="#0B0B0B" transform="translate(287.546875,148.78515625)"/>
<path d="M0 0 C0.53625 0.226875 1.0725 0.45375 1.625 0.6875 C0.14966797 1.32751953 0.14966797 1.32751953 -1.35546875 1.98046875 C-24.64115222 12.35434755 -45.42441641 26.8860217 -63.91015625 44.3828125 C-65.88471631 46.22907309 -67.87345103 47.90251489 -70 49.5625 C-80.60824248 58.61831675 -90.36104195 73.83491356 -92.375 87.6875 C-92.6655897 92.34717182 -92.76855983 97.00373923 -92.83914185 101.67071533 C-92.90135456 105.71194758 -92.9936461 109.75241984 -93.08984375 113.79296875 C-93.10945663 114.62248047 -93.12906952 115.45199219 -93.14927673 116.30664062 C-93.3436954 123.78544565 -93.79977387 131.23601706 -94.29797363 138.69961548 C-95.22515892 152.7402265 -95.59236548 166.74155719 -95.625 180.8125 C-95.63008575 181.68569885 -95.63517151 182.55889771 -95.64041138 183.45855713 C-95.68237289 192.3529256 -95.50227476 201.14799517 -94.49609375 209.9921875 C-94.42018005 210.66790802 -94.34426636 211.34362854 -94.26605225 212.03982544 C-92.89126659 222.7855887 -88.73718327 231.79369299 -81.375 239.6875 C-80.89933594 240.21601563 -80.42367187 240.74453125 -79.93359375 241.2890625 C-68.0686854 252.87516099 -49.39203095 257.52448304 -33.4921875 259.29296875 C-30.375 259.6875 -30.375 259.6875 -27.375 260.6875 C-25.11385673 260.80470801 -22.84944243 260.86134601 -20.5854187 260.88786316 C-19.54204182 260.90196465 -19.54204182 260.90196465 -18.47758663 260.91635102 C-16.13727068 260.94664104 -13.79694044 260.96984637 -11.45654297 260.99291992 C-9.77782428 261.0127779 -8.09910957 261.03297446 -6.42039871 261.05348396 C-1.8278235 261.10795931 2.76479931 261.15554195 7.35746908 261.2012713 C10.2689269 261.23058064 13.18036399 261.26147451 16.09180069 261.29280663 C56.81583326 261.72832825 97.54052082 261.93788239 138.26679611 261.97674751 C149.60176214 261.98771885 160.9365078 262.01299823 172.27139843 262.05624419 C180.45242022 262.08635225 188.63338286 262.10120152 196.81445897 262.10452431 C201.62858874 262.10685249 206.44248963 262.11554241 211.25655746 262.14098549 C215.71138063 262.16421986 220.16582132 262.16851878 224.62068939 262.15822411 C226.24245357 262.15772995 227.86423701 262.16401486 229.48594284 262.17778015 C240.79634013 262.26845095 249.51807586 261.2468589 258.12109375 253.40234375 C264.16358393 246.51233546 265.15139374 238.35456267 264.9765625 229.5 C264.28045285 221.95107758 260.21702785 217.41636628 255.625 211.6875 C256.24394638 211.66910568 256.86289276 211.65071136 257.50059509 211.63175964 C263.97438159 211.43669703 270.44734653 211.22263559 276.92016602 210.99780273 C279.33211762 210.91648283 281.7442347 210.83991963 284.15649414 210.76831055 C287.63482777 210.66421181 291.11219647 210.54270965 294.58984375 210.41796875 C295.65895493 210.38970505 296.7280661 210.36144135 297.82957458 210.33232117 C306.39525701 209.99809043 314.61217841 208.77967648 321.05078125 202.65625 C326.98830419 195.230663 328.48794435 186.69418875 328.19140625 177.38671875 C327.28042307 171.43705619 324.7102648 166.77898621 321.625 161.6875 C320.945034 160.36089966 320.27273389 159.03013287 319.625 157.6875 C320.28886719 157.419375 320.95273437 157.15125 321.63671875 156.875 C328.17076093 153.9752207 331.65706259 151.21696231 334.625 144.6875 C334.98980469 143.96175781 335.35460937 143.23601562 335.73046875 142.48828125 C336.97621132 138.58785581 336.95430386 134.94489596 336.9375 130.875 C336.95361328 130.10607422 336.96972656 129.33714844 336.98632812 128.54492188 C336.99297246 120.67137947 334.85710899 114.08223501 329.49609375 108.2265625 C324.53423867 104.14520362 317.92671341 102.35083825 311.625 101.6875 C311.625 101.3575 311.625 101.0275 311.625 100.6875 C319.03723526 100.23368968 323.73476484 101.19375951 330.0625 105.25 C330.578125 105.724375 331.09375 106.19875 331.625 106.6875 C331.625 107.3475 331.625 108.0075 331.625 108.6875 C332.285 108.6875 332.945 108.6875 333.625 108.6875 C334.44337442 110.10078129 335.25446219 111.51828346 336.0625 112.9375 C336.51496094 113.72640625 336.96742188 114.5153125 337.43359375 115.328125 C341.3516609 123.08718257 340.97269762 135.54804222 338.4375 143.8125 C335.64550832 150.55763878 331.91570556 155.03011305 325.625 158.6875 C326.06998328 161.7133863 326.74647882 163.93045764 328.125 166.6875 C332.45347569 175.34445139 331.66216294 186.98308157 328.86328125 196.04296875 C326.01917034 202.1169848 321.11528898 207.90188793 314.9375 210.75 C308.72996491 212.50684955 302.83399152 212.8531899 296.4296875 212.93359375 C294.64452588 212.96650686 292.85936975 212.9997189 291.07421875 213.03320312 C288.27851818 213.0807256 285.4828438 213.12523973 282.68701172 213.16430664 C279.97601793 213.20399943 277.26544766 213.25551714 274.5546875 213.30859375 C273.30146194 213.32121498 273.30146194 213.32121498 272.0229187 213.33409119 C266.54478104 213.41462071 266.54478104 213.41462071 261.625 215.6875 C262.04652344 216.27917969 262.46804688 216.87085938 262.90234375 217.48046875 C263.72412109 218.66576172 263.72412109 218.66576172 264.5625 219.875 C265.38041016 221.04095703 265.38041016 221.04095703 266.21484375 222.23046875 C269.27164588 227.55658659 269.47776798 234.04442501 268.09375 239.95703125 C264.6043202 251.08907088 258.99808101 257.17906705 249.05793762 263.25718689 C244.64140033 265.09731097 240.80548252 265.24891395 236.06518555 265.36938477 C234.67719899 265.41909219 234.67719899 265.41909219 233.26117229 265.46980381 C223.36918234 265.79297171 213.47810509 265.81412577 203.58203125 265.77734375 C201.49624174 265.77325526 199.41045169 265.76943637 197.32466125 265.76585388 C190.09139084 265.75024974 182.85821139 265.72011224 175.625 265.6875 C174.94439231 265.68447278 174.26378462 265.68144556 173.56255245 265.67832661 C151.33666876 265.57920295 129.11105348 265.44448513 106.88543332 265.29866064 C100.98833201 265.26022924 95.09121817 265.22453852 89.1940918 265.19018555 C24.51690935 264.81218456 24.51690935 264.81218456 -2.21484375 264.23046875 C-3.07915827 264.21284548 -3.94347279 264.19522221 -4.83397865 264.1770649 C-31.04317503 263.62485084 -59.14177237 262.06014079 -80.375 244.6875 C-80.375 244.0275 -80.375 243.3675 -80.375 242.6875 C-80.9628125 242.4503125 -81.550625 242.213125 -82.15625 241.96875 C-89.14228225 237.93456236 -93.19609444 228.14860087 -95.375 220.6875 C-98.17532154 208.98013165 -98.05827265 196.65896588 -98.375 184.6875 C-98.39836426 183.90648926 -98.42172852 183.12547852 -98.44580078 182.32080078 C-98.80858269 168.63569154 -97.9330731 154.98823358 -97.14819336 141.33178711 C-96.65605641 132.56917654 -96.3033058 123.83152721 -96.23046875 115.0546875 C-96.2203627 114.18642838 -96.21025665 113.31816925 -96.19984436 112.42359924 C-96.15174903 108.2750668 -96.12899996 104.12991754 -96.15649414 99.98120117 C-96.07836226 81.56629585 -89.03743333 66.36113711 -76.46875 52.93359375 C-74.82248966 51.16754954 -73.30090246 49.39570179 -71.8125 47.5 C-55.47502852 28.64907137 -30.70432508 13.2593486 -8.375 2.6875 C-6.84746094 1.83478516 -6.84746094 1.83478516 -5.2890625 0.96484375 C-2.375 -0.3125 -2.375 -0.3125 0 0 Z " fill="#D8D8D8" transform="translate(178.375,162.3125)"/>
<path d="M0 0 C0.66 0.33 1.32 0.66 2 1 C2 2.65 2 4.3 2 6 C2.96852465 6.00054477 3.93704929 6.00108953 4.93492317 6.00165081 C28.4956283 6.01604291 52.05614861 6.05904578 75.6167469 6.13209057 C87.01047026 6.16675132 98.40407249 6.19209752 109.79785156 6.19555664 C119.72808086 6.19859501 129.65809451 6.21906853 139.5882405 6.26052457 C144.84677808 6.28186764 150.10500895 6.29444839 155.36359024 6.28615379 C160.31313247 6.27862205 165.26205285 6.29440098 170.21148109 6.32806015 C172.02790685 6.33630396 173.84439432 6.33603097 175.66081429 6.32659721 C178.14237686 6.31498496 180.62189807 6.33407629 183.103302 6.36076355 C183.82121418 6.35009029 184.53912636 6.33941703 185.27879345 6.32842034 C190.90132248 6.44114334 193.16382602 8.19380756 197 12 C202.50727439 19.12173565 202.60903502 27.35859747 202 36 C200.79750674 42.00143426 196.90502242 45.68751733 192 49 C181.77456317 53.99381799 167.66926437 52.16572862 156.48144531 52.20532227 C154.74570493 52.21492107 153.00996679 52.22493226 151.27423096 52.23532104 C146.59741922 52.26215945 141.92059762 52.2832819 137.24375248 52.30332303 C132.34304608 52.32531384 127.44236938 52.35263796 122.54168701 52.37937927 C113.27728591 52.42913025 104.01286818 52.47413375 94.74843478 52.51740164 C84.19452872 52.56692518 73.64065247 52.62178685 63.0867753 52.67708123 C41.39121136 52.79063088 19.69561891 52.89752788 -2 53 C-2.495 55.475 -2.495 55.475 -3 58 C-2.02431029 57.99666908 -2.02431029 57.99666908 -1.02890968 57.99327087 C14.83070848 57.94188573 30.68964104 57.93486828 46.54926109 57.97665405 C54.21906186 57.9958026 61.88832968 58.00017802 69.55810547 57.96923828 C76.24660784 57.94229505 82.93441965 57.94361767 89.62289679 57.97825909 C93.16157041 57.9956162 96.69900806 57.99924193 100.23762131 57.96896362 C104.19725167 57.9356143 108.15509963 57.96540059 112.11474609 58 C113.27568787 57.98058853 114.43662964 57.96117706 115.63275146 57.94117737 C123.16225597 58.07517473 127.28087345 59.85145241 132.96032143 64.80297852 C137.43524661 69.62310405 140.18680867 75.01055559 140.5625 81.625 C139.96754768 90.08819668 135.50366109 94.93419502 129.31640625 100.3359375 C124.63078219 103.70200133 120.72495188 104.24765748 115.0065918 104.22705078 C114.32311172 104.22734283 113.63963165 104.22763489 112.93544006 104.22793579 C110.68990109 104.22654917 108.44469933 104.21101987 106.19921875 104.1953125 C104.63694948 104.19157999 103.07467785 104.18873414 101.5124054 104.18673706 C97.41064941 104.17911935 93.3090362 104.15948696 89.20733643 104.1373291 C85.01780122 104.11683047 80.82824283 104.10772677 76.63867188 104.09765625 C68.4257159 104.07623922 60.21287574 104.04212588 52 104 C52.33 103.34 52.66 102.68 53 102 C54.21030128 102.01332367 54.21030128 102.01332367 55.4450531 102.0269165 C63.0798948 102.10734085 70.7145287 102.16810487 78.34968472 102.20724869 C82.27424246 102.22805011 86.19844777 102.25622951 90.12280273 102.30175781 C93.9159341 102.34548418 97.70872824 102.36919299 101.50209236 102.37950897 C102.9432817 102.38685268 104.38445432 102.40119244 105.82549858 102.42292023 C115.57256093 102.56392893 122.49566812 101.42491762 130.8125 96.25 C135.12354028 91.81578714 137.21912501 87.1998262 137.5625 81 C137.27640419 74.35849016 134.20073263 70.03970342 129.4375 65.625 C121.41764586 60.27843057 112.78067996 60.85862805 103.41503906 60.91821289 C101.71117287 60.92281273 101.71117287 60.92281273 99.97288513 60.92750549 C97.51808203 60.93463399 95.06328464 60.94400993 92.60849762 60.95540047 C88.72538372 60.97283695 84.8423112 60.98310373 80.95916748 60.99131775 C69.92277089 61.01573833 58.88643098 61.05143633 47.85009766 61.09594727 C41.09116688 61.12312033 34.33227458 61.13975612 27.57329559 61.15081596 C24.99762542 61.1570321 22.42196155 61.16704525 19.84632111 61.18089485 C16.25330017 61.20005351 12.66044785 61.20699868 9.06738281 61.21118164 C8.00029587 61.21994324 6.93320892 61.22870483 5.83378601 61.23773193 C4.85539261 61.23642776 3.87699921 61.2351236 2.86895752 61.23377991 C2.02023701 61.23692231 1.17151649 61.24006472 0.29707718 61.24330235 C-2.20646765 60.97813131 -3.83715106 60.25686112 -6 59 C-5.74438677 56.6568787 -5.40729228 54.32156597 -5 52 C-2.59710936 50.79855468 -1.07901607 50.86224853 1.60534668 50.84178162 C2.57707321 50.8319928 3.54879974 50.82220398 4.54997253 50.81211853 C6.15622246 50.80348534 6.15622246 50.80348534 7.79492188 50.79467773 C8.92078201 50.78477814 10.04664215 50.77487854 11.20661926 50.76467896 C14.96064109 50.73290206 18.71467482 50.70819759 22.46875 50.68359375 C25.09729313 50.6629928 27.72583317 50.64199557 30.35437012 50.62062073 C35.89621934 50.57624917 41.4380856 50.53554086 46.97998047 50.49731445 C54.66818851 50.44426984 62.35632978 50.38422496 70.04447567 50.32291877 C120.22551411 49.9250705 120.22551411 49.9250705 141.81396484 50.01609802 C169.40251573 51.66125403 169.40251573 51.66125403 195 44 C199.8435548 39.00020149 199.28138513 32.80160198 199.21484375 26.19921875 C198.83722984 20.57620442 197.24007231 17.42608316 193.5 13.125 C189.42160041 9.65836035 185.73870183 9.85428409 180.64283752 9.86196899 C179.88763933 9.85914771 179.13244113 9.85632643 178.35435814 9.85341966 C175.81638794 9.84506709 173.27846134 9.84373486 170.74047852 9.84228516 C168.92388791 9.83761751 167.10729847 9.83247402 165.29071045 9.82688904 C161.37508313 9.81560388 157.45946344 9.8071718 153.54382515 9.80076981 C147.35494771 9.79010017 141.16612512 9.76985899 134.97727966 9.74765015 C117.37737535 9.68568812 99.77747434 9.63167844 82.17749023 9.59863281 C72.4600869 9.58030723 62.74277548 9.55139911 53.02543968 9.5106281 C47.88109304 9.48952688 42.73686238 9.4740964 37.59247017 9.47182083 C32.75548092 9.46967869 27.91873333 9.45385389 23.08181763 9.42743111 C21.30485808 9.4202206 19.52786931 9.41814559 17.75089836 9.42153358 C15.32835952 9.42541526 12.9065975 9.4110168 10.48414612 9.39199829 C9.77801841 9.39752799 9.0718907 9.40305768 8.34436518 9.40875494 C4.28270972 9.35356346 1.95890143 8.84932967 -1 6 C-0.67 4.02 -0.34 2.04 0 0 Z " fill="#F6F6F6" transform="translate(298,315)"/>
<path d="M0 0 C0.54237305 0.12262207 1.08474609 0.24524414 1.64355469 0.37158203 C5.63497803 1.26721432 9.62792813 2.13433198 13.640625 2.9296875 C15.17708333 3.24479167 16.71354167 3.55989583 18.25 3.875 C19.02601563 4.02324219 19.80203125 4.17148438 20.6015625 4.32421875 C26.10824663 5.48005859 29.99080903 7.04709813 33.2890625 11.89453125 C35.3367358 17.95879447 34.74141073 25.06091336 32.375 30.9375 C30.26107542 35.00330616 27.9394351 37.54714418 24 40 C15.90322173 42.39684963 7.81262937 42.39211393 -0.5625 42.375 C-1.28765808 42.3764502 -2.01281616 42.37790039 -2.75994873 42.37939453 C-13.43165426 42.37704942 -23.55398452 41.44335876 -34.05761719 39.44091797 C-47.05945281 36.96319259 -57.91980056 36.95990028 -70 43 C-70 44.32 -70 45.64 -70 47 C-61.67307885 51.16346058 -48.47423807 49.28957606 -39.17578125 49.51171875 C-38.36447565 49.53198309 -37.55317005 49.55224743 -36.71727943 49.57312584 C-18.63783558 50.01462855 -0.55495634 50.17409903 17.52856827 50.34561539 C22.668551 50.39445305 27.80850438 50.44600218 32.94845581 50.49801636 C35.56420106 50.52435847 38.17994661 50.5506704 40.79569221 50.57697845 C42.55611264 50.59470132 44.31653265 50.61246732 46.07695222 50.63027596 C55.95691647 50.72998155 65.83686401 50.8226723 75.71704102 50.89868164 C83.68577461 50.96005073 91.65424731 51.03521598 99.62269896 51.12625045 C103.8048014 51.17349355 107.98670593 51.21394305 112.16901588 51.23725319 C116.07595821 51.25911926 119.98229639 51.29926831 123.88892555 51.35305977 C125.31139001 51.36947134 126.7339487 51.37936017 128.15650558 51.38188553 C137.49921832 51.40325964 147.43746985 51.66003229 154.5625 58.4375 C157.4658577 63.61305069 158.36025892 67.88970177 158.3125 73.8125 C158.30512817 74.880448 158.30512817 74.880448 158.29760742 75.9699707 C158.14591121 82.76207149 156.97514698 86.97764656 153.25410461 92.67155457 C148.8067446 96.91886914 141.84641464 95.64644588 136.12182617 95.56762695 C134.69253591 95.56621592 133.26324202 95.56700954 131.83395386 95.56983948 C127.96008801 95.57127293 124.08699767 95.54189558 120.21331191 95.50696969 C116.16278128 95.47569392 112.11223248 95.4727745 108.06159973 95.46684265 C100.39403802 95.45130773 92.72683315 95.41028424 85.05942851 95.3600952 C76.32917848 95.30419062 67.59891132 95.27671247 58.86852682 95.25161803 C40.91214897 95.19936791 22.95610319 95.11143265 5 95 C5 94.67 5 94.34 5 94 C19.57962912 93.86830481 34.15926905 93.73786615 48.73892212 93.60884857 C55.51133749 93.54889039 62.28374901 93.48854936 69.05615234 93.42724609 C75.61143189 93.36794935 82.16672018 93.30972011 88.72201538 93.25218201 C91.2029961 93.2302274 93.68397363 93.20791024 96.16494751 93.18519592 C99.68287349 93.15305458 103.20081005 93.12236568 106.71875 93.09179688 C107.83215256 93.08115456 108.94555511 93.07051224 110.09269714 93.05954742 C115.66323701 93.01173421 121.23024945 93.0014379 126.80078125 93.05688477 C128.43714539 93.06975903 128.43714539 93.06975903 130.10656738 93.08289337 C132.15508751 93.1012414 134.20355815 93.12786932 136.25183105 93.16460419 C141.57361837 93.20864586 146.00495862 92.91063647 151 91 C155.64272459 85.55680565 156.22889336 78.73274372 155.8125 71.875 C155.22072468 66.41828106 154.18760933 62.35588697 150.375 58.25 C143.98867739 54.88877757 136.67209126 54.70209937 129.59887695 54.69702148 C128.70107073 54.68855949 127.8032645 54.6800975 126.87825203 54.67137909 C123.91492134 54.64562041 120.95169585 54.63338044 117.98828125 54.62109375 C115.8824851 54.60519105 113.7766957 54.58837133 111.6709137 54.57069397 C107.20256422 54.53481175 102.73422823 54.50460312 98.26580811 54.47900391 C91.28470123 54.43874599 84.30374245 54.38506642 77.32275391 54.328125 C75.59072598 54.31404696 75.59072598 54.31404696 73.82370758 54.29968452 C71.4984255 54.28077064 69.17314372 54.26181997 66.84786224 54.24283218 C63.37386189 54.21486603 59.89985419 54.18807968 56.42584229 54.16159058 C30.28527705 53.96009327 4.14955279 53.57823081 -21.98669434 53.05926514 C-24.94454394 53.0010907 -27.90243611 52.9458248 -30.86035156 52.89111328 C-35.22142844 52.80920822 -39.58215901 52.71730223 -43.94281006 52.61523438 C-45.43676863 52.58108765 -46.930789 52.54950821 -48.42486572 52.52099609 C-65.25388464 52.19053717 -65.25388464 52.19053717 -71 50 C-73 47 -73 47 -73.3125 44.125 C-71.69116146 40.26467013 -70.52661427 39.92849106 -66.8125 38.1875 C-54.8146696 33.38220721 -43.19160069 34.89132624 -30.6875 36.9375 C-3.50590391 41.47092121 -3.50590391 41.47092121 23.4375 37.875 C28.25505125 34.3499625 30.70895074 28.75103763 32 23 C32 18.02724379 31.15261104 13.96995464 28 10 C25.12649057 8.31018164 22.36744655 7.51189755 19.12109375 6.81640625 C18.20005859 6.61080078 17.27902344 6.40519531 16.33007812 6.19335938 C14.39877174 5.77214941 12.46646645 5.35549419 10.53320312 4.94335938 C9.61345703 4.73646484 8.69371094 4.52957031 7.74609375 4.31640625 C6.90747803 4.13537354 6.0688623 3.95434082 5.20483398 3.76782227 C2.77775024 2.92260265 1.64682484 1.94017283 0 0 Z " fill="#F1F1F1" transform="translate(305,167)"/>
<path d="M0 0 C0.66 0.33 1.32 0.66 2 1 C2 2.65 2 4.3 2 6 C3.21282449 6.00634791 3.21282449 6.00634791 4.45015049 6.01282406 C24.22802961 6.11664414 44.00587676 6.22535269 63.78369999 6.33933926 C73.34854591 6.39434994 82.91339553 6.44777473 92.47827148 6.49731445 C100.8260877 6.5405548 109.17388001 6.58692512 117.52165884 6.63687855 C121.93165277 6.66316347 126.34164295 6.68800049 130.75166512 6.70907402 C140.84634073 6.75814951 150.93983161 6.83779658 161.03370905 6.97530508 C162.91415526 6.99892186 164.79468735 7.01537369 166.67521286 7.0314827 C169.85680163 7.06456561 173.03579095 7.12938485 176.21655273 7.20727539 C177.08660226 7.21179183 177.95665178 7.21630827 178.85306644 7.22096157 C185.30827508 7.43943612 190.64618404 9.34534813 196 13 C201.64911869 19.70888196 202.69267592 26.4234127 202 35 C200.75060195 41.14861245 198.53959372 45.66675145 194 50 C188.83251196 52.68724716 184.58823387 53.42979841 178.75526428 53.36076355 C177.55185376 53.36460846 177.55185376 53.36460846 176.32413191 53.36853105 C173.65085704 53.3734505 170.97815399 53.35700669 168.30493164 53.34057617 C166.38274143 53.3397295 164.46055025 53.34020582 162.5383606 53.34190369 C157.33017819 53.3427635 152.12220358 53.32513985 146.91406941 53.30418181 C141.46749888 53.2854128 136.02092345 53.28366439 130.57432556 53.28010559 C120.26492472 53.2707858 109.95561946 53.24617286 99.64626068 53.21605712 C87.90752016 53.18251111 76.16877505 53.16602658 64.42999852 53.15097082 C40.28661272 53.11962329 16.14331172 53.06686401 -8 53 C-8 52.67 -8 52.34 -8 52 C1.61090831 50.83067183 11.18375364 50.88507118 20.84472656 50.93408203 C22.62807076 50.93928395 24.41141647 50.94399031 26.19476318 50.94824219 C30.01476676 50.95813124 33.83474491 50.97096033 37.65473175 50.98596573 C43.69801374 51.00914622 49.74129251 51.02236606 55.78460693 51.03366089 C72.96224212 51.06700209 90.13982753 51.10881818 107.31738281 51.17138672 C116.81983398 51.20591547 126.32224918 51.2297184 135.82475638 51.24159515 C141.829984 51.24968434 147.83497519 51.27090551 153.84012651 51.30180001 C157.57490012 51.31781931 161.30960604 51.3212196 165.04441071 51.32102966 C166.77338179 51.32344861 168.50235466 51.33101356 170.23127747 51.34415817 C172.59534322 51.36138025 174.95870988 51.3599579 177.32281494 51.35403442 C178.00307432 51.36345507 178.68333371 51.37287571 179.38420701 51.38258183 C184.95886215 51.3360074 189.53257418 49.97694361 193.92578125 46.45703125 C198.65413834 40.84959932 200.36701816 35.84242479 199.875 28.5 C198.96630079 22.45245011 196.93567261 17.75132284 192.375 13.625 C182.74470762 8.98819256 171.99887247 9.70555312 161.55664062 9.71289062 C159.80473515 9.70685795 158.05283257 9.69993157 156.30093384 9.69218445 C152.54693255 9.67736299 148.79298384 9.6685635 145.03895569 9.66447449 C139.10627982 9.65773623 133.17371648 9.63595709 127.24108887 9.61193848 C113.58886308 9.55893544 99.93660281 9.52538048 86.28431702 9.49217987 C73.74595375 9.46151114 61.2076393 9.42676018 48.66933966 9.37586927 C42.76735005 9.35248402 36.86543987 9.33877127 30.96340847 9.33237457 C27.30315242 9.32645566 23.6429614 9.31237814 19.98273849 9.29603004 C18.28071813 9.29013261 16.57868194 9.28768624 14.87665176 9.28886986 C12.56122356 9.2900215 10.24616438 9.27907416 7.93078613 9.26501465 C6.6329847 9.26208153 5.33518326 9.25914841 3.9980545 9.2561264 C1 9 1 9 -1 7 C-0.625 3.375 -0.625 3.375 0 0 Z " fill="#EDEDED" transform="translate(308,262)"/>
<path d="M0 0 C7.41223526 -0.45381032 12.10976484 0.50625951 18.4375 4.5625 C19.2109375 5.2740625 19.2109375 5.2740625 20 6 C20 6.66 20 7.32 20 8 C20.66 8 21.32 8 22 8 C22.81837442 9.41328129 23.62946219 10.83078346 24.4375 12.25 C24.88996094 13.03890625 25.34242188 13.8278125 25.80859375 14.640625 C29.7266609 22.39968257 29.34769762 34.86054222 26.8125 43.125 C24.02050832 49.87013878 20.29070556 54.34261305 14 58 C14.44498328 61.0258863 15.12147882 63.24295764 16.5 66 C20.82847569 74.65695139 20.03716294 86.29558157 17.23828125 95.35546875 C14.39417034 101.4294848 9.49028898 107.21438793 3.3125 110.0625 C-2.89503509 111.81934955 -8.79100848 112.1656899 -15.1953125 112.24609375 C-16.98047412 112.27900686 -18.76563025 112.3122189 -20.55078125 112.34570312 C-23.34648182 112.3932256 -26.1421562 112.43773973 -28.93798828 112.47680664 C-31.64898207 112.51649943 -34.35955234 112.56801714 -37.0703125 112.62109375 C-37.9057962 112.6295079 -38.74127991 112.63792206 -39.6020813 112.64659119 C-45.08021896 112.72712071 -45.08021896 112.72712071 -50 115 C-49.57847656 115.59167969 -49.15695312 116.18335938 -48.72265625 116.79296875 C-47.90087891 117.97826172 -47.90087891 117.97826172 -47.0625 119.1875 C-46.51722656 119.96480469 -45.97195313 120.74210937 -45.41015625 121.54296875 C-42.35335412 126.86908659 -42.14723202 133.35692501 -43.53125 139.26953125 C-47.02079142 150.40192696 -52.62709764 156.49055815 -62.56665039 162.56982422 C-66.98534067 164.41044767 -70.82398 164.55997593 -75.56640625 164.6796875 C-76.49207901 164.71270966 -77.41775177 164.74573181 -78.37147522 164.77975464 C-88.22554879 165.10197374 -98.0791273 165.15108063 -107.9375 165.125 C-108.91951385 165.12411377 -109.90152771 165.12322754 -110.91329956 165.12231445 C-145.27678447 165.08715619 -179.64072054 164.49569967 -214 164 C-214 163.67 -214 163.34 -214 163 C-213.273156 162.99853344 -212.54631201 162.99706688 -211.79744244 162.99555588 C-194.0766 162.95843484 -176.35596546 162.89935016 -158.63527966 162.81609726 C-150.06552522 162.77636056 -141.4958619 162.74394088 -132.92602539 162.72900391 C-125.45280756 162.71595946 -117.97979067 162.68892391 -110.50668603 162.64538693 C-106.55308081 162.62283459 -102.59972284 162.60708555 -98.64604759 162.60811615 C-94.91699987 162.60886648 -91.18849741 162.59076807 -87.45959091 162.55883217 C-85.45429517 162.54638605 -83.44890755 162.55336806 -81.44358826 162.56114197 C-70.72459148 162.43873712 -61.60843539 160.49859431 -53.65625 152.9375 C-47.58533384 145.83567355 -46.46886273 137.90730511 -46.6484375 128.8125 C-47.34454715 121.26357758 -51.40797215 116.72886628 -56 111 C-55.38105362 110.98160568 -54.76210724 110.96321136 -54.12440491 110.94425964 C-47.65061841 110.74919703 -41.17765347 110.53513559 -34.70483398 110.31030273 C-32.29288238 110.22898283 -29.8807653 110.15241963 -27.46850586 110.08081055 C-23.99017223 109.97671181 -20.51280353 109.85520965 -17.03515625 109.73046875 C-15.43148949 109.6880732 -15.43148949 109.6880732 -13.79542542 109.64482117 C-5.22974299 109.31059043 2.98717841 108.09217648 9.42578125 101.96875 C15.36330419 94.543163 16.86294435 86.00668875 16.56640625 76.69921875 C15.65542307 70.74955619 13.0852648 66.09148621 10 61 C9.320034 59.67339966 8.64773389 58.34263287 8 57 C8.66386719 56.731875 9.32773437 56.46375 10.01171875 56.1875 C16.54576093 53.2877207 20.03206259 50.52946231 23 44 C23.36480469 43.27425781 23.72960937 42.54851562 24.10546875 41.80078125 C25.35121132 37.90035581 25.32930386 34.25739596 25.3125 30.1875 C25.32861328 29.41857422 25.34472656 28.64964844 25.36132812 27.85742188 C25.36797246 19.98387947 23.23210899 13.39473501 17.87109375 7.5390625 C12.90923867 3.45770362 6.30171341 1.66333825 0 1 C0 0.67 0 0.34 0 0 Z " fill="#FBFBFB" transform="translate(490,263)"/>
<path d="M0 0 C1.29942313 0.6433753 2.60020535 1.28401307 3.90234375 1.921875 C6.37853704 3.13792803 8.84748435 4.36694492 11.31152344 5.60742188 C15.36641832 7.6175407 19.46998494 9.45764056 23.625 11.25 C19.213181 12.65657122 16.46656736 11.20190584 12.4375 9.3125 C11.74567627 8.99909668 11.05385254 8.68569336 10.34106445 8.36279297 C8.09531653 7.3397776 5.85927508 6.29782089 3.625 5.25 C2.84608398 4.88535645 2.06716797 4.52071289 1.26464844 4.14501953 C-1.7865316 2.7138738 -4.83689425 1.28148165 -7.87768555 -0.17163086 C-19.57065823 -5.74840803 -31.21871307 -4.52873998 -43.375 -0.75 C-44.41140625 -0.43675781 -45.4478125 -0.12351563 -46.515625 0.19921875 C-48.69650192 0.86559781 -50.87486074 1.54026698 -53.05078125 2.22265625 C-56.33461167 3.23751806 -59.62996941 4.19051598 -62.9375 5.125 C-68.86059247 6.8116205 -74.77891268 8.51317553 -80.6875 10.25 C-81.5112915 10.48702637 -82.33508301 10.72405273 -83.18383789 10.96826172 C-88.81550419 12.63552018 -94.05872272 14.76509877 -99.375 17.25 C-100.9126576 17.94293653 -102.45041927 18.63564217 -103.98828125 19.328125 C-113.351625 23.62461782 -122.00388905 28.19091017 -130.375 34.25 C-131.45652344 34.99765625 -132.53804687 35.7453125 -133.65234375 36.515625 C-140.28307361 41.11726878 -146.66496831 45.98353572 -152.9375 51.0625 C-153.60426758 51.60156982 -154.27103516 52.14063965 -154.95800781 52.69604492 C-158.63621623 55.70901559 -162.051239 58.8417366 -165.375 62.25 C-166.09300781 62.91 -166.81101562 63.57 -167.55078125 64.25 C-177.61670893 73.67185552 -184.77038168 85.70851887 -187.0625 99.375 C-187.19060059 100.12434814 -187.31870117 100.87369629 -187.45068359 101.64575195 C-188.30254942 106.97474704 -188.56599511 112.09167392 -188.4140625 117.4921875 C-188.35999708 122.69328124 -188.6227999 127.86841828 -188.875 133.0625 C-188.94678467 134.56043091 -188.94678467 134.56043091 -189.02001953 136.08862305 C-189.13592387 138.47587859 -189.25415502 140.86299022 -189.375 143.25 C-189.705 143.25 -190.035 143.25 -190.375 143.25 C-190.50026541 137.41918434 -190.59011056 131.58918198 -190.6496582 125.75732422 C-190.67452736 123.78094815 -190.70843555 121.8046613 -190.75219727 119.82861328 C-191.21518936 98.35667422 -187.08273436 80.81910004 -171.89575195 64.87866211 C-170.85832513 63.80892068 -169.81766146 62.74230667 -168.7734375 61.67919922 C-167.60183697 60.48182675 -166.45414303 59.26112518 -165.3125 58.03515625 C-159.2986485 51.69728258 -152.33413309 46.49113901 -145.375 41.25 C-144.66988281 40.71648926 -143.96476562 40.18297852 -143.23828125 39.63330078 C-121.05747974 22.94371982 -97.96569573 12.07785068 -71.375 4.25 C-69.6417749 3.73856445 -69.6417749 3.73856445 -67.87353516 3.21679688 C-64.18911321 2.1353658 -60.50182056 1.06459469 -56.8125 0 C-55.10151123 -0.4940332 -55.10151123 -0.4940332 -53.35595703 -0.99804688 C-50.03562715 -1.9418872 -46.70805006 -2.85220206 -43.375 -3.75 C-42.31812988 -4.04712891 -41.26125977 -4.34425781 -40.17236328 -4.65039062 C-24.78773799 -8.66030059 -13.75821999 -7.08025356 0 0 Z " fill="#EBEBEB" transform="translate(281.375,154.75)"/>
<path d="M0 0 C0.33 0 0.66 0 1 0 C0.99333817 0.78101578 0.98667633 1.56203156 0.97981262 2.36671448 C0.91924009 9.79367597 0.87379432 17.22051459 0.84456348 24.64766026 C0.82902953 28.46435301 0.80802152 32.28083855 0.77368164 36.09741211 C0.74064276 39.79329853 0.72305526 43.488988 0.71536827 47.18501091 C0.70990334 48.58214346 0.699237 49.9792675 0.68280983 51.37631416 C0.48998943 68.48396059 2.75782776 85.15057716 15 98 C29.6093799 110.38987795 51.07635567 113.99067936 69.64111328 114.28125 C71.04744868 114.3083458 71.04744868 114.3083458 72.4821949 114.335989 C75.59483946 114.39483059 78.70755508 114.44749572 81.8203125 114.5 C84.0426285 114.54043331 86.2649388 114.58118154 88.48724365 114.6222229 C94.46191135 114.73125496 100.43666607 114.8344871 106.41146088 114.93628693 C110.11989187 114.99991236 113.82828996 115.06519534 117.53668213 115.13104248 C163.68897364 115.94963856 209.8427182 116.55197939 256 117 C256 117.33 256 117.66 256 118 C231.85055122 118.070331 207.70111797 118.12310554 183.5515871 118.15543652 C172.33652112 118.1708527 161.12151907 118.1918409 149.90649414 118.22631836 C140.12234694 118.25638244 130.33824608 118.27561305 120.55405396 118.28226548 C115.38169911 118.28614916 110.20947674 118.29516458 105.03716469 118.31719017 C100.15097224 118.33782524 95.26496457 118.34378034 90.37873268 118.33932304 C88.60244232 118.34013635 86.82614459 118.34593883 85.04989243 118.35761642 C59.6575708 118.51610998 30.27801944 115.94206727 11.12109375 97.3828125 C-0.11507942 84.76022386 -1.16009492 70.00977723 -1.1328125 53.84765625 C-1.13376923 52.59295029 -1.13472595 51.33824432 -1.13571167 50.04551697 C-1.13639009 47.40050761 -1.13506777 44.75559162 -1.13037109 42.1105957 C-1.12468031 38.74419218 -1.12795526 35.37786852 -1.13394356 32.01146793 C-1.13845608 28.76936131 -1.13528276 25.52726392 -1.1328125 22.28515625 C-1.13483673 21.08802505 -1.13686096 19.89089386 -1.13894653 18.65748596 C-1.12143361 12.35325399 -0.83741464 6.24984084 0 0 Z " fill="#D8D8D8" transform="translate(90,300)"/>
<path d="M0 0 C17.54218192 -0.09363644 35.08428532 -0.16407346 52.62666035 -0.20724869 C60.77275788 -0.22783275 68.9186997 -0.25587331 77.06469727 -0.30175781 C84.16864751 -0.34175347 91.27248493 -0.36746299 98.37654465 -0.37635398 C102.13461324 -0.38154732 105.89235917 -0.3936655 109.65032387 -0.42292023 C113.19540783 -0.45029129 116.74003959 -0.45840189 120.28521919 -0.45243073 C122.19041878 -0.45403712 124.09557036 -0.47544558 126.00064087 -0.49768066 C134.48493437 -0.45744402 143.16117929 0.34843883 149.5625 6.4375 C152.4658577 11.61305069 153.36025892 15.88970177 153.3125 21.8125 C153.30512817 22.880448 153.30512817 22.880448 153.29760742 23.9699707 C153.14591121 30.76207149 151.97514698 34.97764656 148.25410461 40.67155457 C143.8067446 44.91886914 136.84641464 43.64644588 131.12182617 43.56762695 C129.69253591 43.56621592 128.26324202 43.56700954 126.83395386 43.56983948 C122.96008801 43.57127293 119.08699767 43.54189558 115.21331191 43.50696969 C111.16278128 43.47569392 107.11223248 43.4727745 103.06159973 43.46684265 C95.39403802 43.45130773 87.72683315 43.41028424 80.05942851 43.3600952 C71.32917848 43.30419062 62.59891132 43.27671247 53.86852682 43.25161803 C35.91214897 43.19936791 17.95610319 43.11143265 0 43 C0 42.67 0 42.34 0 42 C14.57962912 41.86830481 29.15926905 41.73786615 43.73892212 41.60884857 C50.51133749 41.54889039 57.28374901 41.48854936 64.05615234 41.42724609 C70.61143189 41.36794935 77.16672018 41.30972011 83.72201538 41.25218201 C86.2029961 41.2302274 88.68397363 41.20791024 91.16494751 41.18519592 C94.68287349 41.15305458 98.20081005 41.12236568 101.71875 41.09179688 C102.83215256 41.08115456 103.94555511 41.07051224 105.09269714 41.05954742 C110.66323701 41.01173421 116.23024945 41.0014379 121.80078125 41.05688477 C122.89169067 41.06546761 123.9826001 41.07405045 125.10656738 41.08289337 C127.15508751 41.1012414 129.20355815 41.12786932 131.25183105 41.16460419 C136.57361837 41.20864586 141.00495862 40.91063647 146 39 C150.64272459 33.55680565 151.22889336 26.73274372 150.8125 19.875 C150.22072468 14.41828106 149.18760933 10.35588697 145.375 6.25 C138.83765625 2.80929276 131.35521646 2.70191266 124.12280273 2.69702148 C122.70563713 2.68436249 122.70563713 2.68436249 121.25984192 2.67144775 C118.15108679 2.64577757 115.04242749 2.63353269 111.93359375 2.62109375 C109.73624463 2.60487513 107.53890246 2.58769076 105.34156799 2.56959534 C99.54905508 2.52397614 93.75653164 2.48919474 87.96392822 2.45739746 C77.6829011 2.39938796 67.4019902 2.32348652 57.12109375 2.24609375 C56.02290691 2.23820202 54.92472008 2.23031029 53.79325485 2.22217941 C35.85022141 2.08964327 17.92914891 1.72261317 0 1 C0 0.67 0 0.34 0 0 Z " fill="#FEFEFE" transform="translate(310,219)"/>
<path d="M0 0 C0.53625 0.226875 1.0725 0.45375 1.625 0.6875 C0.14966797 1.32751953 0.14966797 1.32751953 -1.35546875 1.98046875 C-24.64115222 12.35434755 -45.42441641 26.8860217 -63.91015625 44.3828125 C-65.88471631 46.22907309 -67.87345103 47.90251489 -70 49.5625 C-80.60824248 58.61831675 -90.36104195 73.83491356 -92.375 87.6875 C-92.66556801 92.34682415 -92.76834967 97.00299427 -92.83886719 101.6696167 C-92.90161364 105.71644505 -92.99632225 109.76247097 -93.09375 113.80859375 C-93.11356934 114.63893127 -93.13338867 115.4692688 -93.15380859 116.32476807 C-93.36380036 124.41793758 -93.85354459 132.48454848 -94.375 140.5625 C-95.73897115 161.91430302 -96.02472467 183.29934688 -96.375 204.6875 C-96.705 204.6875 -97.035 204.6875 -97.375 204.6875 C-98.64120251 183.43338647 -98.36911213 162.57655729 -97.14819336 141.33251953 C-96.65610428 132.56966323 -96.30330782 123.83177049 -96.23046875 115.0546875 C-96.2203627 114.18642838 -96.21025665 113.31816925 -96.19984436 112.42359924 C-96.15174903 108.2750668 -96.12899996 104.12991754 -96.15649414 99.98120117 C-96.07836226 81.56629585 -89.03743333 66.36113711 -76.46875 52.93359375 C-74.82248966 51.16754954 -73.30090246 49.39570179 -71.8125 47.5 C-55.47502852 28.64907137 -30.70432508 13.2593486 -8.375 2.6875 C-6.84746094 1.83478516 -6.84746094 1.83478516 -5.2890625 0.96484375 C-2.375 -0.3125 -2.375 -0.3125 0 0 Z " fill="#EBEBEB" transform="translate(178.375,162.3125)"/>
<path d="M0 0 C5.31901517 -0.50657287 7.86484812 0.67389957 12 4 C17.19300505 9.62575547 18.38916549 14.64645968 18.375 22.1875 C18.37584595 23.31599365 18.37584595 23.31599365 18.37670898 24.46728516 C18.2549916 30.65425279 16.84383627 35.49506393 14 41 C13.67 41.99 13.34 42.98 13 44 C17.52047914 44.15759097 22.04139555 44.29927491 26.5625 44.4375 C27.3041037 44.46089447 28.0457074 44.48428894 28.80978394 44.50839233 C40.68559658 44.87494979 52.55813002 45.04788228 64.43872261 45.13100243 C66.81854107 45.14848187 69.19832129 45.1686167 71.57810974 45.18977356 C72.37029687 45.19681148 73.162484 45.20384939 73.9786768 45.21110058 C75.58792767 45.22550215 77.19717743 45.24002958 78.80642605 45.25468159 C83.62149375 45.29689967 88.43627467 45.32143027 93.2515049 45.33411789 C96.32344531 45.34636799 99.39508827 45.37505164 102.46687317 45.40768814 C103.90610249 45.41956081 105.34540683 45.42466774 106.78468323 45.42232895 C116.67219965 45.41065216 125.98422845 45.94469534 133.9375 52.375 C134.618125 53.24125 135.29875 54.1075 136 55 C136.70125 55.886875 137.4025 56.77375 138.125 57.6875 C145.15434338 70.10600664 143.43754031 81.6795313 140 95 C146.93 95.66 153.86 96.32 161 97 C161 97.33 161 97.66 161 98 C152.42 98 143.84 98 135 98 C137 93 137 93 137.8515625 91.03515625 C141.44838935 81.8614312 141.23590754 71.37571441 137.97265625 62.1171875 C135.28092924 56.25808694 130.96146472 52.48644477 125 50 C118.31052754 47.94165173 111.74067558 47.6960864 104.78881836 47.68115234 C103.70485779 47.67110672 102.62089722 47.6610611 101.50408936 47.65071106 C97.94934582 47.62001477 94.39467714 47.60288159 90.83984375 47.5859375 C88.36405296 47.56721496 85.88826848 47.54764075 83.41249084 47.5272522 C76.91724373 47.47603985 70.42197595 47.43635579 63.92663574 47.39910889 C57.29023012 47.35900086 50.65391498 47.30793959 44.01757812 47.2578125 C31.01177972 47.16118224 18.00593238 47.07636391 5 47 C5.66 46.01 6.32 45.02 7 44 C7.66 44 8.32 44 9 44 C9.28746094 43.42121094 9.57492187 42.84242188 9.87109375 42.24609375 C10.57980738 40.83602338 11.29956419 39.43139326 12.03515625 38.03515625 C12.54369141 37.05869141 12.54369141 37.05869141 13.0625 36.0625 C13.40410156 35.41410156 13.74570312 34.76570313 14.09765625 34.09765625 C16.96692693 27.42753349 17.37137046 18.97318004 15.01171875 12.13671875 C11.82595232 6.07927554 8.45277889 3.60576076 1.9765625 1.5234375 C1.32429688 1.35070312 0.67203125 1.17796875 0 1 C0 0.67 0 0.34 0 0 Z " fill="#F5F5F5" transform="translate(329,165)"/>
<path d="M0 0 C16.38588209 -0.18725243 32.77141478 -0.32813492 49.15810966 -0.41449738 C56.7675551 -0.45567105 64.37633406 -0.51175901 71.98535156 -0.60351562 C78.62088236 -0.68349458 85.2559303 -0.73492209 91.89192975 -0.75270796 C95.40283404 -0.76309813 98.91235756 -0.78734444 102.42281723 -0.84584045 C106.3509801 -0.91076002 110.27781787 -0.91190392 114.20654297 -0.90820312 C115.358134 -0.93696533 116.50972504 -0.96572754 117.69621277 -0.99536133 C125.21340692 -0.91898179 129.29011769 0.85832334 134.95709419 5.79975128 C139.43358646 10.62101927 142.18668745 16.00842142 142.5625 22.625 C141.96754768 31.08819668 137.50366109 35.93419502 131.31640625 41.3359375 C126.63078219 44.70200133 122.72495188 45.24765748 117.0065918 45.22705078 C116.32311172 45.22734283 115.63963165 45.22763489 114.93544006 45.22793579 C112.68990109 45.22654917 110.44469933 45.21101987 108.19921875 45.1953125 C106.63694948 45.19157999 105.07467785 45.18873414 103.5124054 45.18673706 C99.41064941 45.17911935 95.3090362 45.15948696 91.20733643 45.1373291 C87.01780122 45.11683047 82.82824283 45.10772677 78.63867188 45.09765625 C70.4257159 45.07623922 62.21287574 45.04212588 54 45 C54.495 44.01 54.495 44.01 55 43 C56.21030128 43.01332367 56.21030128 43.01332367 57.4450531 43.0269165 C65.0798948 43.10734085 72.7145287 43.16810487 80.34968472 43.20724869 C84.27424246 43.22805011 88.19844777 43.25622951 92.12280273 43.30175781 C95.9159341 43.34548418 99.70872824 43.36919299 103.50209236 43.37950897 C104.9432817 43.38685268 106.38445432 43.40119244 107.82549858 43.42292023 C117.57256093 43.56392893 124.49566812 42.42491762 132.8125 37.25 C137.12354028 32.81578714 139.21912501 28.1998262 139.5625 22 C139.27640419 15.35849016 136.20073263 11.03970342 131.4375 6.625 C123.40939033 1.27292689 114.72889881 1.85482632 105.3515625 1.88647461 C104.20922653 1.88632858 103.06689056 1.88618256 101.88993835 1.8860321 C98.13493921 1.88672569 94.37999042 1.8944921 90.625 1.90234375 C88.01326525 1.9042099 85.40153015 1.90563287 82.78979492 1.90663147 C76.63121604 1.90973039 70.47265507 1.91792425 64.31408405 1.92798096 C57.29831505 1.93918695 50.28254515 1.94466382 43.26676941 1.94967639 C28.84450373 1.96010817 14.42225212 1.97767956 0 2 C0 1.34 0 0.68 0 0 Z " fill="#E3E3E3" transform="translate(296,374)"/>
<path d="M0 0 C7.41223526 -0.45381032 12.10976484 0.50625951 18.4375 4.5625 C19.2109375 5.2740625 19.2109375 5.2740625 20 6 C20 6.66 20 7.32 20 8 C20.66 8 21.32 8 22 8 C22.81837442 9.41328129 23.62946219 10.83078346 24.4375 12.25 C25.11619141 13.43335938 25.11619141 13.43335938 25.80859375 14.640625 C29.7266609 22.39968257 29.34769762 34.86054222 26.8125 43.125 C24.02050832 49.87013878 20.29070556 54.34261305 14 58 C14.44498328 61.0258863 15.12147882 63.24295764 16.5 66 C20.82847569 74.65695139 20.03716294 86.29558157 17.23828125 95.35546875 C14.43003026 101.35290067 9.54727527 107.1377664 3.5 110.0625 C-4.68751982 112.25558566 -12.65334822 112.02407489 -21.0625 111.5625 C-22.11888672 111.51029297 -23.17527344 111.45808594 -24.26367188 111.40429688 C-26.84284382 111.2759218 -29.42149436 111.14102952 -32 111 C-32 110.67 -32 110.34 -32 110 C-31.22922119 109.98541748 -30.45844238 109.97083496 -29.66430664 109.95581055 C-26.12989827 109.88076834 -22.59637693 109.78429353 -19.0625 109.6875 C-17.85013672 109.66494141 -16.63777344 109.64238281 -15.38867188 109.61914062 C-6.2150404 109.34567194 2.4919979 108.56311738 9.42578125 101.96875 C15.36330419 94.543163 16.86294435 86.00668875 16.56640625 76.69921875 C15.65542307 70.74955619 13.0852648 66.09148621 10 61 C9.320034 59.67339966 8.64773389 58.34263287 8 57 C8.66386719 56.731875 9.32773437 56.46375 10.01171875 56.1875 C16.54576093 53.2877207 20.03206259 50.52946231 23 44 C23.36480469 43.27425781 23.72960937 42.54851562 24.10546875 41.80078125 C25.35121132 37.90035581 25.32930386 34.25739596 25.3125 30.1875 C25.32861328 29.41857422 25.34472656 28.64964844 25.36132812 27.85742188 C25.36797246 19.98387947 23.23210899 13.39473501 17.87109375 7.5390625 C12.90923867 3.45770362 6.30171341 1.66333825 0 1 C0 0.67 0 0.34 0 0 Z " fill="#F0F0F0" transform="translate(490,263)"/>
<path d="M0 0 C3.74042025 1.85234188 7.59810763 3.39360736 11.46484375 4.9609375 C14.26928375 6.13770252 16.97322422 7.43899659 19.703125 8.77734375 C26.64087373 11.99662216 34.02383458 13.54628292 41.453125 15.21484375 C41.453125 15.54484375 41.453125 15.87484375 41.453125 16.21484375 C35.08808914 16.46994294 30.30307897 15.95849092 24.390625 13.65234375 C23.2301062 13.21607666 23.2301062 13.21607666 22.04614258 12.77099609 C11.93236878 8.82588664 2.15776175 4.02024506 -7.60375977 -0.71704102 C-8.28118225 -1.04262497 -8.95860474 -1.36820892 -9.65655518 -1.70365906 C-10.9320598 -2.31716632 -12.20463715 -2.93681364 -13.47357178 -3.563797 C-24.43732832 -8.82019294 -36.37052936 -7.33260873 -47.734375 -4.22265625 C-48.75684326 -3.95380615 -49.77931152 -3.68495605 -50.83276367 -3.40795898 C-54.07512592 -2.54904036 -57.31082914 -1.66753811 -60.546875 -0.78515625 C-62.69521411 -0.21447324 -64.84365113 0.35584134 -66.9921875 0.92578125 C-77.80606676 3.83749605 -88.39898521 6.99366297 -98.80004883 11.16967773 C-104.24524881 13.31538581 -104.24524881 13.31538581 -107.546875 12.21484375 C-86.29378911 1.84365212 -62.36232823 -3.05293211 -39.546875 -8.78515625 C-38.47518066 -9.06480225 -38.47518066 -9.06480225 -37.38183594 -9.35009766 C-23.64336132 -12.60741029 -11.82665026 -6.12871115 0 0 Z " fill="#EDEDED" transform="translate(287.546875,148.78515625)"/>
<path d="M0 0 C5.31901517 -0.50657287 7.86484812 0.67389957 12 4 C17.19300505 9.62575547 18.38916549 14.64645968 18.375 22.1875 C18.37584595 23.31599365 18.37584595 23.31599365 18.37670898 24.46728516 C18.2549916 30.65425279 16.84383627 35.49506393 14 41 C13.67 41.99 13.34 42.98 13 44 C14.58868896 44.03758423 14.58868896 44.03758423 16.20947266 44.07592773 C20.15685127 44.17043924 24.10407176 44.27055135 28.05126953 44.37231445 C29.7563099 44.41549846 31.46138892 44.45718447 33.16650391 44.49731445 C35.62414167 44.55541972 38.08158784 44.61899586 40.5390625 44.68359375 C41.67379501 44.70866249 41.67379501 44.70866249 42.83145142 44.73423767 C46.97259387 44.84890753 50.93260593 45.20958663 55 46 C55 46.33 55 46.66 55 47 C38.5 47 22 47 5 47 C5.66 46.01 6.32 45.02 7 44 C7.66 44 8.32 44 9 44 C9.28746094 43.42121094 9.57492187 42.84242188 9.87109375 42.24609375 C10.57980738 40.83602338 11.29956419 39.43139326 12.03515625 38.03515625 C12.54369141 37.05869141 12.54369141 37.05869141 13.0625 36.0625 C13.40410156 35.41410156 13.74570312 34.76570313 14.09765625 34.09765625 C16.96692693 27.42753349 17.37137046 18.97318004 15.01171875 12.13671875 C11.82595232 6.07927554 8.45277889 3.60576076 1.9765625 1.5234375 C1.32429688 1.35070312 0.67203125 1.17796875 0 1 C0 0.67 0 0.34 0 0 Z " fill="#DADADA" transform="translate(329,165)"/>
<path d="M0 0 C0 0.33 0 0.66 0 1 C-14.60278942 2.23989215 -29.22848372 2.21711432 -43.87308502 2.30332303 C-47.47384413 2.32547226 -51.07456496 2.35271677 -54.67529297 2.37937927 C-61.46752152 2.42892107 -68.25977175 2.47399962 -75.05204201 2.51740164 C-82.7959428 2.56710728 -90.53980512 2.62189974 -98.28366852 2.67708123 C-114.18907664 2.79030855 -130.09452039 2.89727217 -146 3 C-147.00217064 6.58327753 -147.00217064 6.58327753 -146 10 C-147.32 9.67 -148.64 9.34 -150 9 C-149.74438677 6.6568787 -149.40729228 4.32156597 -149 2 C-146.5841173 0.79205865 -145.04065397 0.86211682 -142.34082031 0.84178162 C-141.3575325 0.8319928 -140.37424469 0.82220398 -139.36116028 0.81211853 C-137.73605782 0.80348534 -137.73605782 0.80348534 -136.078125 0.79467773 C-134.93941452 0.78477814 -133.80070404 0.77487854 -132.62748718 0.76467896 C-128.83501295 0.73292365 -125.04252674 0.70821698 -121.25 0.68359375 C-118.60229086 0.6630019 -115.95458706 0.6420432 -113.30688477 0.62062073 C-107.73146593 0.57627413 -102.15603039 0.53554487 -96.58056641 0.49731445 C-88.81285757 0.44404306 -81.04521086 0.38413562 -73.27756119 0.32291877 C-67.16421843 0.2750374 -61.05085931 0.22930339 -54.9375 0.18359375 C-53.66998901 0.17403593 -52.40247803 0.16447811 -51.09655762 0.15463066 C-34.06409073 0.02842315 -17.03293041 -0.02574572 0 0 Z " fill="#FDFDFD" transform="translate(442,365)"/>
<path d="M0 0 C24.26317005 -0.07178616 48.51511253 0.10299504 72.7755127 0.46356201 C77.00135643 0.52578955 81.22724253 0.5850029 85.453125 0.64453125 C93.63545887 0.76020622 101.81774322 0.87899466 110 1 C110 1.33 110 1.66 110 2 C32.94450337 3.58281795 32.94450337 3.58281795 0 2 C0 1.34 0 0.68 0 0 Z " fill="#DFDFDF" transform="translate(254,217)"/>
<path d="M0 0 C0.54237305 0.12262207 1.08474609 0.24524414 1.64355469 0.37158203 C5.63497803 1.26721432 9.62792813 2.13433198 13.640625 2.9296875 C15.17708333 3.24479167 16.71354167 3.55989583 18.25 3.875 C19.02601563 4.02324219 19.80203125 4.17148438 20.6015625 4.32421875 C26.10824663 5.48005859 29.99080903 7.04709813 33.2890625 11.89453125 C35.3367358 17.95879447 34.74141073 25.06091336 32.375 30.9375 C30.26107542 35.00330616 27.9394351 37.54714418 24 40 C15.44464101 42.63453651 6.79023899 42.22528752 -2.0625 42.125 C-3.61132234 42.11495008 -5.16015099 42.10582779 -6.70898438 42.09765625 C-10.47281428 42.07580207 -14.23633623 42.04138343 -18 42 C-18 41.67 -18 41.34 -18 41 C-17.23969482 40.97494385 -16.47938965 40.9498877 -15.69604492 40.92407227 C-12.19307983 40.80678371 -8.69029814 40.68466943 -5.1875 40.5625 C-3.99189453 40.52318359 -2.79628906 40.48386719 -1.56445312 40.44335938 C12.90570941 40.75250562 12.90570941 40.75250562 26 36 C29.76798014 31.05530846 32.37620812 25.20875286 31.8125 18.9375 C31.23308809 15.41386708 30.25303507 12.83715527 28 10 C25.12649057 8.31018164 22.36744655 7.51189755 19.12109375 6.81640625 C18.20005859 6.61080078 17.27902344 6.40519531 16.33007812 6.19335938 C14.39877174 5.77214941 12.46646645 5.35549419 10.53320312 4.94335938 C9.61345703 4.73646484 8.69371094 4.52957031 7.74609375 4.31640625 C6.90747803 4.13537354 6.0688623 3.95434082 5.20483398 3.76782227 C2.77775024 2.92260265 1.64682484 1.94017283 0 0 Z " fill="#DADADA" transform="translate(305,167)"/>
<path d="M0 0 C0.66 0.33 1.32 0.66 2 1 C1.979375 1.804375 1.95875 2.60875 1.9375 3.4375 C1.70366379 5.93354885 1.70366379 5.93354885 3 7 C4.79657063 7.10860365 6.59741757 7.14687842 8.39723206 7.15821838 C10.15364517 7.17290161 10.15364517 7.17290161 11.94554138 7.18788147 C13.88977745 7.19651466 13.88977745 7.19651466 15.87329102 7.20532227 C17.24288228 7.2148956 18.61247055 7.22490535 19.98205566 7.23532104 C23.7111973 7.26243531 27.44035168 7.28340943 31.16953778 7.30332303 C35.06266957 7.32514251 38.95576179 7.35255089 42.84886169 7.37937927 C50.22595277 7.42936094 57.60306574 7.47427939 64.98019975 7.51740164 C73.37670352 7.56672733 81.77316761 7.62166271 90.16963303 7.67708123 C107.44638537 7.79098528 124.72317451 7.89780588 142 8 C142 8.33 142 8.66 142 9 C123.6504347 9.04667146 105.30088475 9.08196498 86.95127296 9.10362434 C78.43168786 9.1139474 69.91213959 9.12802732 61.39257812 9.15087891 C53.96899306 9.17078136 46.54543467 9.18370895 39.12182367 9.18817699 C35.18921063 9.19078972 31.25667388 9.19695198 27.32408524 9.21146011 C23.62563459 9.22499444 19.92729195 9.22923111 16.22881889 9.22621536 C14.21816 9.2270314 12.20751298 9.23781468 10.19688416 9.24884033 C9.00773911 9.246091 7.81859406 9.24334167 6.59341431 9.24050903 C5.03650596 9.24327441 5.03650596 9.24327441 3.44814491 9.24609566 C1 9 1 9 -1 7 C-0.625 3.375 -0.625 3.375 0 0 Z " fill="#FFFFFF" transform="translate(308,262)"/>
<path d="M0 0 C5.8731068 1.82609203 11.2254095 4.27001651 16.68994141 7.09106445 C21.42276957 9.52928519 26.22695317 11.61761211 31.1640625 13.6015625 C33.92441701 14.74887034 36.57846178 16.03202057 39.26171875 17.34765625 C46.19946748 20.56693466 53.58242833 22.11659542 61.01171875 23.78515625 C61.01171875 24.11515625 61.01171875 24.44515625 61.01171875 24.78515625 C54.64668289 25.04025544 49.86167272 24.52880342 43.94921875 22.22265625 C43.17553955 21.93181152 42.40186035 21.6409668 41.60473633 21.34130859 C31.49096253 17.39619914 21.7163555 12.59055756 11.95483398 7.85327148 C11.2774115 7.52768753 10.59998901 7.20210358 9.90203857 6.86665344 C8.62653395 6.25314618 7.3539566 5.63349886 6.08502197 5.0065155 C2.40475138 3.24206922 -0.93720174 2.26510729 -4.98828125 1.78515625 C-1.98828125 -0.21484375 -1.98828125 -0.21484375 0 0 Z " fill="#E3E3E3" transform="translate(267.98828125,140.21484375)"/>
<path d="M0 0 C7.37216853 -0.09325368 14.74420699 -0.16404243 22.11684895 -0.20724869 C25.54141087 -0.22800031 28.96556517 -0.25608503 32.38989258 -0.30175781 C36.33930343 -0.35409597 40.28855729 -0.37304794 44.23828125 -0.390625 C45.45018631 -0.41127014 46.66209137 -0.43191528 47.91072083 -0.45318604 C56.43840723 -0.45540637 65.1247047 0.3137435 71.5625 6.4375 C74.59092482 11.83599642 75.26827009 16.14637564 75.125 22.3125 C75.11597656 23.05306641 75.10695313 23.79363281 75.09765625 24.55664062 C75.07424213 26.37123467 75.03837615 28.18566071 75 30 C74.67 30 74.34 30 74 30 C73.83564453 28.37191406 73.83564453 28.37191406 73.66796875 26.7109375 C73.50841392 25.26555848 73.34822389 23.82024949 73.1875 22.375 C73.11724609 21.66214844 73.04699219 20.94929688 72.97460938 20.21484375 C72.36071345 14.86167125 71.15291544 10.31852432 67.375 6.25 C63.78121662 4.35853506 59.97338489 3.72166179 56 3 C56 2.34 56 1.68 56 1 C37.52 1 19.04 1 0 1 C0 0.67 0 0.34 0 0 Z " fill="#E5E5E5" transform="translate(388,219)"/>
<path d="M0 0 C0.66 0.33 1.32 0.66 2 1 C1.45730469 1.85722656 0.91460937 2.71445313 0.35546875 3.59765625 C-0.3674461 4.75244232 -1.09008773 5.90739946 -1.8125 7.0625 C-2.16892578 7.62388672 -2.52535156 8.18527344 -2.89257812 8.76367188 C-6.925952 15.23927213 -9.42827418 21.6170168 -10.6875 29.125 C-10.81560059 29.87434814 -10.94370117 30.62369629 -11.07568359 31.39575195 C-11.92754942 36.72474704 -12.19099511 41.84167392 -12.0390625 47.2421875 C-11.98499708 52.44328124 -12.2477999 57.61841828 -12.5 62.8125 C-12.54785645 63.81112061 -12.59571289 64.80974121 -12.64501953 65.83862305 C-12.76092387 68.22587859 -12.87915502 70.61299022 -13 73 C-13.33 73 -13.66 73 -14 73 C-14.12526541 67.16918434 -14.21511056 61.33918198 -14.2746582 55.50732422 C-14.29952736 53.53094815 -14.33343555 51.5546613 -14.37719727 49.57861328 C-14.73769446 32.86002595 -13.49079807 14.19831701 -1.3203125 1.20703125 C-0.88460937 0.80871094 -0.44890625 0.41039062 0 0 Z " fill="#D3D3D3" transform="translate(105,225)"/>
<path d="M0 0 C-1.50307602 4.67623652 -4.8653531 5.85884357 -9 8 C-11.89914911 9.44957456 -14.414283 9.11932924 -17.65283203 9.11352539 C-18.67739502 9.11374443 -18.67739502 9.11374443 -19.72265625 9.1139679 C-21.9844071 9.11327023 -24.246076 9.10548465 -26.5078125 9.09765625 C-28.07437088 9.09579155 -29.64092984 9.09436789 -31.20748901 9.09336853 C-35.33389898 9.08954743 -39.46027384 9.0797206 -43.58666992 9.06866455 C-47.79605637 9.0584417 -52.00544847 9.05386903 -56.21484375 9.04882812 C-64.47657862 9.03809798 -72.73828495 9.02102642 -81 9 C-80.67 8.34 -80.34 7.68 -80 7 C-78.78969872 7.01332367 -78.78969872 7.01332367 -77.5549469 7.0269165 C-69.9201052 7.10734085 -62.2854713 7.16810487 -54.65031528 7.20724869 C-50.72575754 7.22805011 -46.80155223 7.25622951 -42.87719727 7.30175781 C-39.0840659 7.34548418 -35.29127176 7.36919299 -31.49790764 7.37950897 C-30.0567183 7.38685268 -28.61554568 7.40119244 -27.17450142 7.42292023 C-19.20419506 7.53822498 -11.85892769 7.59411809 -5 3 C-4.46931412 2.46038635 -3.93862823 1.92077271 -3.39186096 1.36480713 C-2 0 -2 0 0 0 Z " fill="#CFCFCF" transform="translate(431,410)"/>
<path d="M0 0 C0.66 0.66 1.32 1.32 2 2 C1.66712599 8.54652212 -3.47568434 12.76305944 -8 17 C-15.83106167 22.4484195 -27.06380496 21.05643468 -36.0625 20.5625 C-37.64708008 20.48418945 -37.64708008 20.48418945 -39.26367188 20.40429688 C-41.84284382 20.2759218 -44.42149436 20.14102952 -47 20 C-47 19.67 -47 19.34 -47 19 C-46.22922119 18.98541748 -45.45844238 18.97083496 -44.66430664 18.95581055 C-41.12989827 18.88076834 -37.59637693 18.78429353 -34.0625 18.6875 C-32.85013672 18.66494141 -31.63777344 18.64238281 -30.38867188 18.61914062 C-20.93332441 18.3372739 -12.69190626 17.44417413 -5.5078125 10.828125 C-2.85049839 7.60630374 -1.39637478 3.90291087 0 0 Z " fill="#DFDFDF" transform="translate(505,354)"/>
<path d="M0 0 C0.33 0 0.66 0 1 0 C2.16137689 7.98015408 2.94565426 14.6244244 -1.28515625 21.75 C-5.99355711 27.92776514 -12.42404467 33.71074393 -20 36 C-23 35.75 -23 35.75 -25 35 C-22.50378608 33.33585739 -20.49266241 32.34322907 -17.75 31.25 C-9.78310782 27.72643143 -5.21088387 23.09626094 -2 15 C-0.9458482 11.83754459 -0.68724328 9.13051782 -0.4375 5.8125 C-0.35371094 4.72582031 -0.26992188 3.63914062 -0.18359375 2.51953125 C-0.09271484 1.27236328 -0.09271484 1.27236328 0 0 Z " fill="#F6F6F6" transform="translate(444,391)"/>
<path d="M0 0 C0.33 0 0.66 0 1 0 C1.08636719 1.07636719 1.17273438 2.15273438 1.26171875 3.26171875 C2.69987946 18.99284521 6.66353307 31.9002661 18.9375 42.5625 C19.948125 43.366875 20.95875 44.17125 22 45 C20.515 45.495 20.515 45.495 19 46 C18.01 45.34 17.02 44.68 16 44 C16 43.34 16 42.68 16 42 C15.4121875 41.7628125 14.824375 41.525625 14.21875 41.28125 C8.080563 37.73666314 4.17357489 29.39765099 1.78125 22.921875 C-0.02981275 16.1485003 -2.40395852 6.7449196 0 0 Z " fill="#EEEEEE" transform="translate(82,363)"/>
<path d="M0 0 C4.00262312 0.91488528 5.61661144 2.52875206 7.75 5.875 C11.58761099 12.26292209 11.97753118 19.18931508 10.50390625 26.44140625 C8.80720004 32.10667953 6.47854762 36.90827423 1.2265625 40.06640625 C-2.04835815 41.60713896 -3.49646685 42.16784438 -7 41 C-5.80375 40.484375 -4.6075 39.96875 -3.375 39.4375 C1.78685284 36.82911692 5.48057305 33.43096408 7.84765625 28.0859375 C9.85730507 21.40485336 9.09918173 14.90870839 6.1875 8.625 C4.55517167 5.61147078 2.91313663 3.87273069 0 2 C0 1.34 0 0.68 0 0 Z " fill="#D5D5D5" transform="translate(499,273)"/>
<path d="M0 0 C0.53625 0.226875 1.0725 0.45375 1.625 0.6875 C0.64144531 1.11417969 -0.34210938 1.54085937 -1.35546875 1.98046875 C-13.70927478 7.49316433 -25.00995969 14.37745787 -36.375 21.6875 C-36.375 20.6975 -36.375 19.7075 -36.375 18.6875 C-33.98826254 16.92773545 -31.66091744 15.39124233 -29.125 13.875 C-28.40006348 13.43212646 -27.67512695 12.98925293 -26.92822266 12.53295898 C-20.90813479 8.90115306 -14.72862725 5.69563325 -8.375 2.6875 C-7.35664063 2.11902344 -6.33828125 1.55054688 -5.2890625 0.96484375 C-2.375 -0.3125 -2.375 -0.3125 0 0 Z " fill="#EFEFEF" transform="translate(178.375,162.3125)"/>
<path d="M0 0 C0.54237305 0.12262207 1.08474609 0.24524414 1.64355469 0.37158203 C5.63497803 1.26721432 9.62792813 2.13433198 13.640625 2.9296875 C15.9453125 3.40234375 15.9453125 3.40234375 18.25 3.875 C19.02601563 4.02324219 19.80203125 4.17148438 20.6015625 4.32421875 C25.34227835 5.31928368 28.45227838 6.49353096 32 10 C33.35439668 12.70879335 33.06501451 15.00933268 33 18 C31 15 31 15 29.625 12.4375 C26.99532535 8.49298803 23.61037661 7.77818008 19.12109375 6.81640625 C18.20005859 6.61080078 17.27902344 6.40519531 16.33007812 6.19335938 C14.39877174 5.77214941 12.46646645 5.35549419 10.53320312 4.94335938 C9.61345703 4.73646484 8.69371094 4.52957031 7.74609375 4.31640625 C6.90747803 4.13537354 6.0688623 3.95434082 5.20483398 3.76782227 C2.77775024 2.92260265 1.64682484 1.94017283 0 0 Z " fill="#F1F1F1" transform="translate(305,167)"/>
<path d="M0 0 C0.66 0 1.32 0 2 0 C1.34 3.63 0.68 7.26 0 11 C10.395 11.99 10.395 11.99 21 13 C21 13.33 21 13.66 21 14 C12.42 14 3.84 14 -5 14 C-4.34 12.35 -3.68 10.7 -3 9 C-2.44554163 7.40020958 -1.90321244 5.79614698 -1.375 4.1875 C-1.11460937 3.39730469 -0.85421875 2.60710937 -0.5859375 1.79296875 C-0.39257812 1.20128906 -0.19921875 0.60960937 0 0 Z " fill="#E6E6E6" transform="translate(469,249)"/>
<path d="M0 0 C5.38004636 0.56765843 9.53127504 2.45565549 14.3125 4.8125 C15.81737814 5.53844531 17.32258384 6.26371198 18.828125 6.98828125 C19.54548828 7.33584473 20.26285156 7.6834082 21.00195312 8.04150391 C24.63001333 9.78194432 28.31236274 11.39084919 32 13 C28.9511841 14.37663371 27.75641715 13.91414253 24.53125 12.77734375 C23.18185388 12.1765875 21.83831895 11.56254428 20.5 10.9375 C19.79746094 10.61966553 19.09492188 10.30183105 18.37109375 9.97436523 C12.16793516 7.14368159 6.05668815 4.13158308 0 1 C0 0.67 0 0.34 0 0 Z " fill="#F2F2F2" transform="translate(273,153)"/>
<path d="M0 0 C0.33 0 0.66 0 1 0 C1.17015625 0.97839844 1.3403125 1.95679688 1.515625 2.96484375 C3.70372086 15.03018924 6.98866307 23.48091146 15 33 C14.67 33.66 14.34 34.32 14 35 C6.50100593 27.63126141 0.31335392 18.27254353 -0.09765625 7.421875 C-0.08025391 6.09929687 -0.08025391 6.09929687 -0.0625 4.75 C-0.05347656 3.85796875 -0.04445313 2.9659375 -0.03515625 2.046875 C-0.02355469 1.37140625 -0.01195313 0.6959375 0 0 Z " fill="#E9E9E9" transform="translate(90,365)"/>
<path d="M0 0 C0.33 0 0.66 0 1 0 C1.48731774 7.06610723 0.18557697 10.09276754 -4.3449707 15.6496582 C-6.54742318 17.4466437 -7.85233407 17.34677069 -10.66796875 17.29296875 C-11.56064453 17.28330078 -12.45332031 17.27363281 -13.37304688 17.26367188 C-14.76620117 17.2259668 -14.76620117 17.2259668 -16.1875 17.1875 C-17.12787109 17.17396484 -18.06824219 17.16042969 -19.03710938 17.14648438 C-21.35865038 17.11113096 -23.67903653 17.06178674 -26 17 C-26 16.67 -26 16.34 -26 16 C-22.79695126 15.17340678 -19.90719045 14.97834127 -16.625 15.0625 C-12.41193796 15.09058708 -8.93544575 14.65288721 -5 13 C-1.78312243 9.22848836 -1.04482745 4.74190921 0 0 Z " fill="#F3F3F3" transform="translate(461,245)"/>
<path d="M0 0 C-2.30026239 2.30026239 -3.51389346 2.57607536 -6.625 3.375 C-7.59308594 3.62636719 -8.56117188 3.87773437 -9.55859375 4.13671875 C-10.69425781 4.42160156 -11.82992187 4.70648438 -13 5 C-14.03084717 5.26031006 -14.03084717 5.26031006 -15.08251953 5.52587891 C-19.71860773 6.69646291 -24.3581145 7.85263307 -29 9 C-28.67 8.01 -28.34 7.02 -28 6 C-26.06982422 5.10864258 -26.06982422 5.10864258 -23.5546875 4.39453125 C-22.64203125 4.13349609 -21.729375 3.87246094 -20.7890625 3.60351562 C-19.82742187 3.34248047 -18.86578125 3.08144531 -17.875 2.8125 C-16.46734375 2.40354492 -16.46734375 2.40354492 -15.03125 1.98632812 C-9.86115169 0.54174183 -5.36620746 -0.33445891 0 0 Z " fill="#F2F2F2" transform="translate(238,153)"/>
<path d="M0 0 C5.31901517 -0.50657287 7.86484812 0.67389957 12 4 C17.51192016 9.97124684 18.29537579 14.99487224 18.125 22.8125 C18.11597656 23.60076172 18.10695313 24.38902344 18.09765625 25.20117188 C18.07422504 27.13424666 18.03835838 29.0671638 18 31 C17.67 31 17.34 31 17 31 C16.99613281 29.44152344 16.99613281 29.44152344 16.9921875 27.8515625 C16.82014403 19.26793276 16.50023489 11.3839285 10 5 C6.77153635 3.16203709 3.58543519 1.9495026 0 1 C0 0.67 0 0.34 0 0 Z " fill="#F3F3F3" transform="translate(329,165)"/>
<path d="M0 0 C0.33 0 0.66 0 1 0 C2.2422351 10.52158165 2.42895378 18.13754512 -3.5625 27.0625 C-4.7690625 28.5165625 -4.7690625 28.5165625 -6 30 C-6.66 30 -7.32 30 -8 30 C-6.73813835 26.65459935 -5.2452382 23.70085306 -3.4375 20.625 C-0.02914286 14.00877731 -0.10735094 7.31938255 0 0 Z " fill="#D5D5D5" transform="translate(516,287)"/>
<path d="M0 0 C6.76594019 -0.11381955 13.28837062 0.11978631 20 1 C20.33 1.99 20.66 2.98 21 4 C14.07 3.34 7.14 2.68 0 2 C0 1.34 0 0.68 0 0 Z " fill="#DFDFDF" transform="translate(250,202)"/>
<path d="M0 0 C8.62242152 -0.76681614 8.62242152 -0.76681614 12 1.11328125 C13.625 2.5 13.625 2.5 16 5 C15.67 5.66 15.34 6.32 15 7 C14.01 6.360625 13.02 5.72125 12 5.0625 C7.99717514 2.74593674 4.58078998 2.32145895 0 2 C0 1.34 0 0.68 0 0 Z " fill="#F8F8F8" transform="translate(413,374)"/>
<path d="M0 0 C2.24973447 -0.054138 4.49984383 -0.09285491 6.75 -0.125 C8.00296875 -0.14820313 9.2559375 -0.17140625 10.546875 -0.1953125 C13.72820492 -0.01537302 15.36521896 0.31001418 18 2 C15.93831015 2.19620767 13.87559002 2.38160753 11.8125 2.5625 C10.66394531 2.66691406 9.51539063 2.77132812 8.33203125 2.87890625 C5.31368801 2.98859985 2.91076064 2.74002389 0 2 C0 1.34 0 0.68 0 0 Z " fill="#E6E6E6" transform="translate(236,216)"/>
<path d="M0 0 C0.33 0 0.66 0 1 0 C1.25011345 2.22691371 1.47428352 4.45675122 1.6875 6.6875 C1.81511719 7.92886719 1.94273437 9.17023438 2.07421875 10.44921875 C1.99249308 14.35914707 1.39266772 15.96125724 -1 19 C-1.99 19.66 -2.98 20.32 -4 21 C-3.79503906 20.48953125 -3.59007812 19.9790625 -3.37890625 19.453125 C-0.99030189 13.00732185 -0.33564879 6.8402909 0 0 Z " fill="#D1D1D1" transform="translate(444,391)"/>
<path d="M0 0 C-0.33 0.66 -0.66 1.32 -1 2 C-3.87109375 2.921875 -3.87109375 2.921875 -7.4375 3.75 C-9.19900391 4.17539063 -9.19900391 4.17539063 -10.99609375 4.609375 C-11.98738281 4.73828125 -12.97867188 4.8671875 -14 5 C-14.66 4.34 -15.32 3.68 -16 3 C-14.08802961 2.29954544 -12.17019565 1.615081 -10.25 0.9375 C-9.18265625 0.55464844 -8.1153125 0.17179688 -7.015625 -0.22265625 C-4.07719958 -0.98010011 -2.77651052 -1.07151741 0 0 Z " fill="#E4E4E4" transform="translate(210,161)"/>
<path d="M0 0 C2.94832329 2.43557141 3.5808494 4.22764462 4 8 C4.16745412 10.72112952 4.13475596 13.25996224 4 16 C3.34 16.66 2.68 17.32 2 18 C1.93941406 17.28714844 1.87882812 16.57429688 1.81640625 15.83984375 C1.35191899 10.53039712 0.81924749 5.266591 0 0 Z " fill="#FDFDFD" transform="translate(443,384)"/>
<path d="M0 0 C0.33 0.99 0.66 1.98 1 3 C-2.34152712 8.01229069 -5.26510582 10.19457035 -11 12 C-11.99 11.67 -12.98 11.34 -14 11 C-12.80375 10.484375 -11.6075 9.96875 -10.375 9.4375 C-5.7794364 7.17242684 -3.01707592 4.06848117 0 0 Z " fill="#EAEAEA" transform="translate(506,303)"/>
<path d="M0 0 C0.66 0.33 1.32 0.66 2 1 C0.90630138 2.81883578 -0.20031392 4.62990978 -1.3125 6.4375 C-1.92738281 7.44683594 -2.54226562 8.45617187 -3.17578125 9.49609375 C-5 12 -5 12 -8 13 C-6.40956621 7.91061189 -3.2553049 4.12543357 0 0 Z " fill="#E8E8E8" transform="translate(105,225)"/>
<path d="M0 0 C0.33 0 0.66 0 1 0 C1.33456205 5.4645135 0.68001046 9.19446399 -2 14 C-4.6875 15.9375 -4.6875 15.9375 -7 17 C-6.00718233 15.00100837 -5.0052131 13.00989505 -3.96484375 11.03515625 C-2.05844371 7.37457822 -0.51903723 4.1522978 0 0 Z " fill="#E1E1E1" transform="translate(345,192)"/>
<path d="M0 0 C0.66 0 1.32 0 2 0 C0.72726053 3.95963389 -1.68299713 5.37729554 -5.1796875 7.25 C-7.53294894 8.21958411 -9.48739234 8.3045585 -12 8 C-9.82712213 6.55141475 -7.71328862 5.25831941 -5.4375 4 C-2.06123441 2.23162582 -2.06123441 2.23162582 0 0 Z " fill="#F4F4F4" transform="translate(429,410)"/>
<path d="M0 0 C3.66060821 0.58536753 5.54535164 2.083239 8.25 4.5625 C8.95640625 5.20316406 9.6628125 5.84382813 10.390625 6.50390625 C10.92171875 6.99761719 11.4528125 7.49132812 12 8 C11.01 8.33 10.02 8.66 9 9 C8.01 8.34 7.02 7.68 6 7 C6 6.34 6 5.68 6 5 C5.38125 4.731875 4.7625 4.46375 4.125 4.1875 C2 3 2 3 0 0 Z " fill="#F7F7F7" transform="translate(92,400)"/>
<path d="M0 0 C3.26008643 3.16952847 6.22237877 6.39937989 9 10 C8.67 10.66 8.34 11.32 8 12 C6.65772954 10.57084149 5.32642904 9.13137328 4 7.6875 C3.2575 6.88699219 2.515 6.08648437 1.75 5.26171875 C0 3 0 3 0 0 Z " fill="#F7F7F7" transform="translate(96,388)"/>
<path d="M0 0 C-0.33 0.99 -0.66 1.98 -1 3 C-4.67566856 4.61729417 -9.07239675 4.06546005 -13 4 C-12.67 3.34 -12.34 2.68 -12 2 C-9.78515625 1.3671875 -9.78515625 1.3671875 -7.0625 0.875 C-6.16660156 0.70742188 -5.27070313 0.53984375 -4.34765625 0.3671875 C-2 0 -2 0 0 0 Z " fill="#F3F3F3" transform="translate(489,362)"/>
<path d="M0 0 C9.41002278 -0.3690205 9.41002278 -0.3690205 14 2 C14 2.66 14 3.32 14 4 C9.38 3.01 4.76 2.02 0 1 C0 0.67 0 0.34 0 0 Z " fill="#E0E0E0" transform="translate(490,263)"/>
<path d="M0 0 C0.66 0.33 1.32 0.66 2 1 C-0.83430453 4.2542015 -2.68607774 5.5206753 -7 6 C-6 3 -6 3 -3.0625 1.25 C-2.051875 0.8375 -1.04125 0.425 0 0 Z " fill="#F2F2F2" transform="translate(172,173)"/>
<path d="M0 0 C1.41805831 0.28482368 2.83440379 0.57818144 4.25 0.875 C5.03890625 1.03742188 5.8278125 1.19984375 6.640625 1.3671875 C8.96831144 1.99150075 10.89031952 2.84838542 13 4 C7.73946963 4.31563182 4.55426184 3.66590937 0 1 C0 0.67 0 0.34 0 0 Z " fill="#E7E7E7" transform="translate(305,167)"/>
<path d="M0 0 C0.66 0.66 1.32 1.32 2 2 C1.875 4.5 1.875 4.5 1 7 C-0.98 7.99 -0.98 7.99 -3 9 C-2.01 6.03 -1.02 3.06 0 0 Z " fill="#E2E2E2" transform="translate(505,354)"/>
<path d="M0 0 C3.66881155 0.70554068 6.70450534 2.27735506 10 4 C9.67 4.66 9.34 5.32 9 6 C5.06326356 4.68775452 2.77280706 3.08089673 0 0 Z " fill="#EDEDED" transform="translate(103,409)"/>
<path d="M0 0 C0.66 0.33 1.32 0.66 2 1 C1.979375 1.763125 1.95875 2.52625 1.9375 3.3125 C1.87057159 6.10185786 1.87057159 6.10185786 3 9 C1.68 8.34 0.36 7.68 -1 7 C-0.67 4.69 -0.34 2.38 0 0 Z " fill="#EEEEEE" transform="translate(308,262)"/>
<path d="M0 0 C0.66 0 1.32 0 2 0 C1.979375 0.94875 1.95875 1.8975 1.9375 2.875 C1.77448174 5.90666283 1.77448174 5.90666283 3 8 C1.68 7.67 0.36 7.34 -1 7 C-0.67 4.69 -0.34 2.38 0 0 Z " fill="#E2E2E2" transform="translate(293,367)"/>
<path d="M0 0 C4.21912747 0.4794463 6.79663178 1.16625119 10 4 C3.47692308 3.38461538 3.47692308 3.38461538 1.0625 1.4375 C0.711875 0.963125 0.36125 0.48875 0 0 Z " fill="#EDEDED" transform="translate(273,153)"/>
<path d="M0 0 C0.66 0.33 1.32 0.66 2 1 C0.8125 2.5625 0.8125 2.5625 -1 4 C-3.6875 3.6875 -3.6875 3.6875 -6 3 C-3 1 -3 1 0 0 Z " fill="#DFDFDF" transform="translate(425,423)"/>
</svg>
